<svg width="20" height="14" viewBox="0 0 20 14" fill="none" xmlns="http://www.w3.org/2000/svg">
<path d="M0.12207 7.29467L6.37207 13.5447C6.53484 13.7074 6.79852 13.7074 6.96125 13.5447C7.12402 13.3819 7.12402 13.1182 6.96125 12.9555L1.4225 7.41674L19.5833 7.41674C19.8136 7.41674 20 7.23037 20 7.00006C20 6.76975 19.8136 6.58338 19.5833 6.58338L1.4225 6.58338L6.96125 1.04467C7.12402 0.881896 7.12402 0.618225 6.96125 0.455491C6.87988 0.374124 6.77324 0.333421 6.66664 0.333421C6.56004 0.333421 6.45344 0.374124 6.37203 0.455491L0.12203 6.70549C-0.0407028 6.86822 -0.0407028 7.1319 0.12207 7.29467Z" fill="white"/>
</svg>
