<svg width="20" height="19" viewBox="0 0 20 19" fill="none" xmlns="http://www.w3.org/2000/svg">
<path d="M19.8962 16.2333C19.8559 16.0841 19.1427 13.4216 18.7656 12.0141C18.6941 11.7508 18.5211 11.5266 18.2846 11.3905C18.048 11.2545 17.7672 11.2178 17.5036 11.2884C17.2401 11.359 17.0152 11.5312 16.8784 11.7672C16.7415 12.0033 16.7038 12.2839 16.7734 12.5477L17.2622 14.3722L10.9965 10.7547V3.51949L12.3321 4.85522C12.4276 4.95194 12.5413 5.02882 12.6667 5.08143C12.792 5.13403 12.9266 5.16133 13.0625 5.16176C13.1985 5.16218 13.3332 5.13572 13.4589 5.08389C13.5845 5.03206 13.6987 4.95589 13.7949 4.85977C13.891 4.76364 13.9672 4.64946 14.019 4.52378C14.0709 4.3981 14.0974 4.26341 14.097 4.12746C14.0966 3.99151 14.0693 3.85697 14.0167 3.73161C13.9641 3.60624 13.8873 3.4925 13.7905 3.39695L10.7289 0.335123C10.2446 -0.148619 9.71995 0.01535 9.57067 0.077311C9.44212 0.130512 9.32567 0.209193 9.22834 0.308612C9.11533 0.421963 7.16924 2.36789 6.14005 3.3969C6.04385 3.49256 5.96748 3.60626 5.91529 3.73148C5.86311 3.85671 5.83615 3.991 5.83595 4.12666C5.83576 4.26232 5.86233 4.39669 5.91415 4.52206C5.96597 4.64744 6.04202 4.76136 6.13793 4.85729C6.23385 4.95323 6.34776 5.02929 6.47312 5.08114C6.59849 5.13298 6.73285 5.15957 6.86851 5.1594C7.00417 5.15923 7.13847 5.13229 7.2637 5.08013C7.38894 5.02797 7.50265 4.95161 7.59832 4.85544L8.934 3.51984V10.7547L2.66809 14.3724C2.84327 13.7187 3.02176 13.0526 3.15703 12.5479C3.19275 12.4169 3.20223 12.2801 3.18495 12.1454C3.16767 12.0107 3.12395 11.8808 3.05632 11.763C2.98868 11.6453 2.89845 11.542 2.79081 11.4593C2.68317 11.3765 2.56024 11.3158 2.42908 11.2806C2.29791 11.2454 2.16109 11.2365 2.02648 11.2544C1.89186 11.2722 1.7621 11.3165 1.64463 11.3847C1.52717 11.4528 1.42432 11.5435 1.34199 11.6514C1.25966 11.7594 1.19947 11.8826 1.16487 12.0139L0.044158 16.1963C-0.134162 16.8633 0.276619 17.2354 0.406814 17.3336C0.515716 17.4157 0.639866 17.4755 0.772049 17.5093C0.933568 17.5522 3.58624 18.2633 4.99003 18.6396C5.12084 18.6746 5.25728 18.6836 5.39155 18.6659C5.52582 18.6482 5.6553 18.6043 5.77259 18.5366C5.88988 18.4689 5.99268 18.3788 6.07514 18.2713C6.15759 18.1639 6.21808 18.0413 6.25314 17.9105C6.28821 17.7796 6.29716 17.6432 6.2795 17.5089C6.26183 17.3747 6.2179 17.2452 6.15019 17.1279C6.08249 17.0106 5.99235 16.9078 5.88491 16.8254C5.77748 16.7429 5.65486 16.6824 5.52405 16.6474L3.6996 16.1584L9.9653 12.5409L16.2312 16.1585L14.4066 16.6473C14.1424 16.7181 13.9172 16.8909 13.7804 17.1278C13.6436 17.3646 13.6066 17.6461 13.6773 17.9103C13.7481 18.1745 13.9209 18.3997 14.1578 18.5365C14.3946 18.6733 14.6761 18.7104 14.9403 18.6396L19.1227 17.5189C19.7604 17.3477 19.8955 16.8566 19.924 16.6535C19.9438 16.513 19.9343 16.37 19.8962 16.2333Z" fill="#3B48D1"/>
</svg>
