<svg width="24" height="24" viewBox="0 0 24 24" fill="none" xmlns="http://www.w3.org/2000/svg">
<g clip-path="url(#clip0)">
<path d="M6.07324 12.1768L9.82324 15.9268C9.92091 16.0244 10.0791 16.0244 10.1768 15.9268C10.2744 15.8291 10.2744 15.6709 10.1768 15.5732L6.8535 12.25L17.75 12.25C17.8882 12.25 18 12.1382 18 12C18 11.8618 17.8882 11.75 17.75 11.75L6.8535 11.75L10.1768 8.42675C10.2744 8.32909 10.2744 8.17089 10.1768 8.07325C10.1279 8.02442 10.0639 8 9.99998 8C9.93602 8 9.87206 8.02442 9.82322 8.07325L6.07322 11.8232C5.97558 11.9209 5.97558 12.0791 6.07324 12.1768Z" fill="#3B48D1"/>
</g>
<circle cx="12" cy="12" r="11.75" stroke="#3B48D1" stroke-width="0.5"/>
<defs>
<clipPath id="clip0">
<rect width="12" height="12" fill="white" transform="translate(18 18) rotate(-180)"/>
</clipPath>
</defs>
</svg>
