<svg width="10" height="14" viewBox="0 0 10 14" fill="none" xmlns="http://www.w3.org/2000/svg">
<path d="M0 0.333984H5.41667C6.1508 0.334015 6.86877 0.549528 7.48156 0.953799C8.09435 1.35807 8.575 1.93332 8.86391 2.60821C9.15282 3.2831 9.23728 4.02795 9.10682 4.75039C8.97636 5.47284 8.63671 6.1411 8.13 6.67232C8.69887 7.00173 9.17111 7.47496 9.49934 8.04452C9.82756 8.61408 10.0002 9.25995 10 9.91732C10 10.4098 9.903 10.8974 9.71455 11.3524C9.52609 11.8074 9.24987 12.2207 8.90165 12.569C8.55343 12.9172 8.14003 13.1934 7.68506 13.3819C7.23009 13.5703 6.74246 13.6673 6.25 13.6673H0V12.0007H0.833333V2.00065H0V0.333984ZM2.5 6.16732H5.41667C5.9692 6.16732 6.4991 5.94782 6.88981 5.55712C7.28051 5.16642 7.5 4.63652 7.5 4.08398C7.5 3.53145 7.28051 3.00155 6.88981 2.61085C6.4991 2.22014 5.9692 2.00065 5.41667 2.00065H2.5V6.16732ZM2.5 7.83398V12.0007H6.25C6.80253 12.0007 7.33244 11.7812 7.72314 11.3905C8.11384 10.9998 8.33333 10.4699 8.33333 9.91732C8.33333 9.36478 8.11384 8.83488 7.72314 8.44418C7.33244 8.05348 6.80253 7.83398 6.25 7.83398H2.5Z" fill="#2D3246"/>
</svg>
