<svg width="20" height="20" viewBox="0 0 20 20" fill="none" xmlns="http://www.w3.org/2000/svg">
<path fill-rule="evenodd" clip-rule="evenodd" d="M10.2992 1.02544C10.4456 0.894047 10.6392 0.825173 10.8374 0.834008C15.0273 0.959436 18.529 4.00107 19.1636 8.06633C19.1677 8.0906 19.1677 8.11536 19.1636 8.13963C19.1773 8.33198 19.1123 8.52174 18.983 8.66695C18.8537 8.81215 18.6707 8.90083 18.4746 8.91336L11.4351 9.37759C11.2023 9.39824 10.9714 9.32163 10.7992 9.1666C10.6269 9.01156 10.5293 8.79247 10.5303 8.56314L10.0571 1.64846V1.53444C10.0657 1.33996 10.1528 1.15684 10.2992 1.02544ZM9.81634 11.1857L15.9178 10.7947L15.9593 10.811C16.2213 10.8153 16.4709 10.9216 16.653 11.1064C16.8352 11.2912 16.935 11.5395 16.9306 11.7965C16.6902 15.3001 14.1215 18.2275 10.6259 18.9816C7.13026 19.7358 3.54682 18.1357 1.83046 15.0543C1.32578 14.1668 1.00686 13.1894 0.892411 12.1793C0.848024 11.88 0.828589 11.5777 0.834302 11.2753C0.84587 7.54973 3.49833 4.33406 7.20972 3.54613C7.65901 3.46203 8.10948 3.68635 8.3055 4.09181C8.3543 4.16538 8.39335 4.24475 8.42172 4.328C8.49129 5.40193 8.56345 6.46568 8.63531 7.52495C8.69207 8.36155 8.74863 9.19535 8.80358 10.0292C8.80074 10.2256 8.83161 10.421 8.89489 10.6074C9.04386 10.9741 9.41458 11.2067 9.81634 11.1857Z" fill="#3B48D1"/>
</svg>
