<svg width="26" height="22" viewBox="0 0 26 22" fill="none" xmlns="http://www.w3.org/2000/svg">
<path d="M21.3399 3.74108C21.5168 3.52811 21.8324 3.49758 22.0449 3.67288L25.5063 6.52968C25.7187 6.70498 25.7475 7.01974 25.5706 7.23271C25.3936 7.44568 25.078 7.47622 24.8656 7.30091L21.7888 4.76154L19.226 7.84648C19.0491 8.05945 18.7335 8.08998 18.5211 7.91468C18.3086 7.73937 18.2799 7.42461 18.4568 7.21164L21.3399 3.74108ZM0.99751 18.3032C11.9046 18.186 16.9057 14.5488 19.2143 11.0677C20.3782 9.3126 20.8813 7.56348 21.093 6.25227C21.1988 5.5971 21.2315 5.0535 21.238 4.67667C21.2412 4.48836 21.2379 4.34203 21.2339 4.24464C21.2319 4.19596 21.2298 4.15954 21.2282 4.13625C21.2274 4.12461 21.2268 4.11626 21.2264 4.1113C21.2262 4.10882 21.2261 4.10719 21.226 4.10642C21.226 4.10604 21.226 4.10587 21.226 4.10592C21.226 4.10594 21.226 4.10615 21.226 4.10616C21.226 4.10641 21.226 4.10672 21.7245 4.0585C22.223 4.01028 22.223 4.0107 22.2231 4.01118C22.2231 4.01141 22.2231 4.01194 22.2232 4.01241C22.2233 4.01334 22.2234 4.0145 22.2235 4.01587C22.2237 4.01862 22.224 4.02224 22.2244 4.02674C22.2251 4.03573 22.226 4.04818 22.2271 4.064C22.2292 4.09562 22.2318 4.14069 22.2341 4.19832C22.2388 4.31355 22.2425 4.47914 22.2389 4.68797C22.2317 5.10542 22.1957 5.69704 22.0813 6.40561C21.8526 7.82189 21.309 9.71436 20.0481 11.6156C17.5071 15.4473 12.1459 19.1823 1.00249 19.3021L0.99751 18.3032Z" fill="#3B48D1"/>
</svg>
