<svg width="12" height="12" viewBox="0 0 12 12" fill="none" xmlns="http://www.w3.org/2000/svg">
<path d="M7.41065 2.01544L0.808079 8.61849C0.774861 8.6518 0.750876 8.69387 0.739455 8.73908L0.00762279 11.6765C-0.0142684 11.7649 0.0117155 11.859 0.0762469 11.9235C0.125074 11.9723 0.191604 11.9993 0.259657 11.9993C0.280501 11.9993 0.301821 11.9968 0.32257 11.9915L3.25999 11.2596C3.30577 11.2482 3.34736 11.2243 3.38058 11.1911L9.98372 4.58851L7.41065 2.01544Z" fill="#D0D6E5"/>
<path d="M11.6193 1.11517L10.8843 0.380199C10.3931 -0.11102 9.53694 -0.110544 9.04629 0.380199L8.146 1.2805L10.719 3.85347L11.6193 2.95317C11.8646 2.7079 11.9998 2.38143 11.9998 2.03422C11.9998 1.68701 11.8646 1.36054 11.6193 1.11517Z" fill="#D0D6E5"/>
</svg>
