<svg width="32" height="32" viewBox="0 0 32 32" fill="none" xmlns="http://www.w3.org/2000/svg">
<path fill-rule="evenodd" clip-rule="evenodd" d="M0 16C0 7.16344 7.16344 0 16 0C24.8366 0 32 7.16344 32 16C32 24.8366 24.8366 32 16 32C7.16344 32 0 24.8366 0 16Z" fill="#D0D6E5"/>
<path d="M12.6146 13.4332C13.3915 12.4112 14.6197 11.75 15.9996 11.75C17.1347 11.75 18.202 12.1921 19.0048 12.9948L19.3362 13.3262L21.9879 10.6746L21.6564 10.3432C20.1454 8.83216 18.1365 8 15.9996 8C13.8627 8 11.8537 8.83216 10.3427 10.3431C10.2055 10.4803 10.0741 10.6217 9.94824 10.7668L12.6146 13.4332Z" fill="white"/>
<path d="M21.2332 22.051C21.3783 21.9251 21.5197 21.7937 21.6569 21.6565C23.1678 20.1455 24 18.1365 24 15.9996C24 15.5129 23.9559 15.0253 23.869 14.5504L23.7987 14.166H15.5312V17.916H19.7954C19.5005 18.5027 19.0786 19.0029 18.5704 19.3882L21.2332 22.051Z" fill="white"/>
<path d="M17.7371 19.8811C17.203 20.1193 16.6138 20.2496 15.9996 20.2496C14.6197 20.2496 13.3915 19.5884 12.6146 18.5664L9.94824 21.2328C10.0741 21.3779 10.2055 21.5193 10.3427 21.6564C11.8537 23.1674 13.8627 23.9996 15.9996 23.9996C17.6219 23.9996 19.1703 23.5195 20.4833 22.6272L17.7371 19.8811Z" fill="white"/>
<path d="M12.1207 17.7357C11.8826 17.2055 11.75 16.6181 11.75 16.0003C11.75 15.3825 11.8826 14.7951 12.1207 14.265L9.37234 11.5166C8.48009 12.8296 8 14.3779 8 16.0003C8 17.6227 8.48009 19.1711 9.37234 20.484L12.1207 17.7357Z" fill="white"/>
</svg>
