<svg width="15" height="15" viewBox="0 0 15 15" fill="none" xmlns="http://www.w3.org/2000/svg">
<g clip-path="url(#clip0)">
<path d="M14.3768 3.28125L10.1309 7.49982L14.3768 11.7184C14.4535 11.558 14.5001 11.3806 14.5001 11.1912V3.80841C14.5001 3.619 14.4535 3.44168 14.3768 3.28125Z" fill="#3B48D1"/>
<path d="M13.2693 2.57812H1.73029C1.54087 2.57812 1.36355 2.62469 1.20312 2.70145L6.62985 8.10084C7.10968 8.58067 7.88996 8.58067 8.36978 8.10084L13.7965 2.70145C13.6361 2.62469 13.4588 2.57812 13.2693 2.57812Z" fill="#3B48D1"/>
<path d="M0.62332 3.28125C0.546566 3.44168 0.5 3.619 0.5 3.80841V11.1912C0.5 11.3806 0.546566 11.558 0.62332 11.7184L4.86923 7.49982L0.62332 3.28125Z" fill="#3B48D1"/>
<path d="M9.5506 8.08008L8.94977 8.6809C8.15027 9.48041 6.84934 9.48041 6.04983 8.6809L5.44903 8.08008L1.20312 12.2986C1.36355 12.3754 1.54087 12.422 1.73029 12.422H13.2693C13.4588 12.422 13.6361 12.3754 13.7965 12.2986L9.5506 8.08008Z" fill="#3B48D1"/>
</g>
<defs>
<clipPath id="clip0">
<rect width="14" height="14" fill="white" transform="translate(0.5 0.5)"/>
</clipPath>
</defs>
</svg>
