<svg width="16" height="16" viewBox="0 0 16 16" fill="none" xmlns="http://www.w3.org/2000/svg">
<path d="M8 15.5C3.85786 15.5 0.5 12.1421 0.5 8C0.5 3.85786 3.85786 0.5 8 0.5C12.1421 0.5 15.5 3.85786 15.5 8C15.4955 12.1403 12.1403 15.4955 8 15.5ZM7.25 11.75V13.25H8.75V11.75H7.25ZM8 4.25C8.82843 4.25 9.5 4.92157 9.5 5.75C9.50264 6.14805 9.34283 6.52995 9.0575 6.8075L8.1275 7.7525C7.56608 8.31629 7.25061 9.07936 7.25 9.875V10.25H8.75C8.69171 9.44376 9.01689 8.6572 9.6275 8.1275L10.3025 7.4375C10.7511 6.99074 11.0022 6.38308 11 5.75C11 4.09315 9.65685 2.75 8 2.75C6.34315 2.75 5 4.09315 5 5.75H6.5C6.5 4.92157 7.17157 4.25 8 4.25Z" fill="#D0D6E5"/>
</svg>
