<svg width="24" height="24" viewBox="0 0 24 24" fill="none" xmlns="http://www.w3.org/2000/svg">
<g clip-path="url(#clip0)">
<path d="M11.9996 0C7.45013 0 3.74963 3.7005 3.74963 8.25C3.74963 12.7995 7.45013 16.5 11.9996 16.5C16.5476 16.5 20.2496 12.7995 20.2496 8.25C20.2496 3.7005 16.5476 0 11.9996 0ZM16.3361 7.083L14.9111 8.868L15.0671 11.2005C15.0851 11.46 14.9666 11.7105 14.7521 11.862C14.6216 11.9535 14.4701 12 14.3171 12C14.2181 12 14.1176 11.9805 14.0246 11.94L11.9996 11.0805L9.97613 11.94C9.73613 12.042 9.46013 12.0135 9.24863 11.862C9.03563 11.7105 8.91713 11.46 8.93363 11.2005L9.08963 8.868L7.66463 7.083C7.50563 6.885 7.45913 6.6195 7.53863 6.378C7.61813 6.1365 7.81463 5.9535 8.06063 5.889L10.1876 5.3325L11.3546 3.3675C11.6246 2.9115 12.3746 2.9115 12.6431 3.3675L13.8101 5.3325L15.9386 5.889C16.1831 5.9535 16.3796 6.138 16.4606 6.378C16.5416 6.618 16.4936 6.8835 16.3361 7.083Z" fill="#3B48D1"/>
<path d="M3.56207 13.1152L0.100067 19.1257C-0.0514327 19.3897 -0.0289327 19.7182 0.155567 19.9582C0.340067 20.1982 0.650567 20.3062 0.944567 20.2252L5.34857 19.0417L6.52007 23.4457C6.59807 23.7382 6.84557 23.9557 7.14557 23.9962C7.17857 23.9992 7.21307 24.0007 7.24457 24.0007C7.51007 24.0007 7.75907 23.8597 7.89407 23.6257L11.1686 17.9587C7.91507 17.6827 5.11907 15.8032 3.56207 13.1152Z" fill="#3B48D1"/>
<path d="M23.9007 19.1257L20.4372 13.1152C18.8817 15.8032 16.0842 17.6827 12.8307 17.9587L16.1052 23.6257C16.2402 23.8597 16.4892 24.0007 16.7547 24.0007C16.7862 24.0007 16.8207 23.9992 16.8522 23.9947C17.1537 23.9542 17.3997 23.7367 17.4792 23.4442L18.6507 19.0402L23.0547 20.2237C23.3487 20.3047 23.6577 20.1967 23.8437 19.9567C24.0297 19.7182 24.0507 19.3897 23.9007 19.1257Z" fill="#3B48D1"/>
</g>
<defs>
<clipPath id="clip0">
<rect width="24" height="24" fill="white"/>
</clipPath>
</defs>
</svg>
