<svg width="18" height="18" viewBox="0 0 18 18" fill="none" xmlns="http://www.w3.org/2000/svg">
<path d="M15.75 0H2.25C1.0095 0 0 1.0095 0 2.25V15.75C0 16.9905 1.0095 18 2.25 18H15.75C16.9905 18 18 16.9905 18 15.75V2.25C18 1.0095 16.9905 0 15.75 0ZM16.5 15.75C16.5 16.164 16.164 16.5 15.75 16.5H2.25C1.836 16.5 1.5 16.164 1.5 15.75V2.25C1.5 1.836 1.836 1.5 2.25 1.5H15.75C16.164 1.5 16.5 1.836 16.5 2.25V15.75Z" fill="#D0D6E5"/>
<path d="M13.6875 9.74902H4.3125C3.58875 9.74902 3 10.3378 3 11.0615V13.6865C3 14.4103 3.58875 14.999 4.3125 14.999H13.6875C14.4113 14.999 15 14.4103 15 13.6865V11.0615C15 10.3378 14.4113 9.74902 13.6875 9.74902Z" fill="#D0D6E5"/>
</svg>
