<svg width="20" height="20" viewBox="0 0 20 20" fill="none" xmlns="http://www.w3.org/2000/svg">
<g clip-path="url(#clip0)">
<path d="M19.9675 7.66185C19.9465 7.71266 19.9157 7.75883 19.8767 7.79766L14.8769 12.7975C14.7114 12.9573 14.4476 12.9527 14.2878 12.7872C14.1318 12.6258 14.1318 12.3698 14.2878 12.2083L18.5768 7.9193H10.4163C5.12621 7.92531 0.839264 12.2123 0.833288 17.5023C0.833288 17.7324 0.646733 17.9189 0.416624 17.9189C0.186516 17.9189 0 17.7324 0 17.5023C0.00644506 11.7522 4.66618 7.09245 10.4163 7.08601H18.5768L14.2886 2.79786C14.1231 2.63798 14.1185 2.3742 14.2784 2.2087C14.4383 2.0432 14.7021 2.03863 14.8676 2.1985C14.8711 2.20186 14.8745 2.20526 14.8778 2.2087L19.8776 7.2085C19.997 7.32756 20.0328 7.50685 19.9684 7.66267L19.9675 7.66185Z" fill="#9699A7"/>
<path d="M14.5828 2.08567C14.3526 2.08524 14.1658 2.27148 14.1653 2.50159C14.1651 2.61252 14.2092 2.71896 14.2878 2.79732L18.9934 7.50214L14.2878 12.207C14.1279 12.3725 14.1325 12.6362 14.298 12.7961C14.4595 12.9521 14.7154 12.9521 14.8769 12.7961L19.8767 7.7963C20.0394 7.63361 20.0394 7.36987 19.8767 7.20715L14.8769 2.20734C14.7988 2.12945 14.6931 2.08571 14.5828 2.08567Z" fill="#9699A7"/>
<path d="M19.5826 7.08601H10.4163C4.66618 7.09245 0.00644506 11.7522 0 17.5023C0 17.7324 0.186555 17.9189 0.416663 17.9189C0.646772 17.9189 0.833327 17.7324 0.833327 17.5023C0.839303 12.2123 5.12625 7.92527 10.4163 7.91934H19.5826C19.8127 7.91934 19.9993 7.73278 19.9993 7.50267C19.9992 7.27256 19.8127 7.08601 19.5826 7.08601Z" fill="#9699A7"/>
</g>
<defs>
<clipPath id="clip0">
<rect width="20" height="20" fill="white" transform="matrix(1 0 0 -1 0 20)"/>
</clipPath>
</defs>
</svg>
