<svg width="16" height="18" viewBox="0 0 16 18" fill="none" xmlns="http://www.w3.org/2000/svg">
<path fill-rule="evenodd" clip-rule="evenodd" d="M14.9059 3.36916C15.2301 3.36916 15.5 3.63832 15.5 3.98082V4.29748C15.5 4.63165 15.2301 4.90914 14.9059 4.90914H1.09488C0.769883 4.90914 0.5 4.63165 0.5 4.29748V3.98082C0.5 3.63832 0.769883 3.36916 1.09488 3.36916H3.52464C4.01821 3.36916 4.44775 3.01833 4.55879 2.52334L4.68603 1.95501C4.88378 1.18085 5.53458 0.666687 6.27939 0.666687H9.72061C10.4573 0.666687 11.1154 1.18085 11.3059 1.91417L11.442 2.5225C11.5522 3.01833 11.9818 3.36916 12.4762 3.36916H14.9059ZM13.6715 14.9451C13.9252 12.5809 14.3693 6.96433 14.3693 6.90766C14.3855 6.736 14.3296 6.5735 14.2186 6.44267C14.0994 6.32017 13.9487 6.24767 13.7826 6.24767H2.22377C2.05681 6.24767 1.89796 6.32017 1.78774 6.44267C1.6759 6.5735 1.62079 6.736 1.62889 6.90766C1.63038 6.91808 1.64632 7.11592 1.67296 7.44667C1.79132 8.91604 2.12097 13.0085 2.33399 14.9451C2.48474 16.3717 3.42082 17.2684 4.77672 17.3009C5.82302 17.3251 6.90093 17.3334 8.00316 17.3334C9.04136 17.3334 10.0958 17.3251 11.1745 17.3009C12.5774 17.2767 13.5127 16.3959 13.6715 14.9451Z" fill="#D0D6E5"/>
</svg>
