<svg width="32" height="32" viewBox="0 0 32 32" fill="none" xmlns="http://www.w3.org/2000/svg">
<path fill-rule="evenodd" clip-rule="evenodd" d="M0 16C0 7.16344 7.16344 0 16 0C24.8366 0 32 7.16344 32 16C32 24.8366 24.8366 32 16 32C7.16344 32 0 24.8366 0 16Z" fill="#D0D6E5"/>
<g clip-path="url(#clip0)">
<path fill-rule="evenodd" clip-rule="evenodd" d="M21.7703 17.2299C22.301 17.7481 22.8612 18.2356 23.3372 18.8061C23.5475 19.0596 23.7466 19.3212 23.8989 19.6153C24.1147 20.0335 23.9192 20.4937 23.5442 20.5187L21.2133 20.5176C20.6121 20.5675 20.1325 20.3255 19.7293 19.9144C19.4066 19.5857 19.1077 19.2359 18.7974 18.8961C18.6702 18.7572 18.537 18.6265 18.3779 18.5232C18.0597 18.3167 17.7835 18.3799 17.6017 18.7118C17.4165 19.0493 17.3745 19.4231 17.3563 19.7993C17.3313 20.3481 17.1654 20.4924 16.6141 20.5176C15.4358 20.5731 14.3175 20.3949 13.2787 19.8005C12.3628 19.2765 11.6526 18.5367 11.0345 17.6992C9.83089 16.0685 8.90919 14.2765 8.08081 12.4344C7.89434 12.0194 8.03071 11.7966 8.48864 11.7887C9.24905 11.7739 10.0094 11.775 10.7707 11.7877C11.0797 11.7922 11.2843 11.9694 11.4037 12.2614C11.8151 13.273 12.3185 14.2354 12.9504 15.1275C13.1186 15.365 13.2902 15.6026 13.5346 15.7697C13.8049 15.9548 14.0107 15.8935 14.1378 15.5924C14.2185 15.4014 14.2539 15.1958 14.2721 14.9913C14.3323 14.2877 14.3402 13.5854 14.2346 12.8844C14.1697 12.4468 13.9233 12.1636 13.4867 12.0808C13.2639 12.0386 13.297 11.9557 13.4049 11.8285C13.5923 11.6092 13.7685 11.4727 14.1198 11.4727H16.7541C17.1688 11.5545 17.2609 11.7408 17.3177 12.1581L17.3199 15.0843C17.3154 15.2458 17.4006 15.7252 17.6916 15.8321C17.9245 15.9082 18.078 15.7219 18.2177 15.5743C18.8484 14.9049 19.2986 14.1137 19.7007 13.2946C19.8792 12.9343 20.0327 12.5603 20.1814 12.1865C20.2916 11.9091 20.4645 11.7727 20.7769 11.7787L23.3122 11.781C23.3874 11.781 23.4635 11.7821 23.5363 11.7945C23.9635 11.8673 24.0806 12.0511 23.9486 12.4683C23.7407 13.1229 23.3362 13.6683 22.9407 14.2163C22.5179 14.8013 22.0657 15.3664 21.6464 15.9549C21.2611 16.4923 21.2917 16.7632 21.7703 17.2299Z" fill="white"/>
</g>
<defs>
<clipPath id="clip0">
<rect width="16" height="16" fill="white" transform="translate(8 8)"/>
</clipPath>
</defs>
</svg>
