<svg width="14" height="14" viewBox="0 0 14 14" fill="none" xmlns="http://www.w3.org/2000/svg">
<path d="M13.9909 13.6378L13.6409 12.2378C13.4749 11.5586 12.9714 11.0124 12.308 10.7917L9.74133 9.9365C9.1154 9.67575 8.829 8.66775 8.76715 8.28507C9.24408 7.88848 9.55096 7.32421 9.62465 6.70832C9.61412 6.60313 9.63895 6.49742 9.69523 6.4079C9.78617 6.38512 9.86063 6.31999 9.8953 6.2329C10.0632 5.82624 10.1687 5.39651 10.208 4.95832C10.2081 4.93451 10.2051 4.9108 10.1992 4.88775C10.1574 4.71748 10.0573 4.56723 9.9163 4.46307V2.91665C9.9163 1.9769 9.6293 1.59132 9.32713 1.3679C9.26943 0.91525 8.78468 0 6.99968 0C5.41601 0.0637656 4.14677 1.33301 4.083 2.91668V4.4631C3.94196 4.56725 3.84186 4.71751 3.80008 4.88778C3.79417 4.91083 3.79125 4.93456 3.79133 4.95835C3.83059 5.39675 3.936 5.82668 4.104 6.23353C4.12927 6.31597 4.19552 6.37938 4.279 6.40095C4.31168 6.41728 4.37293 6.50188 4.37293 6.70838C4.44706 7.32602 4.75571 7.89157 5.2351 8.28805C5.17385 8.67013 4.88918 9.67755 4.28078 9.93188L1.69135 10.7917C1.02846 11.0124 0.525335 11.558 0.359031 12.2366L0.00903075 13.6366C-0.0305903 13.7928 0.063855 13.9515 0.219988 13.9911C0.243312 13.997 0.267292 14 0.291355 14.0001H13.708C13.8691 14 13.9997 13.8694 13.9996 13.7083C13.9996 13.6845 13.9967 13.6608 13.9909 13.6378Z" fill="#9699A7"/>
</svg>
