<svg width="20" height="14" viewBox="0 0 20 14" fill="none" xmlns="http://www.w3.org/2000/svg">
<path d="M19.8779 6.70539L13.6279 0.455393C13.4652 0.29262 13.2015 0.29262 13.0387 0.455393C12.876 0.618166 12.876 0.881838 13.0387 1.04457L18.5775 6.58332H0.41668C0.186367 6.58332 0 6.76969 0 7C0 7.23031 0.186367 7.41668 0.41668 7.41668H18.5775L13.0387 12.9554C12.876 13.1182 12.876 13.3818 13.0387 13.5446C13.1201 13.6259 13.2268 13.6666 13.3334 13.6666C13.44 13.6666 13.5466 13.6259 13.628 13.5446L19.878 7.29457C20.0407 7.13184 20.0407 6.86817 19.8779 6.70539Z" fill="#2D3246"/>
</svg>
