<svg width="24" height="24" viewBox="0 0 24 24" fill="none" xmlns="http://www.w3.org/2000/svg">
<g clip-path="url(#clip0)">
<path d="M15.9664 11.6523V12.259C15.9664 13.6931 14.7997 14.86 13.3654 14.86H10.6344C9.20032 14.86 8.03339 13.6932 8.03339 12.259V11.6523H0V19.5153C0 20.8344 1.07318 21.9075 2.39227 21.9075H21.6077C22.9268 21.9075 24 20.8344 24 19.5153V11.6523H15.9664Z" fill="#3B48D1"/>
<path d="M9.45831 12.259C9.45831 12.9075 9.98584 13.4351 10.6344 13.4351H13.3654C14.014 13.4351 14.5417 12.9075 14.5417 12.259V11.6523H9.45831V12.259Z" fill="#3B48D1"/>
<path d="M24 10.2285V8.11267C24 6.79358 22.9268 5.7204 21.6077 5.7204H16.3757V3.94354C16.3757 2.93207 15.553 2.10938 14.5415 2.10938H9.4585C8.44702 2.10938 7.62433 2.93207 7.62433 3.94354V5.7204H2.39227C1.07318 5.7204 0 6.79358 0 8.11267V10.2283H24V10.2285ZM9.04907 3.94354C9.04907 3.71777 9.23273 3.53412 9.4585 3.53412H14.5415C14.7673 3.53412 14.9509 3.71777 14.9509 3.94354V5.7204H9.04907V3.94354Z" fill="#3B48D1"/>
</g>
<defs>
<clipPath id="clip0">
<rect width="24" height="24" fill="white"/>
</clipPath>
</defs>
</svg>
