<svg width="26" height="21" viewBox="0 0 26 21" fill="none" xmlns="http://www.w3.org/2000/svg">
<path d="M4.66009 2.78599C4.48317 2.57302 4.16756 2.54248 3.95514 2.71779L0.493692 5.57458C0.28128 5.74989 0.25251 6.06465 0.429432 6.27762C0.606354 6.49059 0.921971 6.52112 1.13438 6.34582L4.21123 3.80645L6.77399 6.89139C6.95092 7.10436 7.26653 7.13489 7.47895 6.95958C7.69136 6.78428 7.72013 6.46952 7.54321 6.25655L4.66009 2.78599ZM25.0025 17.3481C14.0954 17.2309 9.0943 13.5937 6.78574 10.1127C5.62179 8.35751 5.11874 6.60839 4.907 5.29718C4.8012 4.64201 4.76851 4.09841 4.76205 3.72157C4.75882 3.53326 4.76215 3.38694 4.76611 3.28955C4.76809 3.24087 4.77023 3.20444 4.77179 3.18116C4.77257 3.16952 4.7732 3.16116 4.7736 3.1562C4.77379 3.15372 4.77393 3.15209 4.77399 3.15133C4.77403 3.15094 4.77404 3.15078 4.77404 3.15083C4.77404 3.15085 4.77402 3.15105 4.77402 3.15107C4.77399 3.15132 4.77396 3.15163 4.27549 3.10341C3.77701 3.05519 3.77697 3.05561 3.77693 3.05608C3.77691 3.05632 3.77686 3.05685 3.77682 3.05732C3.77674 3.05825 3.77664 3.0594 3.77652 3.06078C3.77629 3.06352 3.77599 3.06715 3.77563 3.07165C3.77492 3.08063 3.77398 3.09309 3.77293 3.10891C3.77081 3.14053 3.7682 3.1856 3.76585 3.24323C3.76116 3.35846 3.75753 3.52404 3.76111 3.73287C3.76827 4.15033 3.80426 4.74194 3.91868 5.45052C4.1474 6.8668 4.69101 8.75927 5.95187 10.6605C8.49294 14.4922 13.8541 18.2272 24.9975 18.347L25.0025 17.3481Z" fill="#3B48D1"/>
</svg>
