<svg width="12" height="15" viewBox="0 0 12 15" fill="none" xmlns="http://www.w3.org/2000/svg">
<path d="M8.15991 0.5H2.53694C1.71545 0.5 1.04687 1.16905 1.04687 1.99004V7.49997H0.901306C0.569759 7.49997 0.300903 7.76859 0.300903 8.10043V11.7418C0.300903 12.0736 0.569759 12.3422 0.901306 12.3422H1.04687V13.0099C1.04687 13.8318 1.71545 14.5 2.53691 14.5H10.2092C11.0302 14.5 11.6987 13.8318 11.6987 13.0099V4.02654L8.15991 0.5ZM1.29421 8.6006C1.50406 8.5672 1.77745 8.54842 2.06605 8.54842C2.54562 8.54842 2.85661 8.63448 3.10029 8.81797C3.36253 9.01293 3.52726 9.32415 3.52726 9.7699C3.52726 10.2531 3.35129 10.5867 3.10761 10.7927C2.84172 11.0137 2.43697 11.1185 1.94249 11.1185C1.64643 11.1185 1.43658 11.0998 1.29424 11.081V8.6006H1.29421ZM10.2092 13.5874H2.53694C2.21884 13.5874 1.95983 13.3284 1.95983 13.0099V12.3422H9.11198C9.44353 12.3422 9.71244 12.0736 9.71244 11.7418V8.10043C9.71244 7.76859 9.44356 7.49997 9.11198 7.49997H1.95983V1.99004C1.95983 1.67244 2.21884 1.41342 2.53694 1.41342L7.81852 1.40791V3.36016C7.81852 3.9304 8.2812 4.39351 8.85181 4.39351L10.7643 4.38802L10.7858 13.0099C10.7858 13.3284 10.5272 13.5874 10.2092 13.5874ZM3.78717 9.84856C3.78717 9.09167 4.27046 8.526 5.01617 8.526C5.79187 8.526 6.21517 9.10674 6.21517 9.8037C6.21517 10.6316 5.71315 11.1336 4.97497 11.1336C4.22563 11.1336 3.78717 10.568 3.78717 9.84856ZM7.88394 10.6577C8.05625 10.6577 8.24728 10.6201 8.35986 10.5753L8.4459 11.0211C8.3411 11.0737 8.10497 11.13 7.7979 11.13C6.92473 11.13 6.47511 10.5867 6.47511 9.86737C6.47511 9.00561 7.08972 8.52603 7.85392 8.52603C8.15004 8.52603 8.37473 8.58596 8.47586 8.63814L8.35983 9.09167C8.2436 9.04266 8.0825 8.99785 7.88025 8.99785C7.42672 8.99785 7.07462 9.27153 7.07462 9.83349C7.07465 10.3392 7.37434 10.6577 7.88394 10.6577Z" fill="#3B48D1"/>
<path d="M2.9206 9.78807C2.92425 9.2632 2.61698 8.98633 2.12613 8.98633C1.99866 8.98633 1.91628 8.9973 1.86755 9.00872V10.6608C1.91628 10.6722 1.99503 10.6722 2.0662 10.6722C2.58333 10.6759 2.9206 10.3912 2.9206 9.78807Z" fill="#3B48D1"/>
<path d="M5.61206 9.82244C5.61206 9.36937 5.39469 8.97949 5.00132 8.97949C4.61533 8.97949 4.39038 9.34693 4.39038 9.83754C4.39038 10.3322 4.62285 10.6805 5.00501 10.6805C5.39103 10.6805 5.61206 10.3134 5.61206 9.82244Z" fill="#3B48D1"/>
</svg>
