<svg width="32" height="32" viewBox="0 0 32 32" fill="none" xmlns="http://www.w3.org/2000/svg">
<path fill-rule="evenodd" clip-rule="evenodd" d="M0 16C0 7.16344 7.16344 0 16 0C24.8366 0 32 7.16344 32 16C32 24.8366 24.8366 32 16 32C7.16344 32 0 24.8366 0 16Z" fill="#D0D6E5"/>
<path d="M20.7218 16.932L21.2055 14.0583H18.1796V12.1942C18.1796 11.4078 18.6015 10.6408 19.9568 10.6408H21.3333V8.19417C21.3333 8.19417 20.0846 8 18.8913 8C16.3982 8 14.7702 9.3767 14.7702 11.868V14.0583H12V16.932H14.7702V23.8796C15.3263 23.9592 15.8953 24 16.4749 24C17.0545 24 17.6234 23.9592 18.1796 23.8796V16.932H20.7218Z" fill="white"/>
</svg>
