<svg width="16" height="20" viewBox="0 0 16 20" fill="none" xmlns="http://www.w3.org/2000/svg">
<path d="M14 19.9999H2C0.89543 19.9999 0 19.1045 0 17.9999V1.99989C0 0.895325 0.89543 -0.000105089 2 -0.000105089H9C9.00896 -0.00126705 9.01804 -0.00126705 9.027 -0.000105089H9.033C9.04244 0.00285297 9.05216 0.0048629 9.062 0.00589491C9.15019 0.0115481 9.23726 0.0286931 9.321 0.0568949H9.336H9.351H9.363C9.38145 0.0698207 9.39884 0.0841998 9.415 0.0998949C9.52394 0.148318 9.62321 0.216079 9.708 0.299895L15.708 6.2999C15.7918 6.38468 15.8596 6.48395 15.908 6.5929C15.917 6.61489 15.924 6.6359 15.931 6.6589L15.941 6.68689C15.9689 6.77029 15.9854 6.85708 15.99 6.9449C15.9909 6.95486 15.9932 6.96463 15.997 6.9739V6.9799C15.9986 6.98645 15.9996 6.99315 16 6.9999V17.9999C16 18.5303 15.7893 19.039 15.4142 19.4141C15.0391 19.7892 14.5304 19.9999 14 19.9999ZM9 1.99989V6.9999H14L9 1.99989Z" fill="#F8DC82"/>
</svg>
