<svg width="26" height="21" viewBox="0 0 26 21" fill="none" xmlns="http://www.w3.org/2000/svg">
<path d="M21.3399 2.786C21.5168 2.57303 21.8324 2.5425 22.0449 2.71781L25.5063 5.5746C25.7187 5.7499 25.7475 6.06467 25.5706 6.27764C25.3936 6.49061 25.078 6.52114 24.8656 6.34583L21.7888 3.80646L19.226 6.8914C19.0491 7.10437 18.7335 7.13491 18.5211 6.9596C18.3086 6.78429 18.2799 6.46953 18.4568 6.25656L21.3399 2.786ZM0.99751 17.3481C11.9046 17.2309 16.9057 13.5938 19.2143 10.1127C20.3782 8.35753 20.8813 6.6084 21.093 5.2972C21.1988 4.64202 21.2315 4.09842 21.238 3.72159C21.2412 3.53328 21.2379 3.38696 21.2339 3.28957C21.2319 3.24088 21.2298 3.20446 21.2282 3.18117C21.2274 3.16953 21.2268 3.16118 21.2264 3.15622C21.2262 3.15374 21.2261 3.15211 21.226 3.15134C21.226 3.15096 21.226 3.15079 21.226 3.15084C21.226 3.15087 21.226 3.15107 21.226 3.15108C21.226 3.15134 21.226 3.15165 21.7245 3.10342C22.223 3.0552 22.223 3.05562 22.2231 3.0561C22.2231 3.05633 22.2231 3.05687 22.2232 3.05733C22.2233 3.05826 22.2234 3.05942 22.2235 3.06079C22.2237 3.06354 22.224 3.06717 22.2244 3.07166C22.2251 3.08065 22.226 3.09311 22.2271 3.10892C22.2292 3.14055 22.2318 3.18562 22.2341 3.24324C22.2388 3.35847 22.2425 3.52406 22.2389 3.73289C22.2317 4.15034 22.1957 4.74196 22.0813 5.45053C21.8526 6.86681 21.309 8.75928 20.0481 10.6605C17.5071 14.4923 12.1459 18.2272 1.00249 18.347L0.99751 17.3481Z" fill="white"/>
</svg>
