<svg width="20" height="24" viewBox="0 0 20 24" fill="none" xmlns="http://www.w3.org/2000/svg">
<path d="M18.4987 2.7168H17.797V19.9574C17.797 21.1028 16.8646 22.0351 15.7193 22.0351H8.60898H2.95483V22.6742C2.95483 23.406 3.54882 24 4.28065 24H11.3884H18.4962C19.228 24 19.822 23.406 19.822 22.6742V4.04261C19.822 3.31078 19.2305 2.7168 18.4987 2.7168Z" fill="#3B48D1"/>
<path d="M8.60907 21.2832H15.7168C16.4487 21.2832 17.0427 20.6892 17.0427 19.9574V2.71679V1.32581C17.0427 0.593985 16.4487 0 15.7168 0H8.60907H6.24565V0.438596C6.25064 0.483709 6.25317 0.531328 6.25317 0.578947V3.46867V4.21053C6.25317 5.2406 5.41608 6.07769 4.386 6.07769H3.64415H0.75442C0.716826 6.07769 0.676726 6.07519 0.639132 6.07268H0.177979V19.9574C0.177979 20.6892 0.771964 21.2832 1.50379 21.2832H2.95743H8.60907ZM8.87724 16.7769H4.24315C3.89728 16.7769 3.61658 16.4962 3.61658 16.1504C3.61658 15.8045 3.89728 15.5238 4.24315 15.5238H8.87974C9.22561 15.5238 9.50631 15.8045 9.50631 16.1504C9.50631 16.4962 9.2231 16.7769 8.87724 16.7769ZM13.5138 13.579H4.24315C3.89728 13.579 3.61658 13.2982 3.61658 12.9524C3.61658 12.6065 3.89728 12.3258 4.24315 12.3258H13.5138C13.8597 12.3258 14.1404 12.6065 14.1404 12.9524C14.1404 13.2982 13.8597 13.579 13.5138 13.579ZM4.24315 8.92982H13.5138C13.8597 8.92982 14.1404 9.21053 14.1404 9.55639C14.1404 9.90226 13.8597 10.183 13.5138 10.183H4.24315C3.89728 10.183 3.61658 9.90226 3.61658 9.55639C3.61658 9.21053 3.89728 8.92982 4.24315 8.92982Z" fill="#3B48D1"/>
<path d="M0.754342 5.3253H4.38591C4.38842 5.3253 4.39343 5.3253 4.39594 5.3253C5.00245 5.32028 5.49368 4.82906 5.49869 4.22254C5.49869 4.22003 5.49869 4.21502 5.49869 4.21251V0.578429C5.49869 0.242589 5.22301 0.0195312 4.93732 0.0195312C4.79947 0.0195312 4.66163 0.0696566 4.54634 0.184945L0.358353 4.37291C0.00747609 4.72379 0.255596 5.3253 0.754342 5.3253Z" fill="#3B48D1"/>
</svg>
