<svg width="16" height="16" viewBox="0 0 16 16" fill="none" xmlns="http://www.w3.org/2000/svg">
<path d="M0.492188 3.60883V12.3755C0.492188 14.0968 1.88754 15.4922 3.60883 15.4922H12.3755C14.0968 15.4922 15.4922 14.0968 15.4922 12.3755V3.60883C15.4922 1.88754 14.0968 0.492188 12.3755 0.492188H3.60883C1.88754 0.492188 0.492188 1.88754 0.492188 3.60883ZM9.58109 12.2422C5.88135 13.5188 2.46561 10.103 3.74213 6.40329C4.17224 5.15634 5.15625 4.17224 6.4032 3.74213C10.103 2.46561 13.5188 5.88135 12.2422 9.58118C11.8121 10.8281 10.8281 11.8121 9.58109 12.2422ZM13.1971 3.45648C13.1382 3.76474 12.8831 3.94409 12.6193 3.94409C12.4587 3.94409 12.295 3.87781 12.1696 3.73398C12.1586 3.72125 12.1482 3.70761 12.1391 3.69342C12.0097 3.49567 12.0057 3.26074 12.1156 3.07022C12.1935 2.93536 12.3191 2.83905 12.4695 2.79877C12.6197 2.7583 12.7768 2.77908 12.9115 2.85699C13.1021 2.96686 13.216 3.17239 13.203 3.40805C13.2021 3.42416 13.2002 3.44055 13.1971 3.45648Z" fill="#EB4F27"/>
<path d="M7.99219 4.34814C5.98279 4.34814 4.34821 5.98273 4.34821 7.99213C4.34821 10.0015 5.98279 11.6361 7.99219 11.6361C10.0016 11.6361 11.6362 10.0015 11.6362 7.99213C11.6362 5.98273 10.0016 4.34814 7.99219 4.34814Z" fill="#EB4F27"/>
</svg>
