<svg width="15" height="15" viewBox="0 0 15 15" fill="none" xmlns="http://www.w3.org/2000/svg">
<g clip-path="url(#clip0)">
<path d="M9.04201 5.95651C8.87618 5.78969 8.6923 5.64181 8.49379 5.51559C7.96801 5.17891 7.35677 5.00001 6.73243 5.00001C5.86587 4.99839 5.03452 5.3427 4.42284 5.95651L1.45538 8.92631C0.844736 9.53813 0.501524 10.3671 0.500977 11.2315C0.499829 13.0353 1.96114 14.4985 3.76496 14.4997C4.63018 14.5027 5.46076 14.16 6.07222 13.5478L8.52178 11.0983C8.56629 11.0541 8.59114 10.9939 8.59079 10.9313C8.59005 10.8024 8.48499 10.6986 8.35614 10.6993H8.26283C7.75105 10.7011 7.24383 10.6028 6.76977 10.4101C6.68243 10.3741 6.58204 10.3944 6.5155 10.4614L4.75414 12.2251C4.20719 12.772 3.32043 12.772 2.77349 12.2251C2.22655 11.6781 2.22655 10.7913 2.77349 10.2444L5.75263 7.26761C6.29914 6.72178 7.18445 6.72178 7.73095 7.26761C8.09926 7.61424 8.67376 7.61424 9.04204 7.26761C9.2005 7.10901 9.29657 6.89867 9.31267 6.67503C9.3297 6.4078 9.23114 6.14608 9.04201 5.95651Z" fill="#3B48D1"/>
<path d="M13.5422 1.45666C12.2667 0.181113 10.1986 0.181113 8.92303 1.45666L6.4758 3.90155C6.4086 3.96907 6.38922 4.07064 6.42681 4.15818C6.46396 4.24596 6.55079 4.30231 6.64609 4.30047H6.7324C7.24358 4.29955 7.74998 4.39859 8.22313 4.5921C8.31048 4.62805 8.41087 4.60776 8.47741 4.54078L10.2341 2.78642C10.781 2.23948 11.6678 2.23948 12.2147 2.78642C12.7617 3.33336 12.7617 4.22013 12.2147 4.76707L10.0265 6.953L10.0078 6.97399L9.2426 7.73453C8.69609 8.28035 7.81078 8.28035 7.26428 7.73453C6.89597 7.3879 6.32147 7.3879 5.95319 7.73453C5.79372 7.89433 5.69757 8.10651 5.68256 8.33175C5.6655 8.59899 5.76406 8.8607 5.95319 9.0503C6.22321 9.32147 6.53914 9.54261 6.88635 9.7035C6.93534 9.72682 6.98433 9.7455 7.03332 9.76649C7.08231 9.78749 7.13363 9.80381 7.18262 9.82248C7.23161 9.84115 7.28292 9.85748 7.33191 9.87147L7.46957 9.90879C7.56287 9.93211 7.65621 9.95078 7.75184 9.9671C7.86704 9.98422 7.98307 9.99513 8.09945 9.99977H8.26275H8.27674L8.41672 9.98345C8.46803 9.98113 8.5217 9.96946 8.58237 9.96946H8.66167L8.82265 9.94614L8.89731 9.93214L9.03261 9.90414H9.05828C9.63133 9.7602 10.1546 9.4635 10.5723 9.04562L13.5421 6.07583C14.8178 4.80028 14.8178 2.73221 13.5422 1.45666Z" fill="#3B48D1"/>
</g>
<defs>
<clipPath id="clip0">
<rect width="14" height="14" fill="white" transform="translate(0.5 0.5)"/>
</clipPath>
</defs>
</svg>
