<svg width="20" height="20" viewBox="0 0 20 20" fill="none" xmlns="http://www.w3.org/2000/svg">
<path d="M9.16667 12.5C7.78833 12.5 6.66667 11.3783 6.66667 10C6.66667 8.62167 7.78833 7.5 9.16667 7.5H13.3333V2.29167C13.3333 1.0275 12.3058 0 11.0417 0H2.29167C1.0275 0 0 1.0275 0 2.29167V17.7083C0 18.9725 1.0275 20 2.29167 20H11.0417C12.3058 20 13.3333 18.9725 13.3333 17.7083V12.5H9.16667Z" fill="#3B48D1"/>
<path d="M15.5139 14.1033C15.203 13.9742 14.9997 13.67 14.9997 13.3333V10.8333H9.16634C8.70634 10.8333 8.33301 10.46 8.33301 10C8.33301 9.54001 8.70634 9.16667 9.16634 9.16667H14.9997V6.66668C14.9997 6.33001 15.203 6.02585 15.5139 5.89668C15.8255 5.76752 16.1839 5.83918 16.4222 6.07751L19.7556 9.41084C20.0814 9.73667 20.0814 10.2633 19.7556 10.5892L16.4222 13.9225C16.1839 14.1608 15.8255 14.2325 15.5139 14.1033Z" fill="#3B48D1"/>
</svg>
