<svg width="18" height="18" viewBox="0 0 18 18" fill="none" xmlns="http://www.w3.org/2000/svg">
<path d="M9 0C4.02998 0 0 4.02998 0 9C0 13.97 4.02998 18 9 18C9.83002 18 10.5 17.33 10.5 16.5C10.5 16.11 10.355 15.76 10.11 15.495C9.87502 15.23 9.735 14.885 9.735 14.5C9.735 13.67 10.405 13 11.235 13H13C15.76 13 18 10.76 18 7.99997C18 3.57998 13.97 0 9 0ZM3.50002 9C2.67 9 2.00002 8.33002 2.00002 7.5C2.00002 6.66998 2.67 6 3.50002 6C4.33003 6 5.00002 6.66998 5.00002 7.5C5.00002 8.33002 4.32998 9 3.50002 9ZM6.50002 5.00002C5.67 5.00002 5.00002 4.33003 5.00002 3.50002C5.00002 2.67 5.67 2.00002 6.50002 2.00002C7.33003 2.00002 8.00002 2.67 8.00002 3.50002C8.00002 4.33003 7.32998 5.00002 6.50002 5.00002ZM11.5 5.00002C10.67 5.00002 9.99998 4.33003 9.99998 3.50002C9.99998 2.67 10.67 2.00002 11.5 2.00002C12.33 2.00002 13 2.67 13 3.50002C13 4.33003 12.33 5.00002 11.5 5.00002ZM14.5 9C13.67 9 13 8.33002 13 7.5C13 6.66998 13.67 6 14.5 6C15.33 6 16 6.66998 16 7.5C16 8.33002 15.33 9 14.5 9Z" fill="#D0D6E5"/>
</svg>
