<svg width="12" height="15" viewBox="0 0 12 15" fill="none" xmlns="http://www.w3.org/2000/svg">
<path d="M3.124 9.5069C3.124 9.2744 2.96267 9.13574 2.67802 9.13574C2.56179 9.13574 2.48307 9.14721 2.44189 9.15819V9.90415C2.49065 9.91513 2.55058 9.91879 2.63319 9.91879C2.9366 9.91879 3.124 9.7655 3.124 9.5069Z" fill="#3B48D1"/>
<path d="M4.88614 9.14453C4.75867 9.14453 4.67629 9.15554 4.62756 9.16695V10.819C4.67632 10.8305 4.75504 10.8305 4.82621 10.8305C5.34333 10.8341 5.6806 10.5495 5.6806 9.94633C5.68426 9.42183 5.37693 9.14453 4.88614 9.14453Z" fill="#3B48D1"/>
<path d="M8.16013 0.5H2.53716C1.7157 0.5 1.04711 1.16905 1.04711 1.99004V7.49997H0.901579C0.570032 7.49997 0.301147 7.76859 0.301147 8.10043V11.7418C0.301147 12.0736 0.570003 12.3422 0.901579 12.3422H1.04711V13.0099C1.04711 13.8318 1.7157 14.5 2.53716 14.5H10.2095C11.0304 14.5 11.6991 13.8318 11.6991 13.0099V4.02654L8.16013 0.5ZM1.87633 8.75757C2.05229 8.72784 2.29963 8.70542 2.64811 8.70542C3.00027 8.70542 3.25127 8.77264 3.41992 8.90767C3.58102 9.03491 3.68973 9.24493 3.68973 9.4921C3.68973 9.7392 3.60735 9.94929 3.45746 10.0916C3.26251 10.2751 2.9742 10.3575 2.63693 10.3575C2.56187 10.3575 2.49459 10.3538 2.44197 10.3465V11.2494H1.87633V8.75757ZM10.2095 13.5874H2.53716C2.21908 13.5874 1.96007 13.3284 1.96007 13.0099V12.3422H9.11223C9.44383 12.3422 9.71269 12.0736 9.71269 11.7418V8.10043C9.71269 7.76859 9.44383 7.49997 9.11223 7.49997H1.96007V1.99004C1.96007 1.67244 2.21911 1.41342 2.53716 1.41342L7.81874 1.40791V3.36016C7.81874 3.9304 8.28141 4.39351 8.85208 4.39351L10.7645 4.38802L10.786 13.0099C10.786 13.3284 10.5275 13.5874 10.2095 13.5874ZM4.05447 11.238V8.75757C4.26426 8.72418 4.53771 8.70542 4.82628 8.70542C5.30586 8.70542 5.61684 8.79146 5.86052 8.97494C6.12276 9.1699 6.28749 9.48066 6.28749 9.92681C6.28749 10.4101 6.11152 10.7437 5.86781 10.9496C5.60192 11.1707 5.19717 11.2755 4.70269 11.2755C4.40657 11.2755 4.19678 11.2567 4.05447 11.238ZM8.14369 9.76943V10.2339H7.23686V11.2494H6.66366V8.72418H8.20728V9.19232H7.23686V9.76943H8.14369Z" fill="#3B48D1"/>
</svg>
