<svg width="24" height="24" viewBox="0 0 24 24" fill="none" xmlns="http://www.w3.org/2000/svg">
<path d="M23.4562 3.25731C20.5517 3.25731 16.4483 3.50033 14.3514 5.59615C13.4435 6.50403 12.9902 7.98404 13.1079 9.6592C13.1231 9.88046 13.2703 10.069 13.4817 10.1388C13.692 10.2074 13.9231 10.1431 14.0669 9.97421C15.2331 8.60204 16.6826 7.50238 18.3785 6.70567C18.5223 6.63701 18.6924 6.63154 18.8471 6.68605C18.9833 6.7351 19.0901 6.82772 19.1457 6.94655C19.2612 7.1907 19.2242 7.51219 18.8406 7.69309C18.8187 7.70398 18.7991 7.71818 18.7774 7.72799C18.7698 7.73126 18.761 7.73018 18.7545 7.73345C14.5759 9.69741 12.5215 13.124 11.5886 16.6475C10.9085 12.2357 9.47206 9.63851 8.11517 8.04406C7.13321 6.77111 6.16755 6.09645 5.60958 5.71503C5.50602 5.64417 5.19326 5.43058 5.06355 5.30086C4.85103 5.08834 4.85103 4.74283 5.06355 4.53031C5.27608 4.31886 5.62265 4.31886 5.85914 4.55427C5.91692 4.60551 6.00954 4.6709 6.12725 4.74937L6.22426 4.81476C7.01331 5.35532 8.48249 6.35909 9.78594 8.5203C9.90257 8.71321 10.1282 8.81677 10.3472 8.77533C10.5696 8.7361 10.7439 8.56501 10.7876 8.34375C11.072 6.89097 10.9445 4.73517 9.64867 3.43933C7.55177 1.34459 3.44842 1.10156 0.545003 1.10156C0.244148 1.10151 0 1.34566 0 1.64646C0 4.55095 0.243024 8.65431 2.33884 10.7512C3.2129 11.6253 4.5611 12.0177 5.90052 12.0177C6.99364 12.0177 8.065 11.7441 8.88567 11.27C10.005 13.5892 10.8987 17.0539 10.8987 22.354C10.8987 22.6548 11.1428 22.8989 11.4436 22.8989C11.7444 22.8989 11.9886 22.6548 11.9886 22.354C11.9886 19.3972 12.4954 15.8485 14.3797 12.9277C15.135 13.6655 16.4352 14.1331 17.876 14.1767C17.948 14.1789 18.0188 14.1799 18.0896 14.1799C19.5533 14.1799 20.847 13.7211 21.6611 12.9059C23.758 10.809 23.9999 6.70562 23.9999 3.80108C24.0011 3.50033 23.758 3.25731 23.4562 3.25731Z" fill="#3B48D1"/>
</svg>
