<svg width="18" height="18" viewBox="0 0 18 18" fill="none" xmlns="http://www.w3.org/2000/svg">
<path fill-rule="evenodd" clip-rule="evenodd" d="M7.16698 2.58341C5.95134 2.58341 4.7855 3.06632 3.92592 3.92591C3.06633 4.78549 2.58342 5.95133 2.58342 7.16697C2.58342 8.38261 3.06633 9.54845 3.92592 10.408C4.7855 11.2676 5.95134 11.7505 7.16698 11.7505C8.38262 11.7505 9.54846 11.2676 10.408 10.408C11.2676 9.54845 11.7505 8.38261 11.7505 7.16697C11.7505 5.95133 11.2676 4.78549 10.408 3.92591C9.54846 3.06632 8.38262 2.58341 7.16698 2.58341ZM0.75 7.16697C0.750002 6.15058 0.991439 5.14872 1.45443 4.2439C1.91742 3.33908 2.58872 2.55718 3.41305 1.96259C4.23738 1.368 5.19116 0.977729 6.19585 0.823911C7.20054 0.670092 8.22739 0.757128 9.19186 1.07785C10.1563 1.39858 11.0308 1.94381 11.7433 2.66866C12.4558 3.39351 12.9859 4.27724 13.29 5.24708C13.5941 6.21692 13.6635 7.24512 13.4924 8.24701C13.3214 9.24891 12.9147 10.1958 12.3061 11.0098L16.9822 15.6851C17.1542 15.8569 17.2509 16.0901 17.251 16.3333C17.2511 16.5765 17.1546 16.8097 16.9827 16.9817C16.8108 17.1538 16.5776 17.2504 16.3344 17.2505C16.0912 17.2506 15.858 17.1541 15.686 16.9822L11.0108 12.307C10.0569 13.0205 8.92333 13.4544 7.73687 13.5602C6.55041 13.666 5.35793 13.4395 4.29291 12.9059C3.2279 12.3724 2.33241 11.553 1.70668 10.5395C1.08096 9.52587 0.749701 8.35814 0.75 7.16697Z" fill="#D0D6E5"/>
</svg>
