<svg width="23" height="9" viewBox="0 0 23 9" fill="none" xmlns="http://www.w3.org/2000/svg">
<path d="M22.9193 4.52761C23.0698 4.75809 23.0039 5.06779 22.7721 5.21934L18.9938 7.6891C18.7619 7.84065 18.4519 7.77667 18.3014 7.5462C18.1508 7.31572 18.2167 7.00602 18.4486 6.85446L21.8071 4.65913L19.6264 1.3206C19.4759 1.09013 19.5418 0.780427 19.7736 0.628871C20.0055 0.477315 20.3155 0.541293 20.466 0.77177L22.9193 4.52761ZM0.743373 4.37486C2.22416 3.4858 4.35448 3.06707 6.64824 2.91085C8.95775 2.75356 11.5018 2.85875 13.859 3.06629C16.2185 3.27403 18.403 3.58545 19.9969 3.84473C20.7942 3.97442 21.4446 4.0912 21.8962 4.17567C22.122 4.21791 22.2982 4.25208 22.4182 4.27575C22.4783 4.28759 22.5243 4.29681 22.5554 4.3031C22.571 4.30625 22.5829 4.30866 22.5909 4.31031C22.595 4.31113 22.598 4.31176 22.6001 4.31219C22.6012 4.31241 22.602 4.31258 22.6026 4.3127C22.6029 4.31276 22.6031 4.31281 22.6033 4.31284C22.6035 4.31287 22.6036 4.3129 22.4995 4.80203C22.3954 5.29116 22.3954 5.29116 22.3953 5.29115C22.3952 5.29113 22.3951 5.2911 22.3949 5.29106C22.3945 5.29098 22.3938 5.29084 22.393 5.29066C22.3912 5.2903 22.3885 5.28974 22.3848 5.28899C22.3774 5.28749 22.3663 5.28521 22.3514 5.28221C22.3217 5.27621 22.2772 5.26729 22.2186 5.25575C22.1016 5.23267 21.9287 5.19912 21.7063 5.15752C21.2614 5.07431 20.6189 4.95892 19.8303 4.83065C18.2524 4.57399 16.0933 4.26631 13.7653 4.06134C11.4351 3.85618 8.94801 3.75507 6.71064 3.90745C4.45751 4.0609 2.52525 4.46783 1.25584 5.22998L0.743373 4.37486Z" fill="#9699A7"/>
</svg>
