<svg width="20" height="20" viewBox="0 0 20 20" fill="none" xmlns="http://www.w3.org/2000/svg">
<g clip-path="url(#clip0)">
<path d="M0.0324612 7.66185C0.0534763 7.71266 0.0843334 7.75883 0.123276 7.79766L5.12308 12.7975C5.28858 12.9573 5.55236 12.9527 5.71224 12.7872C5.86821 12.6258 5.86821 12.3698 5.71224 12.2083L1.42323 7.9193H9.58373C14.8738 7.92531 19.1607 12.2123 19.1667 17.5023C19.1667 17.7324 19.3533 17.9189 19.5834 17.9189C19.8135 17.9189 20 17.7324 20 17.5023C19.9936 11.7522 15.3338 7.09245 9.58373 7.08601H1.42323L5.71138 2.79786C5.87688 2.63798 5.88145 2.3742 5.72157 2.2087C5.5617 2.0432 5.29792 2.03863 5.13242 2.1985C5.12894 2.20186 5.12554 2.20526 5.12222 2.2087L0.122419 7.2085C0.00304794 7.32756 -0.0328102 7.50685 0.031601 7.66267L0.0324612 7.66185Z" fill="#9699A7"/>
<path d="M5.41719 2.08567C5.6473 2.08524 5.83416 2.27148 5.83459 2.50159C5.83479 2.61252 5.79073 2.71896 5.71218 2.79732L1.0065 7.50214L5.71218 12.207C5.87205 12.3725 5.86744 12.6362 5.70194 12.7961C5.54047 12.9521 5.2845 12.9521 5.12302 12.7961L0.123216 7.7963C-0.039434 7.63361 -0.039434 7.36987 0.123216 7.20715L5.12302 2.20734C5.2011 2.12945 5.30688 2.08571 5.41719 2.08567Z" fill="#9699A7"/>
<path d="M0.417444 7.08601H9.58373C15.3338 7.09245 19.9936 11.7522 20 17.5023C20 17.7324 19.8134 17.9189 19.5833 17.9189C19.3532 17.9189 19.1667 17.7324 19.1667 17.5023C19.1607 12.2123 14.8738 7.92527 9.58373 7.91934H0.417406C0.187298 7.91934 0.000743866 7.73278 0.000743866 7.50267C0.000782013 7.27256 0.187336 7.08601 0.417444 7.08601Z" fill="#9699A7"/>
</g>
<defs>
<clipPath id="clip0">
<rect width="20" height="20" fill="white" transform="translate(20 20) rotate(-180)"/>
</clipPath>
</defs>
</svg>
