<svg width="121" height="43" viewBox="0 0 121 43" fill="none" xmlns="http://www.w3.org/2000/svg">
<path d="M91.2677 20.1746H91.1198L81.0611 38.5821H86.2384L87.4218 35.9314H95.1137L96.2971 38.5821H101.474C98.22 32.5444 94.8178 26.065 91.2677 20.1746ZM89.0489 32.3972L91.1198 27.8321L93.3386 32.3972H89.0489Z" fill="#D0D6E5"/>
<path d="M57.8374 43H53.3997V38.5822H50.5892H49.9975H42.7494H41.1222H38.0159V20.6165H42.7494V34.6062H49.9975V20.6165H54.731V34.6062H57.8374V43Z" fill="#D0D6E5"/>
<path d="M78.2506 38.5821H73.5171V28.8629L61.8312 39.0239H61.5354V20.6163H66.2689V30.3355L77.8068 20.1746H78.2506V38.5821Z" fill="#D0D6E5"/>
<path d="M116.266 38.5822V31.8082H109.018V38.5822H104.285V20.6165H109.018V27.8322H116.266V20.6165H121V38.5822H116.266Z" fill="#D0D6E5"/>
<path d="M15.8276 9.2774C15.8276 9.42466 15.9755 9.42466 15.9755 9.42466L21.4486 19.1438L26.9218 9.42466C26.9218 9.42466 26.9218 9.2774 27.0697 9.2774C27.5134 8.39384 27.8093 7.36301 27.8093 6.33219C27.8093 2.79795 24.9988 0 21.4486 0C17.8985 0 15.088 2.79795 15.088 6.33219C15.088 7.36301 15.3839 8.39384 15.8276 9.2774ZM21.4486 3.53425C23.0758 3.53425 24.2592 4.85959 24.2592 6.33219C24.2592 7.95205 22.9279 9.13014 21.4486 9.13014C19.8215 9.13014 18.6381 7.80479 18.6381 6.33219C18.6381 4.85959 19.8215 3.53425 21.4486 3.53425Z" fill="#D0D6E5"/>
<path d="M23.8154 30.041V20.6163H19.0819V25.1814L13.9046 20.1746L0 34.017L5.02934 39.0239L13.9046 30.1883L22.9279 39.0239L27.9572 34.017L23.8154 30.041Z" fill="#D0D6E5"/>
</svg>
