<svg width="259" height="259" viewBox="0 0 259 259" fill="none" xmlns="http://www.w3.org/2000/svg">
<rect width="259" height="259" rx="10" fill="#F6F7FA"/>
<g clip-path="url(#clip0)">
<path d="M179.937 177.413L177.437 167.412C176.251 162.561 172.654 158.66 167.916 157.083L149.582 150.975C145.111 149.113 143.066 141.913 142.624 139.179C146.031 136.346 148.223 132.316 148.749 127.917C148.674 127.165 148.851 126.41 149.253 125.771C149.903 125.608 150.435 125.143 150.682 124.521C151.882 121.616 152.635 118.546 152.916 115.417C152.916 115.246 152.895 115.077 152.853 114.912C152.555 113.696 151.84 112.623 150.832 111.879V100.833C150.832 94.1207 148.782 91.3666 146.624 89.7707C146.212 86.5375 142.749 80 129.999 80C118.687 80.4555 109.621 89.5215 109.166 100.833V111.879C108.158 112.623 107.443 113.696 107.145 114.913C107.103 115.077 107.082 115.247 107.082 115.417C107.363 118.548 108.116 121.619 109.316 124.525C109.496 125.114 109.969 125.567 110.566 125.721C110.799 125.838 111.237 126.442 111.237 127.917C111.766 132.329 113.971 136.368 117.395 139.2C116.958 141.929 114.924 149.125 110.578 150.942L92.0826 157.084C87.3476 158.66 83.7539 162.557 82.566 167.404L80.066 177.404C79.783 178.52 80.4576 179.653 81.5728 179.936C81.7394 179.979 81.9107 180 82.0826 180H177.916C179.067 180 179.999 179.067 179.999 177.916C179.999 177.746 179.978 177.577 179.937 177.413Z" fill="#D0D6E5"/>
</g>
<defs>
<clipPath id="clip0">
<rect width="100" height="100" fill="white" transform="translate(80 80)"/>
</clipPath>
</defs>
</svg>
