<svg width="109" height="31" viewBox="0 0 109 31" fill="none" xmlns="http://www.w3.org/2000/svg">
<g clip-path="url(#clip0)">
<path d="M26.7058 5.96973C27.414 6.91331 28.0135 7.93843 28.4922 9.02451L14.912 19.3411L9.23651 15.6746V11.2637L14.912 14.9302L26.7058 5.96973Z" fill="#D0D6E5"/>
<path d="M3.44421 15.3633C3.44421 15.1654 3.44889 14.9688 3.45826 14.7733L0.0187323 14.5996C0.00702524 14.853 4.15651e-06 15.1088 4.15651e-06 15.3669C-0.00145927 17.384 0.383523 19.3814 1.13288 21.2447C1.88223 23.1081 2.98119 24.8006 4.36673 26.2252L6.80647 23.7121C5.73993 22.6174 4.89384 21.3163 4.31683 19.8835C3.73982 18.4507 3.44327 16.9146 3.44421 15.3633Z" fill="#D0D6E5"/>
<path d="M14.9089 3.54851C15.1009 3.54851 15.2917 3.55575 15.4813 3.5654L15.6534 0.0195726C15.4069 0.00750787 15.1586 0.00147624 14.9089 0.00147624C12.9507 -0.000984673 11.0115 0.395188 9.20233 1.16725C7.39319 1.93931 5.74986 3.07205 4.3667 4.50042L6.80644 7.01471C7.86872 5.91522 9.13142 5.04297 10.5219 4.44812C11.9125 3.85326 13.4033 3.54753 14.9089 3.54851Z" fill="#D0D6E5"/>
<path d="M14.9089 27.1783C14.7169 27.1783 14.5261 27.1783 14.3353 27.1626L14.1632 30.7073C14.4106 30.7201 14.6592 30.7266 14.9089 30.7266C16.8663 30.7287 18.8046 30.3323 20.6128 29.56C22.421 28.7877 24.0632 27.6548 25.4453 26.2264L23.0103 23.7134C21.9478 24.8123 20.6852 25.684 19.295 26.2787C17.9047 26.8733 16.4142 27.1791 14.9089 27.1783Z" fill="#D0D6E5"/>
<path d="M21.3713 5.61013L24.27 3.40831C21.6206 1.1974 18.3134 -0.00613725 14.9043 2.35352e-05V3.54826C17.2128 3.54531 19.4677 4.26427 21.3713 5.61013Z" fill="#D0D6E5"/>
<path d="M29.8168 15.3633C29.8187 14.4402 29.7403 13.5188 29.5826 12.6101L26.3738 15.0472C26.3738 15.1522 26.3738 15.2571 26.3738 15.3633C26.3746 17.0141 26.0388 18.6467 25.3882 20.1551C24.7376 21.6636 23.7866 23.0144 22.597 24.1198L24.9116 26.7561C26.4581 25.3172 27.694 23.5595 28.539 21.5969C29.3841 19.6342 29.8194 17.5105 29.8168 15.3633Z" fill="#D0D6E5"/>
<path d="M14.909 27.1785C13.307 27.179 11.7228 26.8329 10.2588 26.1624C8.79491 25.492 7.48394 24.5121 6.41081 23.2864L3.854 25.6704C5.25002 27.2644 6.95556 28.5382 8.86003 29.4093C10.7645 30.2804 12.8253 30.7292 14.909 30.7267V27.1785Z" fill="#D0D6E5"/>
<path d="M7.22091 6.60661L4.9076 3.97046C3.3606 5.40903 2.12428 7.16663 1.27883 9.12929C0.433389 11.0919 -0.00230497 13.2158 9.1703e-06 15.3632H3.44422C3.44351 13.7125 3.77934 12.0799 4.42993 10.5714C5.08054 9.06298 6.0314 7.71219 7.22091 6.60661Z" fill="#D0D6E5"/>
<path d="M86.0342 8.78601L90.2999 5.58398H76.0235V24.8254H90.2999V21.6234H80.0971V16.6947H88.8005V13.4926H80.0971V8.78601H86.0342Z" fill="#D0D6E5"/>
<path d="M66.4175 13.0798H61.4611V8.78476H69.3714L73.6345 5.573H57.3898V24.8144H65.8932C70.6606 24.8144 73.3967 22.6129 73.3967 18.7734C73.3967 15.1002 70.9185 13.0798 66.4175 13.0798ZM65.7098 21.6114H61.4611V16.2798H65.7098C68.2884 16.2798 69.4974 17.1733 69.4974 18.9456C69.4974 20.7179 68.211 21.6114 65.7098 21.6114Z" fill="#D0D6E5"/>
<path d="M100.794 5.58105H93.023V24.8224H97.0961V19.3717H100.794C105.752 19.3717 108.819 16.7135 108.819 12.4661C108.819 8.21883 105.752 5.58105 100.794 5.58105ZM100.708 16.1672H97.0961V8.78553H100.708C103.316 8.78553 104.755 10.0971 104.755 12.4778C104.755 14.8585 103.316 16.1672 100.708 16.1672Z" fill="#D0D6E5"/>
<path d="M51.2773 20.2817C50.2251 20.8622 49.0462 21.1628 47.8498 21.1557C44.2688 21.1557 41.6709 18.5508 41.6709 14.964C41.6709 11.377 44.2688 8.76648 47.8498 8.76648C49.1412 8.74413 50.4058 9.14312 51.4589 9.90522L54.3081 7.76725L54.1154 7.62776C52.4533 6.1389 50.2326 5.35034 47.6906 5.35034C44.9335 5.35034 42.4335 6.29547 40.6485 8.01492C39.746 8.90025 39.0322 9.96562 38.5516 11.1446C38.071 12.3235 37.8339 13.5906 37.8552 14.8671C37.8361 16.1565 38.0721 17.4366 38.5492 18.6311C39.0262 19.8255 39.7345 20.9097 40.6318 21.819C42.4251 23.6067 44.9196 24.5917 47.6571 24.5917C50.5175 24.5917 53.0176 23.5754 54.7104 21.725L52.16 19.7892L51.2773 20.2817Z" fill="#D0D6E5"/>
</g>
<defs>
<clipPath id="clip0">
<rect width="109" height="31" fill="white"/>
</clipPath>
</defs>
</svg>
