<svg width="614" height="530" viewBox="0 0 614 530" fill="none" xmlns="http://www.w3.org/2000/svg">
<rect y="123" width="427" height="579.792" rx="13.6422" fill="white"/>
<rect x="27.2844" y="158.471" width="54.5687" height="54.5687" rx="6.82109" fill="#D0D6E5"/>
<rect x="100.952" y="170.748" width="282.393" height="13.6422" rx="2.72843" fill="#D0D6E5"/>
<rect x="100.952" y="192.575" width="205.997" height="8.1853" rx="2.72843" fill="#D0D6E5"/>
<rect x="27.2844" y="379.474" width="205.997" height="8.1853" rx="2.72843" fill="#D0D6E5"/>
<rect x="27.2844" y="393.115" width="117.323" height="6.82109" rx="2.72843" fill="#D0D6E5"/>
<rect x="38.198" y="417.672" width="72.3035" height="4.09265" rx="2.04633" fill="#D0D6E5"/>
<rect x="27.2844" y="417.672" width="4.09265" height="4.09265" rx="2.04633" fill="#D0D6E5"/>
<rect x="38.198" y="427.222" width="72.3035" height="4.09265" rx="2.04633" fill="#D0D6E5"/>
<rect x="27.2844" y="427.222" width="4.09265" height="4.09265" rx="2.04633" fill="#D0D6E5"/>
<rect x="38.198" y="436.771" width="72.3035" height="4.09265" rx="2.04633" fill="#D0D6E5"/>
<rect x="27.2844" y="436.771" width="4.09265" height="4.09265" rx="2.04633" fill="#D0D6E5"/>
<rect x="27.2844" y="454.506" width="205.997" height="8.1853" rx="2.72843" fill="#D0D6E5"/>
<rect x="27.2844" y="468.148" width="117.323" height="6.82109" rx="2.72843" fill="#D0D6E5"/>
<rect x="38.198" y="492.704" width="72.3035" height="4.09265" rx="2.04633" fill="#D0D6E5"/>
<rect x="27.2844" y="492.704" width="4.09265" height="4.09265" rx="2.04633" fill="#D0D6E5"/>
<rect x="38.198" y="502.253" width="72.3035" height="4.09265" rx="2.04633" fill="#D0D6E5"/>
<rect x="27.2844" y="502.253" width="4.09265" height="4.09265" rx="2.04633" fill="#D0D6E5"/>
<rect x="38.198" y="511.803" width="72.3035" height="4.09265" rx="2.04633" fill="#D0D6E5"/>
<rect x="27.2844" y="511.804" width="4.09265" height="4.09265" rx="2.04633" fill="#D0D6E5"/>
<path d="M33.0278 368.082C32.0364 368.082 31.1406 367.868 30.3403 367.44C29.549 367.013 28.926 366.426 28.4713 365.681C28.0256 364.926 27.8028 364.08 27.8028 363.143C27.8028 362.206 28.0256 361.365 28.4713 360.619C28.926 359.865 29.549 359.273 30.3403 358.846C31.1406 358.418 32.0364 358.205 33.0278 358.205C34.0191 358.205 34.9104 358.418 35.7016 358.846C36.4929 359.273 37.1159 359.865 37.5706 360.619C38.0254 361.365 38.2527 362.206 38.2527 363.143C38.2527 364.08 38.0254 364.926 37.5706 365.681C37.1159 366.426 36.4929 367.013 35.7016 367.44C34.9104 367.868 34.0191 368.082 33.0278 368.082ZM33.0278 366.199C33.5917 366.199 34.101 366.072 34.5557 365.817C35.0104 365.553 35.3651 365.19 35.6198 364.726C35.8835 364.262 36.0154 363.734 36.0154 363.143C36.0154 362.552 35.8835 362.025 35.6198 361.561C35.3651 361.097 35.0104 360.738 34.5557 360.483C34.101 360.219 33.5917 360.087 33.0278 360.087C32.4639 360.087 31.9546 360.219 31.4999 360.483C31.0451 360.738 30.6859 361.097 30.4221 361.561C30.1675 362.025 30.0401 362.552 30.0401 363.143C30.0401 363.734 30.1675 364.262 30.4221 364.726C30.6859 365.19 31.0451 365.553 31.4999 365.817C31.9546 366.072 32.4639 366.199 33.0278 366.199ZM44.0342 361.083C44.7345 361.083 45.3484 361.229 45.8759 361.52C46.4034 361.802 46.8081 362.202 47.0901 362.72C47.3811 363.239 47.5266 363.839 47.5266 364.521C47.5266 365.221 47.3538 365.844 47.0082 366.39C46.6717 366.927 46.1988 367.345 45.5894 367.645C44.9801 367.936 44.2889 368.082 43.5158 368.082C42.2335 368.082 41.224 367.672 40.4873 366.854C39.7597 366.026 39.3959 364.817 39.3959 363.225C39.3959 361.752 39.7142 360.578 40.3509 359.705C40.9966 358.823 41.9834 358.246 43.3112 357.973L46.8036 357.277L47.0901 359.105L44.007 359.719C43.1702 359.883 42.5472 360.156 42.138 360.538C41.7378 360.92 41.5013 361.461 41.4286 362.161C41.7469 361.815 42.1289 361.552 42.5745 361.37C43.0202 361.179 43.5067 361.083 44.0342 361.083ZM43.5295 366.431C44.0752 366.431 44.5117 366.254 44.8391 365.899C45.1756 365.544 45.3439 365.094 45.3439 364.548C45.3439 363.994 45.1756 363.552 44.8391 363.225C44.5117 362.898 44.0752 362.734 43.5295 362.734C42.9747 362.734 42.5291 362.898 42.1925 363.225C41.856 363.552 41.6878 363.994 41.6878 364.548C41.6878 365.103 41.8606 365.558 42.2062 365.913C42.5518 366.258 42.9929 366.431 43.5295 366.431ZM53.2952 360.469C53.9774 360.469 54.5958 360.629 55.1506 360.947C55.7145 361.256 56.1556 361.697 56.4739 362.27C56.7922 362.834 56.9514 363.493 56.9514 364.248C56.9514 365.003 56.7922 365.667 56.4739 366.24C56.1556 366.804 55.7145 367.245 55.1506 367.563C54.5958 367.872 53.9774 368.027 53.2952 368.027C52.3585 368.027 51.6218 367.732 51.0852 367.14V370.565H48.957V360.578H50.9897V361.424C51.5172 360.788 52.2857 360.469 53.2952 360.469ZM52.9269 366.281C53.4726 366.281 53.9182 366.099 54.2638 365.735C54.6185 365.362 54.7959 364.867 54.7959 364.248C54.7959 363.63 54.6185 363.139 54.2638 362.775C53.9182 362.402 53.4726 362.216 52.9269 362.216C52.3812 362.216 51.931 362.402 51.5763 362.775C51.2307 363.139 51.0579 363.63 51.0579 364.248C51.0579 364.867 51.2307 365.362 51.5763 365.735C51.931 366.099 52.3812 366.281 52.9269 366.281ZM61.1742 360.469C62.3111 360.469 63.1842 360.742 63.7935 361.288C64.4029 361.824 64.7076 362.638 64.7076 363.73V367.918H62.7158V367.004C62.3156 367.686 61.5699 368.027 60.4785 368.027C59.9146 368.027 59.4235 367.932 59.0051 367.741C58.5959 367.55 58.2821 367.286 58.0638 366.949C57.8456 366.613 57.7364 366.231 57.7364 365.803C57.7364 365.121 57.9911 364.585 58.5004 364.194C59.0188 363.803 59.8146 363.607 60.8878 363.607H62.5794C62.5794 363.143 62.4384 362.789 62.1565 362.543C61.8745 362.288 61.4516 362.161 60.8878 362.161C60.4967 362.161 60.1102 362.225 59.7282 362.352C59.3553 362.47 59.037 362.634 58.7732 362.843L58.0093 361.356C58.4094 361.074 58.8869 360.856 59.4417 360.701C60.0056 360.547 60.5831 360.469 61.1742 360.469ZM61.0105 366.595C61.3743 366.595 61.6972 366.513 61.9791 366.349C62.2611 366.176 62.4612 365.926 62.5794 365.599V364.848H61.1197C60.2466 364.848 59.81 365.135 59.81 365.708C59.81 365.981 59.9146 366.199 60.1238 366.363C60.3421 366.517 60.6377 366.595 61.0105 366.595ZM71.2508 364.098C71.6873 364.235 72.0239 364.444 72.2603 364.726C72.5059 365.008 72.6287 365.344 72.6287 365.735C72.6287 366.199 72.4695 366.608 72.1512 366.963C71.8329 367.309 71.3963 367.577 70.8415 367.768C70.2868 367.959 69.6592 368.054 68.9589 368.054C68.3859 368.054 67.8221 367.995 67.2673 367.877C66.7125 367.759 66.1986 367.581 65.7257 367.345L66.2987 365.858C67.0717 366.231 67.9267 366.417 68.8634 366.417C69.3636 366.417 69.7547 366.345 70.0366 366.199C70.3277 366.044 70.4732 365.831 70.4732 365.558C70.4732 365.321 70.3732 365.144 70.1731 365.026C69.973 364.899 69.6819 364.835 69.3 364.835H67.7993V363.512H69.109C69.4819 363.512 69.7684 363.452 69.9684 363.334C70.1685 363.216 70.2686 363.043 70.2686 362.816C70.2686 362.579 70.1412 362.397 69.8866 362.27C69.641 362.143 69.2863 362.079 68.8225 362.079C68.1131 362.079 67.34 362.247 66.5033 362.584L65.9849 361.111C67.0035 360.665 67.9949 360.442 68.9589 360.442C69.6228 360.442 70.214 360.524 70.7324 360.688C71.2599 360.851 71.6737 361.092 71.9738 361.411C72.274 361.72 72.424 362.084 72.424 362.502C72.424 362.848 72.3194 363.161 72.1103 363.443C71.9011 363.716 71.6146 363.934 71.2508 364.098ZM77.6146 368.027C76.8415 368.027 76.1457 367.868 75.5273 367.55C74.9179 367.222 74.4405 366.772 74.0949 366.199C73.7493 365.626 73.5765 364.976 73.5765 364.248C73.5765 363.521 73.7493 362.87 74.0949 362.297C74.4405 361.724 74.9179 361.279 75.5273 360.96C76.1457 360.633 76.8415 360.469 77.6146 360.469C78.3876 360.469 79.0788 360.633 79.6882 360.96C80.2975 361.279 80.775 361.724 81.1206 362.297C81.4662 362.87 81.639 363.521 81.639 364.248C81.639 364.976 81.4662 365.626 81.1206 366.199C80.775 366.772 80.2975 367.222 79.6882 367.55C79.0788 367.868 78.3876 368.027 77.6146 368.027ZM77.6146 366.281C78.1602 366.281 78.6059 366.099 78.9515 365.735C79.3062 365.362 79.4835 364.867 79.4835 364.248C79.4835 363.63 79.3062 363.139 78.9515 362.775C78.6059 362.402 78.1602 362.216 77.6146 362.216C77.0689 362.216 76.6187 362.402 76.264 362.775C75.9093 363.139 75.7319 363.63 75.7319 364.248C75.7319 364.867 75.9093 365.362 76.264 365.735C76.6187 366.099 77.0689 366.281 77.6146 366.281ZM88.7097 364.085C89.5737 364.376 90.0057 364.958 90.0057 365.831C90.0057 366.495 89.7556 367.008 89.2554 367.372C88.7552 367.736 88.0094 367.918 87.0181 367.918H83.1028V360.578H86.8544C87.7729 360.578 88.4914 360.747 89.0098 361.083C89.5282 361.411 89.7874 361.874 89.7874 362.475C89.7874 362.839 89.6919 363.161 89.5009 363.443C89.319 363.716 89.0553 363.93 88.7097 364.085ZM85.0536 363.593H86.6634C87.4091 363.593 87.782 363.33 87.782 362.802C87.782 362.284 87.4091 362.025 86.6634 362.025H85.0536V363.593ZM86.8407 366.472C87.6229 366.472 88.0139 366.204 88.0139 365.667C88.0139 365.385 87.923 365.18 87.7411 365.053C87.5592 364.917 87.2727 364.848 86.8816 364.848H85.0536V366.472H86.8407ZM94.4404 360.469C95.5772 360.469 96.4503 360.742 97.0597 361.288C97.669 361.824 97.9737 362.638 97.9737 363.73V367.918H95.9819V367.004C95.5818 367.686 94.836 368.027 93.7446 368.027C93.1807 368.027 92.6896 367.932 92.2713 367.741C91.862 367.55 91.5482 367.286 91.3299 366.949C91.1117 366.613 91.0025 366.231 91.0025 365.803C91.0025 365.121 91.2572 364.585 91.7665 364.194C92.2849 363.803 93.0807 363.607 94.1539 363.607H95.8455C95.8455 363.143 95.7045 362.789 95.4226 362.543C95.1407 362.288 94.7178 362.161 94.1539 362.161C93.7628 362.161 93.3763 362.225 92.9943 362.352C92.6214 362.47 92.3031 362.634 92.0393 362.843L91.2754 361.356C91.6755 361.074 92.153 360.856 92.7078 360.701C93.2717 360.547 93.8492 360.469 94.4404 360.469ZM94.2767 366.595C94.6404 366.595 94.9633 366.513 95.2452 366.349C95.5272 366.176 95.7273 365.926 95.8455 365.599V364.848H94.3858C93.5127 364.848 93.0761 365.135 93.0761 365.708C93.0761 365.981 93.1807 366.199 93.3899 366.363C93.6082 366.517 93.9038 366.595 94.2767 366.595ZM99.8224 360.578H101.937V363.443H105.129V360.578H107.257V367.918H105.129V365.176H101.937V367.918H99.8224V360.578ZM109.295 360.578H111.409V364.944L114.983 360.578H116.934V367.918H114.82V363.552L111.259 367.918H109.295V360.578ZM126.115 364.276C126.115 364.303 126.101 364.494 126.074 364.848H120.522C120.622 365.303 120.858 365.662 121.231 365.926C121.604 366.19 122.068 366.322 122.623 366.322C123.005 366.322 123.341 366.267 123.632 366.158C123.932 366.04 124.21 365.858 124.464 365.612L125.597 366.84C124.905 367.631 123.896 368.027 122.568 368.027C121.74 368.027 121.008 367.868 120.372 367.55C119.735 367.222 119.244 366.772 118.898 366.199C118.553 365.626 118.38 364.976 118.38 364.248C118.38 363.53 118.548 362.884 118.885 362.311C119.23 361.729 119.699 361.279 120.29 360.96C120.89 360.633 121.558 360.469 122.295 360.469C123.014 360.469 123.664 360.624 124.246 360.933C124.828 361.242 125.283 361.688 125.61 362.27C125.947 362.843 126.115 363.512 126.115 364.276ZM122.309 362.079C121.827 362.079 121.422 362.216 121.095 362.488C120.767 362.761 120.567 363.134 120.494 363.607H124.11C124.037 363.143 123.837 362.775 123.509 362.502C123.182 362.22 122.782 362.079 122.309 362.079Z" fill="#D0D6E5"/>
<rect x="27.2844" y="267.607" width="237.374" height="6.82109" rx="2.72843" fill="#D0D6E5"/>
<rect x="27.2844" y="281.25" width="237.374" height="6.82109" rx="2.72843" fill="#D0D6E5"/>
<rect x="27.2844" y="294.892" width="237.374" height="6.82109" rx="2.72843" fill="#D0D6E5"/>
<rect x="27.2844" y="308.533" width="162.342" height="6.82109" rx="2.72843" fill="#D0D6E5"/>
<path d="M33.0278 256.215C32.0364 256.215 31.1406 256.002 30.3403 255.574C29.549 255.147 28.926 254.56 28.4713 253.814C28.0256 253.06 27.8028 252.214 27.8028 251.277C27.8028 250.34 28.0256 249.499 28.4713 248.753C28.926 247.998 29.549 247.407 30.3403 246.98C31.1406 246.552 32.0364 246.339 33.0278 246.339C34.0191 246.339 34.9104 246.552 35.7016 246.98C36.4929 247.407 37.1159 247.998 37.5706 248.753C38.0254 249.499 38.2527 250.34 38.2527 251.277C38.2527 252.214 38.0254 253.06 37.5706 253.814C37.1159 254.56 36.4929 255.147 35.7016 255.574C34.9104 256.002 34.0191 256.215 33.0278 256.215ZM33.0278 254.333C33.5917 254.333 34.101 254.206 34.5557 253.951C35.0104 253.687 35.3651 253.323 35.6198 252.859C35.8835 252.396 36.0154 251.868 36.0154 251.277C36.0154 250.686 35.8835 250.158 35.6198 249.695C35.3651 249.231 35.0104 248.871 34.5557 248.617C34.101 248.353 33.5917 248.221 33.0278 248.221C32.4639 248.221 31.9546 248.353 31.4999 248.617C31.0451 248.871 30.6859 249.231 30.4221 249.695C30.1675 250.158 30.0401 250.686 30.0401 251.277C30.0401 251.868 30.1675 252.396 30.4221 252.859C30.6859 253.323 31.0451 253.687 31.4999 253.951C31.9546 254.206 32.4639 254.333 33.0278 254.333ZM47.1474 256.161C46.3653 256.161 45.6604 256.002 45.0329 255.683C44.4144 255.356 43.9279 254.906 43.5732 254.333C43.2276 253.76 43.0548 253.11 43.0548 252.382C43.0548 251.654 43.2276 251.004 43.5732 250.431C43.9279 249.858 44.4144 249.413 45.0329 249.094C45.6604 248.767 46.3653 248.603 47.1474 248.603C47.9205 248.603 48.5935 248.767 49.1665 249.094C49.7485 249.413 50.1714 249.872 50.4352 250.472L48.7845 251.359C48.4025 250.686 47.8523 250.349 47.1338 250.349C46.579 250.349 46.1197 250.531 45.7559 250.895C45.3921 251.259 45.2102 251.754 45.2102 252.382C45.2102 253.01 45.3921 253.505 45.7559 253.869C46.1197 254.233 46.579 254.415 47.1338 254.415C47.8614 254.415 48.4116 254.078 48.7845 253.405L50.4352 254.306C50.1714 254.888 49.7485 255.342 49.1665 255.67C48.5935 255.997 47.9205 256.161 47.1474 256.161ZM58.77 252.409C58.77 252.437 58.7564 252.628 58.7291 252.982H53.1767C53.2768 253.437 53.5132 253.796 53.8861 254.06C54.259 254.324 54.7228 254.456 55.2776 254.456C55.6596 254.456 55.9961 254.401 56.2871 254.292C56.5873 254.174 56.8647 253.992 57.1193 253.746L58.2516 254.974C57.5604 255.765 56.5509 256.161 55.2231 256.161C54.3954 256.161 53.6633 256.002 53.0267 255.683C52.39 255.356 51.8989 254.906 51.5533 254.333C51.2077 253.76 51.0349 253.11 51.0349 252.382C51.0349 251.664 51.2032 251.018 51.5397 250.445C51.8853 249.863 52.3537 249.413 52.9448 249.094C53.5451 248.767 54.2135 248.603 54.9502 248.603C55.6687 248.603 56.319 248.758 56.901 249.067C57.4831 249.376 57.9379 249.822 58.2653 250.404C58.6018 250.977 58.77 251.645 58.77 252.409ZM54.9639 250.213C54.4818 250.213 54.0771 250.349 53.7497 250.622C53.4223 250.895 53.2222 251.268 53.1494 251.741H56.7646C56.6919 251.277 56.4918 250.909 56.1644 250.636C55.837 250.354 55.4368 250.213 54.9639 250.213ZM64.644 249.217C65.3443 249.217 65.9582 249.363 66.4857 249.654C67.0132 249.936 67.418 250.336 67.6999 250.854C67.9909 251.372 68.1364 251.973 68.1364 252.655C68.1364 253.355 67.9636 253.978 67.618 254.524C67.2815 255.06 66.8086 255.479 66.1993 255.779C65.5899 256.07 64.8987 256.215 64.1256 256.215C62.8433 256.215 61.8338 255.806 61.0971 254.988C60.3695 254.16 60.0057 252.95 60.0057 251.359C60.0057 249.885 60.324 248.712 60.9607 247.839C61.6064 246.957 62.5932 246.379 63.921 246.107L67.4134 245.411L67.6999 247.239L64.6168 247.853C63.78 248.017 63.157 248.289 62.7478 248.671C62.3476 249.053 62.1111 249.594 62.0384 250.295C62.3567 249.949 62.7387 249.685 63.1843 249.504C63.63 249.313 64.1165 249.217 64.644 249.217ZM64.1393 254.565C64.685 254.565 65.1215 254.387 65.4489 254.033C65.7854 253.678 65.9537 253.228 65.9537 252.682C65.9537 252.127 65.7854 251.686 65.4489 251.359C65.1215 251.031 64.685 250.868 64.1393 250.868C63.5845 250.868 63.1389 251.031 62.8024 251.359C62.4658 251.686 62.2976 252.127 62.2976 252.682C62.2976 253.237 62.4704 253.692 62.816 254.046C63.1616 254.392 63.6027 254.565 64.1393 254.565ZM76.7153 252.409C76.7153 252.437 76.7017 252.628 76.6744 252.982H71.1221C71.2221 253.437 71.4586 253.796 71.8314 254.06C72.2043 254.324 72.6682 254.456 73.2229 254.456C73.6049 254.456 73.9414 254.401 74.2325 254.292C74.5326 254.174 74.81 253.992 75.0646 253.746L76.1969 254.974C75.5057 255.765 74.4962 256.161 73.1684 256.161C72.3408 256.161 71.6086 256.002 70.972 255.683C70.3354 255.356 69.8442 254.906 69.4986 254.333C69.153 253.76 68.9802 253.11 68.9802 252.382C68.9802 251.664 69.1485 251.018 69.485 250.445C69.8306 249.863 70.299 249.413 70.8901 249.094C71.4904 248.767 72.1589 248.603 72.8955 248.603C73.614 248.603 74.2643 248.758 74.8464 249.067C75.4284 249.376 75.8832 249.822 76.2106 250.404C76.5471 250.977 76.7153 251.645 76.7153 252.409ZM72.9092 250.213C72.4272 250.213 72.0224 250.349 71.695 250.622C71.3676 250.895 71.1675 251.268 71.0948 251.741H74.7099C74.6372 251.277 74.4371 250.909 74.1097 250.636C73.7823 250.354 73.3821 250.213 72.9092 250.213Z" fill="#D0D6E5"/>
<rect x="313.77" y="267.607" width="85.9457" height="4.09265" rx="2.04633" fill="#D0D6E5"/>
<rect x="313.77" y="278.521" width="85.9457" height="4.09265" rx="2.04633" fill="#D0D6E5"/>
<rect x="313.77" y="289.435" width="85.9457" height="4.09265" rx="2.04633" fill="#D0D6E5"/>
<rect x="313.77" y="300.348" width="58.7789" height="4.09265" rx="2.04633" fill="#D0D6E5"/>
<path d="M323.715 246.502V256.052H321.505V252.136H317.167V256.052H314.957V246.502H317.167V250.267H321.505V246.502H323.715ZM328.795 248.603C329.932 248.603 330.805 248.876 331.415 249.422C332.024 249.958 332.329 250.772 332.329 251.864V256.052H330.337V255.138C329.937 255.82 329.191 256.161 328.1 256.161C327.536 256.161 327.045 256.065 326.626 255.874C326.217 255.683 325.903 255.42 325.685 255.083C325.467 254.747 325.357 254.365 325.357 253.937C325.357 253.255 325.612 252.719 326.121 252.327C326.64 251.936 327.436 251.741 328.509 251.741H330.2C330.2 251.277 330.059 250.922 329.778 250.677C329.496 250.422 329.073 250.295 328.509 250.295C328.118 250.295 327.731 250.358 327.349 250.486C326.976 250.604 326.658 250.768 326.394 250.977L325.63 249.49C326.03 249.208 326.508 248.99 327.063 248.835C327.627 248.68 328.204 248.603 328.795 248.603ZM328.632 254.728C328.995 254.728 329.318 254.647 329.6 254.483C329.882 254.31 330.082 254.06 330.2 253.733V252.982H328.741C327.868 252.982 327.431 253.269 327.431 253.842C327.431 254.115 327.536 254.333 327.745 254.497C327.963 254.651 328.259 254.728 328.632 254.728ZM339.784 252.218C340.648 252.509 341.08 253.091 341.08 253.965C341.08 254.628 340.83 255.142 340.33 255.506C339.83 255.87 339.084 256.052 338.093 256.052H334.177V248.712H337.929C338.847 248.712 339.566 248.881 340.084 249.217C340.603 249.544 340.862 250.008 340.862 250.609C340.862 250.972 340.766 251.295 340.576 251.577C340.394 251.85 340.13 252.064 339.784 252.218ZM336.128 251.727H337.738C338.484 251.727 338.857 251.463 338.857 250.936C338.857 250.418 338.484 250.158 337.738 250.158H336.128V251.727ZM337.915 254.606C338.697 254.606 339.089 254.337 339.089 253.801C339.089 253.519 338.998 253.314 338.816 253.187C338.634 253.05 338.347 252.982 337.956 252.982H336.128V254.606H337.915ZM346.524 251.059C347.479 251.068 348.202 251.282 348.694 251.7C349.185 252.118 349.43 252.719 349.43 253.501C349.43 254.319 349.153 254.951 348.598 255.397C348.043 255.843 347.257 256.065 346.238 256.065L342.664 256.052V248.712H344.778V251.059H346.524ZM350.221 248.712H352.336V256.052H350.221V248.712ZM346.047 254.551C346.456 254.56 346.77 254.474 346.988 254.292C347.207 254.11 347.316 253.837 347.316 253.473C347.316 253.119 347.207 252.859 346.988 252.696C346.779 252.532 346.465 252.446 346.047 252.437L344.778 252.423V254.551H346.047ZM357.621 253.269H356.516V256.052H354.387V248.712H356.516V251.563H357.662L359.653 248.712H361.918L359.353 252.232L362.095 256.052H359.585L357.621 253.269ZM363.14 248.712H365.255V253.078L368.829 248.712H370.78V256.052H368.665V251.686L365.105 256.052H363.14V248.712Z" fill="#D0D6E5"/>
<rect x="326.048" y="356.281" width="72.3035" height="4.09265" rx="2.04633" fill="#D0D6E5"/>
<rect x="315.134" y="356.281" width="4.09265" height="4.09265" rx="2.04633" fill="#D0D6E5"/>
<rect x="326.048" y="365.83" width="72.3035" height="4.09265" rx="2.04633" fill="#D0D6E5"/>
<rect x="315.134" y="365.831" width="4.09265" height="4.09265" rx="2.04633" fill="#D0D6E5"/>
<rect x="326.048" y="375.381" width="72.3035" height="4.09265" rx="2.04633" fill="#D0D6E5"/>
<rect x="315.134" y="375.382" width="4.09265" height="4.09265" rx="2.04633" fill="#D0D6E5"/>
<rect x="326.048" y="386.294" width="72.3035" height="4.09265" rx="2.04633" fill="#D0D6E5"/>
<rect x="315.134" y="386.294" width="4.09265" height="4.09265" rx="2.04633" fill="#D0D6E5"/>
<rect x="326.048" y="395.843" width="72.3035" height="4.09265" rx="2.04633" fill="#D0D6E5"/>
<rect x="315.134" y="395.844" width="4.09265" height="4.09265" rx="2.04633" fill="#D0D6E5"/>
<rect x="326.048" y="405.394" width="72.3035" height="4.09265" rx="2.04633" fill="#D0D6E5"/>
<rect x="315.134" y="405.394" width="4.09265" height="4.09265" rx="2.04633" fill="#D0D6E5"/>
<path d="M324.807 342.925V346.704H322.76V344.726H316.021V346.704H313.975L313.988 342.925H314.37C314.943 342.907 315.348 342.488 315.584 341.67C315.821 340.851 315.966 339.683 316.021 338.164L316.13 335.176H323.47V342.925H324.807ZM317.972 338.368C317.926 339.505 317.831 340.46 317.685 341.233C317.54 341.997 317.317 342.561 317.017 342.925H321.287V336.977H318.013L317.972 338.368ZM329.475 344.835C328.702 344.835 328.006 344.676 327.388 344.357C326.779 344.03 326.301 343.58 325.955 343.007C325.61 342.434 325.437 341.783 325.437 341.056C325.437 340.328 325.61 339.678 325.955 339.105C326.301 338.532 326.779 338.086 327.388 337.768C328.006 337.441 328.702 337.277 329.475 337.277C330.248 337.277 330.939 337.441 331.549 337.768C332.158 338.086 332.636 338.532 332.981 339.105C333.327 339.678 333.5 340.328 333.5 341.056C333.5 341.783 333.327 342.434 332.981 343.007C332.636 343.58 332.158 344.03 331.549 344.357C330.939 344.676 330.248 344.835 329.475 344.835ZM329.475 343.089C330.021 343.089 330.466 342.907 330.812 342.543C331.167 342.17 331.344 341.674 331.344 341.056C331.344 340.437 331.167 339.946 330.812 339.582C330.466 339.21 330.021 339.023 329.475 339.023C328.929 339.023 328.479 339.21 328.125 339.582C327.77 339.946 327.593 340.437 327.593 341.056C327.593 341.674 327.77 342.17 328.125 342.543C328.479 342.907 328.929 343.089 329.475 343.089ZM338.456 344.835C337.674 344.835 336.969 344.676 336.341 344.357C335.723 344.03 335.236 343.58 334.881 343.007C334.536 342.434 334.363 341.783 334.363 341.056C334.363 340.328 334.536 339.678 334.881 339.105C335.236 338.532 335.723 338.086 336.341 337.768C336.969 337.441 337.674 337.277 338.456 337.277C339.229 337.277 339.902 337.441 340.475 337.768C341.057 338.086 341.48 338.546 341.744 339.146L340.093 340.033C339.711 339.36 339.161 339.023 338.442 339.023C337.887 339.023 337.428 339.205 337.064 339.569C336.7 339.933 336.519 340.428 336.519 341.056C336.519 341.683 336.7 342.179 337.064 342.543C337.428 342.907 337.887 343.089 338.442 343.089C339.17 343.089 339.72 342.752 340.093 342.079L341.744 342.979C341.48 343.561 341.057 344.016 340.475 344.344C339.902 344.671 339.229 344.835 338.456 344.835ZM349.176 339.132H346.693V344.726H344.579V339.132H342.096V337.386H349.176V339.132ZM350.311 337.386H352.425V341.752L356 337.386H357.95V344.726H355.836V340.36L352.275 344.726H350.311V337.386ZM367.267 341.943H366.244V344.726H364.143V341.943H363.12L361.565 344.726H359.055L361.36 340.933L359.219 337.386H361.47L363.093 340.237H364.143V337.386H366.244V340.237H367.281L368.918 337.386H371.169L369.027 340.933L371.346 344.726H368.823L367.267 341.943ZM379.361 341.083C379.361 341.11 379.347 341.301 379.32 341.656H373.768C373.868 342.111 374.104 342.47 374.477 342.734C374.85 342.998 375.314 343.129 375.869 343.129C376.251 343.129 376.587 343.075 376.878 342.966C377.178 342.848 377.456 342.666 377.71 342.42L378.843 343.648C378.151 344.439 377.142 344.835 375.814 344.835C374.986 344.835 374.254 344.676 373.618 344.357C372.981 344.03 372.49 343.58 372.144 343.007C371.799 342.434 371.626 341.783 371.626 341.056C371.626 340.337 371.794 339.692 372.131 339.119C372.476 338.537 372.945 338.086 373.536 337.768C374.136 337.441 374.805 337.277 375.541 337.277C376.26 337.277 376.91 337.432 377.492 337.741C378.074 338.05 378.529 338.496 378.856 339.078C379.193 339.651 379.361 340.319 379.361 341.083ZM375.555 338.887C375.073 338.887 374.668 339.023 374.341 339.296C374.013 339.569 373.813 339.942 373.74 340.415H377.356C377.283 339.951 377.083 339.582 376.755 339.31C376.428 339.028 376.028 338.887 375.555 338.887ZM380.992 337.386H383.107V340.251H386.299V337.386H388.427V344.726H386.299V341.984H383.107V344.726H380.992V337.386ZM390.465 337.386H392.579V341.752L396.153 337.386H398.104V344.726H395.99V340.36L392.429 344.726H390.465V337.386ZM406.671 337.386V344.726H404.775V342.625H403.206L401.814 344.726H399.55L401.228 342.325C400.718 342.124 400.327 341.838 400.055 341.465C399.791 341.083 399.659 340.624 399.659 340.087C399.659 339.223 399.968 338.559 400.587 338.095C401.214 337.623 402.074 337.386 403.165 337.386H406.671ZM403.206 339.119C402.751 339.119 402.406 339.201 402.169 339.364C401.942 339.528 401.828 339.792 401.828 340.155C401.828 340.519 401.937 340.788 402.155 340.96C402.383 341.124 402.724 341.206 403.179 341.206H404.775V339.119H403.206Z" fill="#D0D6E5"/>
<rect x="539" width="64" height="53" rx="5" fill="#262E85"/>
<path d="M571 34.5C569.895 34.5 569 33.6046 569 32.5C569 31.3954 569.895 30.5 571 30.5C572.105 30.5 573 31.3954 573 32.5C573 33.6046 572.105 34.5 571 34.5ZM571 28.5C569.895 28.5 569 27.6046 569 26.5C569 25.3954 569.895 24.5 571 24.5C572.105 24.5 573 25.3954 573 26.5C573 27.0304 572.789 27.5391 572.414 27.9142C572.039 28.2893 571.53 28.5 571 28.5ZM571 22.5C569.895 22.5 569 21.6046 569 20.5C569 19.3954 569.895 18.5 571 18.5C572.105 18.5 573 19.3954 573 20.5C573 21.0304 572.789 21.5391 572.414 21.9142C572.039 22.2893 571.53 22.5 571 22.5Z" fill="white"/>
<g filter="url(#filter0_d)">
<rect x="338" y="63" width="265" height="161" rx="5" fill="#C4C4C4"/>
</g>
<path d="M603 219V68C603 65.2386 600.761 63 598 63H518.466H424.434H343C340.239 63 338 65.2386 338 68V219C338 221.761 340.239 224 343 224H598C600.761 224 603 221.761 603 219Z" fill="white"/>
<path d="M374.784 96.096C373.675 96.096 372.672 95.8507 371.776 95.36C370.891 94.8693 370.192 94.192 369.68 93.328C369.179 92.4533 368.928 91.4773 368.928 90.4C368.928 89.3227 369.179 88.352 369.68 87.488C370.192 86.6133 370.896 85.9307 371.792 85.44C372.688 84.9493 373.691 84.704 374.8 84.704C375.632 84.704 376.4 84.8427 377.104 85.12C377.808 85.3973 378.405 85.8027 378.896 86.336L378.144 87.088C377.269 86.2027 376.165 85.76 374.832 85.76C373.947 85.76 373.141 85.9627 372.416 86.368C371.691 86.7733 371.12 87.328 370.704 88.032C370.299 88.736 370.096 89.5253 370.096 90.4C370.096 91.2747 370.299 92.064 370.704 92.768C371.12 93.472 371.691 94.0267 372.416 94.432C373.141 94.8373 373.947 95.04 374.832 95.04C376.176 95.04 377.28 94.592 378.144 93.696L378.896 94.448C378.405 94.9813 377.803 95.392 377.088 95.68C376.384 95.9573 375.616 96.096 374.784 96.096ZM384.125 92.256H382.205V96H381.069V87.584H382.205V91.28H384.141L387.101 87.584H388.333L385.021 91.664L388.573 96H387.229L384.125 92.256ZM393.106 87.52C394.204 87.52 395.047 87.7973 395.634 88.352C396.22 88.896 396.514 89.7067 396.514 90.784V96H395.426V94.688C395.17 95.1253 394.791 95.4667 394.29 95.712C393.799 95.9573 393.212 96.08 392.53 96.08C391.591 96.08 390.844 95.856 390.29 95.408C389.735 94.96 389.458 94.368 389.458 93.632C389.458 92.9173 389.714 92.3413 390.226 91.904C390.748 91.4667 391.575 91.248 392.706 91.248H395.378V90.736C395.378 90.0107 395.175 89.4613 394.77 89.088C394.364 88.704 393.772 88.512 392.994 88.512C392.46 88.512 391.948 88.6027 391.458 88.784C390.967 88.9547 390.546 89.1947 390.194 89.504L389.682 88.656C390.108 88.2933 390.62 88.016 391.218 87.824C391.815 87.6213 392.444 87.52 393.106 87.52ZM392.706 95.184C393.346 95.184 393.895 95.04 394.354 94.752C394.812 94.4533 395.154 94.0267 395.378 93.472V92.096H392.738C391.298 92.096 390.578 92.5973 390.578 93.6C390.578 94.0907 390.764 94.48 391.138 94.768C391.511 95.0453 392.034 95.184 392.706 95.184ZM405.89 87.584V96H404.754V92.496C403.783 92.9227 402.829 93.136 401.89 93.136C400.877 93.136 400.087 92.9067 399.522 92.448C398.957 91.9787 398.674 91.28 398.674 90.352V87.584H399.81V90.288C399.81 90.9173 400.013 91.3973 400.418 91.728C400.823 92.048 401.383 92.208 402.098 92.208C402.887 92.208 403.773 92 404.754 91.584V87.584H405.89ZM412.012 87.52C413.111 87.52 413.953 87.7973 414.54 88.352C415.127 88.896 415.42 89.7067 415.42 90.784V96H414.332V94.688C414.076 95.1253 413.697 95.4667 413.196 95.712C412.705 95.9573 412.119 96.08 411.436 96.08C410.497 96.08 409.751 95.856 409.196 95.408C408.641 94.96 408.364 94.368 408.364 93.632C408.364 92.9173 408.62 92.3413 409.132 91.904C409.655 91.4667 410.481 91.248 411.612 91.248H414.284V90.736C414.284 90.0107 414.081 89.4613 413.676 89.088C413.271 88.704 412.679 88.512 411.9 88.512C411.367 88.512 410.855 88.6027 410.364 88.784C409.873 88.9547 409.452 89.1947 409.1 89.504L408.588 88.656C409.015 88.2933 409.527 88.016 410.124 87.824C410.721 87.6213 411.351 87.52 412.012 87.52ZM411.612 95.184C412.252 95.184 412.801 95.04 413.26 94.752C413.719 94.4533 414.06 94.0267 414.284 93.472V92.096H411.644C410.204 92.096 409.484 92.5973 409.484 93.6C409.484 94.0907 409.671 94.48 410.044 94.768C410.417 95.0453 410.94 95.184 411.612 95.184ZM424.364 88.592H421.18V96H420.044V88.592H416.86V87.584H424.364V88.592ZM429.623 90.56C430.679 90.5707 431.479 90.8053 432.023 91.264C432.577 91.7227 432.855 92.384 432.855 93.248C432.855 94.144 432.556 94.832 431.959 95.312C431.372 95.792 430.519 96.0267 429.399 96.016L426.007 96V87.584H427.143V90.528L429.623 90.56ZM429.335 95.152C430.113 95.1627 430.7 95.008 431.095 94.688C431.5 94.3573 431.703 93.8773 431.703 93.248C431.703 92.6293 431.505 92.1707 431.111 91.872C430.716 91.5733 430.124 91.4187 429.335 91.408L427.143 91.376V95.12L429.335 95.152ZM444.57 91.648C445.711 91.9147 446.282 92.6027 446.282 93.712C446.282 94.448 446.01 95.0133 445.466 95.408C444.922 95.8027 444.111 96 443.034 96H439.21V87.584H442.922C443.882 87.584 444.634 87.7707 445.178 88.144C445.722 88.5173 445.994 89.0507 445.994 89.744C445.994 90.2027 445.866 90.5973 445.61 90.928C445.364 91.248 445.018 91.488 444.57 91.648ZM440.314 91.328H442.842C443.492 91.328 443.988 91.2053 444.33 90.96C444.682 90.7147 444.858 90.3573 444.858 89.888C444.858 89.4187 444.682 89.0667 444.33 88.832C443.988 88.5973 443.492 88.48 442.842 88.48H440.314V91.328ZM442.986 95.104C443.711 95.104 444.255 94.9867 444.618 94.752C444.98 94.5173 445.162 94.1493 445.162 93.648C445.162 93.1467 444.996 92.7787 444.666 92.544C444.335 92.2987 443.812 92.176 443.098 92.176H440.314V95.104H442.986ZM457.532 84.8C458.961 84.8 460.081 85.1413 460.892 85.824C461.702 86.5067 462.108 87.4453 462.108 88.64C462.108 89.8347 461.702 90.7733 460.892 91.456C460.081 92.128 458.961 92.464 457.532 92.464H454.524V96H453.34V84.8H457.532ZM457.5 91.424C458.609 91.424 459.457 91.184 460.044 90.704C460.63 90.2133 460.924 89.5253 460.924 88.64C460.924 87.7333 460.63 87.04 460.044 86.56C459.457 86.0693 458.609 85.824 457.5 85.824H454.524V91.424H457.5ZM464.668 84.8H469.228C470.412 84.8 471.457 85.04 472.364 85.52C473.27 85.9893 473.974 86.6507 474.476 87.504C474.977 88.3467 475.228 89.312 475.228 90.4C475.228 91.488 474.977 92.4587 474.476 93.312C473.974 94.1547 473.27 94.816 472.364 95.296C471.457 95.7653 470.412 96 469.228 96H464.668V84.8ZM469.164 94.976C470.145 94.976 471.004 94.784 471.74 94.4C472.476 94.0053 473.046 93.4667 473.452 92.784C473.857 92.0907 474.06 91.296 474.06 90.4C474.06 89.504 473.857 88.7147 473.452 88.032C473.046 87.3387 472.476 86.8 471.74 86.416C471.004 86.0213 470.145 85.824 469.164 85.824H465.852V94.976H469.164ZM479.071 85.824V90.224H484.863V91.248H479.071V96H477.887V84.8H485.567V85.824H479.071Z" fill="#2D3246"/>
<path d="M374.784 132.096C373.675 132.096 372.672 131.851 371.776 131.36C370.891 130.869 370.192 130.192 369.68 129.328C369.179 128.453 368.928 127.477 368.928 126.4C368.928 125.323 369.179 124.352 369.68 123.488C370.192 122.613 370.896 121.931 371.792 121.44C372.688 120.949 373.691 120.704 374.8 120.704C375.632 120.704 376.4 120.843 377.104 121.12C377.808 121.397 378.405 121.803 378.896 122.336L378.144 123.088C377.269 122.203 376.165 121.76 374.832 121.76C373.947 121.76 373.141 121.963 372.416 122.368C371.691 122.773 371.12 123.328 370.704 124.032C370.299 124.736 370.096 125.525 370.096 126.4C370.096 127.275 370.299 128.064 370.704 128.768C371.12 129.472 371.691 130.027 372.416 130.432C373.141 130.837 373.947 131.04 374.832 131.04C376.176 131.04 377.28 130.592 378.144 129.696L378.896 130.448C378.405 130.981 377.803 131.392 377.088 131.68C376.384 131.957 375.616 132.096 374.784 132.096ZM384.125 128.256H382.205V132H381.069V123.584H382.205V127.28H384.141L387.101 123.584H388.333L385.021 127.664L388.573 132H387.229L384.125 128.256ZM393.106 123.52C394.204 123.52 395.047 123.797 395.634 124.352C396.22 124.896 396.514 125.707 396.514 126.784V132H395.426V130.688C395.17 131.125 394.791 131.467 394.29 131.712C393.799 131.957 393.212 132.08 392.53 132.08C391.591 132.08 390.844 131.856 390.29 131.408C389.735 130.96 389.458 130.368 389.458 129.632C389.458 128.917 389.714 128.341 390.226 127.904C390.748 127.467 391.575 127.248 392.706 127.248H395.378V126.736C395.378 126.011 395.175 125.461 394.77 125.088C394.364 124.704 393.772 124.512 392.994 124.512C392.46 124.512 391.948 124.603 391.458 124.784C390.967 124.955 390.546 125.195 390.194 125.504L389.682 124.656C390.108 124.293 390.62 124.016 391.218 123.824C391.815 123.621 392.444 123.52 393.106 123.52ZM392.706 131.184C393.346 131.184 393.895 131.04 394.354 130.752C394.812 130.453 395.154 130.027 395.378 129.472V128.096H392.738C391.298 128.096 390.578 128.597 390.578 129.6C390.578 130.091 390.764 130.48 391.138 130.768C391.511 131.045 392.034 131.184 392.706 131.184ZM405.89 123.584V132H404.754V128.496C403.783 128.923 402.829 129.136 401.89 129.136C400.877 129.136 400.087 128.907 399.522 128.448C398.957 127.979 398.674 127.28 398.674 126.352V123.584H399.81V126.288C399.81 126.917 400.013 127.397 400.418 127.728C400.823 128.048 401.383 128.208 402.098 128.208C402.887 128.208 403.773 128 404.754 127.584V123.584H405.89ZM412.012 123.52C413.111 123.52 413.953 123.797 414.54 124.352C415.127 124.896 415.42 125.707 415.42 126.784V132H414.332V130.688C414.076 131.125 413.697 131.467 413.196 131.712C412.705 131.957 412.119 132.08 411.436 132.08C410.497 132.08 409.751 131.856 409.196 131.408C408.641 130.96 408.364 130.368 408.364 129.632C408.364 128.917 408.62 128.341 409.132 127.904C409.655 127.467 410.481 127.248 411.612 127.248H414.284V126.736C414.284 126.011 414.081 125.461 413.676 125.088C413.271 124.704 412.679 124.512 411.9 124.512C411.367 124.512 410.855 124.603 410.364 124.784C409.873 124.955 409.452 125.195 409.1 125.504L408.588 124.656C409.015 124.293 409.527 124.016 410.124 123.824C410.721 123.621 411.351 123.52 412.012 123.52ZM411.612 131.184C412.252 131.184 412.801 131.04 413.26 130.752C413.719 130.453 414.06 130.027 414.284 129.472V128.096H411.644C410.204 128.096 409.484 128.597 409.484 129.6C409.484 130.091 409.671 130.48 410.044 130.768C410.417 131.045 410.94 131.184 411.612 131.184ZM424.364 124.592H421.18V132H420.044V124.592H416.86V123.584H424.364V124.592ZM429.623 126.56C430.679 126.571 431.479 126.805 432.023 127.264C432.577 127.723 432.855 128.384 432.855 129.248C432.855 130.144 432.556 130.832 431.959 131.312C431.372 131.792 430.519 132.027 429.399 132.016L426.007 132V123.584H427.143V126.528L429.623 126.56ZM429.335 131.152C430.113 131.163 430.7 131.008 431.095 130.688C431.5 130.357 431.703 129.877 431.703 129.248C431.703 128.629 431.505 128.171 431.111 127.872C430.716 127.573 430.124 127.419 429.335 127.408L427.143 127.376V131.12L429.335 131.152ZM444.57 127.648C445.711 127.915 446.282 128.603 446.282 129.712C446.282 130.448 446.01 131.013 445.466 131.408C444.922 131.803 444.111 132 443.034 132H439.21V123.584H442.922C443.882 123.584 444.634 123.771 445.178 124.144C445.722 124.517 445.994 125.051 445.994 125.744C445.994 126.203 445.866 126.597 445.61 126.928C445.364 127.248 445.018 127.488 444.57 127.648ZM440.314 127.328H442.842C443.492 127.328 443.988 127.205 444.33 126.96C444.682 126.715 444.858 126.357 444.858 125.888C444.858 125.419 444.682 125.067 444.33 124.832C443.988 124.597 443.492 124.48 442.842 124.48H440.314V127.328ZM442.986 131.104C443.711 131.104 444.255 130.987 444.618 130.752C444.98 130.517 445.162 130.149 445.162 129.648C445.162 129.147 444.996 128.779 444.666 128.544C444.335 128.299 443.812 128.176 443.098 128.176H440.314V131.104H442.986ZM453.34 120.8H457.9C459.084 120.8 460.129 121.04 461.036 121.52C461.942 121.989 462.646 122.651 463.148 123.504C463.649 124.347 463.9 125.312 463.9 126.4C463.9 127.488 463.649 128.459 463.148 129.312C462.646 130.155 461.942 130.816 461.036 131.296C460.129 131.765 459.084 132 457.9 132H453.34V120.8ZM457.836 130.976C458.817 130.976 459.676 130.784 460.412 130.4C461.148 130.005 461.718 129.467 462.124 128.784C462.529 128.091 462.732 127.296 462.732 126.4C462.732 125.504 462.529 124.715 462.124 124.032C461.718 123.339 461.148 122.8 460.412 122.416C459.676 122.021 458.817 121.824 457.836 121.824H454.524V130.976H457.836ZM471.454 132.096C470.345 132.096 469.337 131.851 468.43 131.36C467.534 130.859 466.83 130.176 466.318 129.312C465.817 128.448 465.566 127.477 465.566 126.4C465.566 125.323 465.817 124.352 466.318 123.488C466.83 122.624 467.534 121.947 468.43 121.456C469.337 120.955 470.345 120.704 471.454 120.704C472.564 120.704 473.561 120.949 474.446 121.44C475.342 121.931 476.046 122.613 476.558 123.488C477.07 124.352 477.326 125.323 477.326 126.4C477.326 127.477 477.07 128.453 476.558 129.328C476.046 130.192 475.342 130.869 474.446 131.36C473.561 131.851 472.564 132.096 471.454 132.096ZM471.454 131.04C472.34 131.04 473.14 130.843 473.854 130.448C474.569 130.043 475.129 129.488 475.534 128.784C475.94 128.069 476.142 127.275 476.142 126.4C476.142 125.525 475.94 124.736 475.534 124.032C475.129 123.317 474.569 122.763 473.854 122.368C473.14 121.963 472.34 121.76 471.454 121.76C470.569 121.76 469.764 121.963 469.038 122.368C468.324 122.763 467.758 123.317 467.342 124.032C466.937 124.736 466.734 125.525 466.734 126.4C466.734 127.275 466.937 128.069 467.342 128.784C467.758 129.488 468.324 130.043 469.038 130.448C469.764 130.843 470.569 131.04 471.454 131.04ZM484.94 132.096C483.831 132.096 482.828 131.851 481.932 131.36C481.047 130.869 480.348 130.192 479.836 129.328C479.335 128.453 479.084 127.477 479.084 126.4C479.084 125.323 479.335 124.352 479.836 123.488C480.348 122.613 481.052 121.931 481.948 121.44C482.844 120.949 483.847 120.704 484.956 120.704C485.788 120.704 486.556 120.843 487.26 121.12C487.964 121.397 488.562 121.803 489.052 122.336L488.3 123.088C487.426 122.203 486.322 121.76 484.988 121.76C484.103 121.76 483.298 121.963 482.572 122.368C481.847 122.773 481.276 123.328 480.86 124.032C480.455 124.736 480.252 125.525 480.252 126.4C480.252 127.275 480.455 128.064 480.86 128.768C481.276 129.472 481.847 130.027 482.572 130.432C483.298 130.837 484.103 131.04 484.988 131.04C486.332 131.04 487.436 130.592 488.3 129.696L489.052 130.448C488.562 130.981 487.959 131.392 487.244 131.68C486.54 131.957 485.772 132.096 484.94 132.096ZM498.176 132L494.56 127.072L490.96 132H489.6L493.856 126.24L489.872 120.8H491.232L494.608 125.376L497.968 120.8H499.248L495.28 126.208L499.552 132H498.176Z" fill="#2D3246"/>
<path d="M379.312 156.8V168H378.144V157.824H371.056V168H369.888V156.8H379.312ZM386.291 168.08C385.48 168.08 384.75 167.899 384.099 167.536C383.448 167.163 382.936 166.651 382.563 166C382.19 165.349 382.003 164.613 382.003 163.792C382.003 162.971 382.19 162.235 382.563 161.584C382.936 160.933 383.448 160.427 384.099 160.064C384.75 159.701 385.48 159.52 386.291 159.52C387.102 159.52 387.832 159.701 388.483 160.064C389.134 160.427 389.64 160.933 390.003 161.584C390.376 162.235 390.563 162.971 390.563 163.792C390.563 164.613 390.376 165.349 390.003 166C389.64 166.651 389.134 167.163 388.483 167.536C387.832 167.899 387.102 168.08 386.291 168.08ZM386.291 167.072C386.888 167.072 387.422 166.939 387.891 166.672C388.371 166.395 388.744 166.005 389.011 165.504C389.278 165.003 389.411 164.432 389.411 163.792C389.411 163.152 389.278 162.581 389.011 162.08C388.744 161.579 388.371 161.195 387.891 160.928C387.422 160.651 386.888 160.512 386.291 160.512C385.694 160.512 385.155 160.651 384.675 160.928C384.206 161.195 383.832 161.579 383.555 162.08C383.288 162.581 383.155 163.152 383.155 163.792C383.155 164.432 383.288 165.003 383.555 165.504C383.832 166.005 384.206 166.395 384.675 166.672C385.155 166.939 385.694 167.072 386.291 167.072ZM401.152 167.008V170.032H400.08V168H392.544V170.032H391.472V167.008H391.952C392.517 166.976 392.901 166.56 393.104 165.76C393.307 164.96 393.445 163.84 393.52 162.4L393.632 159.584H399.84V167.008H401.152ZM394.56 162.464C394.507 163.659 394.405 164.645 394.256 165.424C394.107 166.192 393.84 166.72 393.456 167.008H398.704V160.592H394.656L394.56 162.464ZM410.726 164.144H403.686C403.75 165.019 404.086 165.728 404.694 166.272C405.302 166.805 406.07 167.072 406.998 167.072C407.521 167.072 408.001 166.981 408.438 166.8C408.875 166.608 409.254 166.331 409.574 165.968L410.214 166.704C409.841 167.152 409.371 167.493 408.806 167.728C408.251 167.963 407.638 168.08 406.966 168.08C406.102 168.08 405.334 167.899 404.662 167.536C404.001 167.163 403.483 166.651 403.11 166C402.737 165.349 402.55 164.613 402.55 163.792C402.55 162.971 402.726 162.235 403.078 161.584C403.441 160.933 403.931 160.427 404.55 160.064C405.179 159.701 405.883 159.52 406.662 159.52C407.441 159.52 408.139 159.701 408.758 160.064C409.377 160.427 409.862 160.933 410.214 161.584C410.566 162.224 410.742 162.96 410.742 163.792L410.726 164.144ZM406.662 160.496C405.851 160.496 405.169 160.757 404.614 161.28C404.07 161.792 403.761 162.464 403.686 163.296H409.654C409.579 162.464 409.265 161.792 408.71 161.28C408.166 160.757 407.483 160.496 406.662 160.496ZM419.965 159.584V168H418.829V160.592H414.797L414.685 162.672C414.599 164.421 414.397 165.765 414.077 166.704C413.757 167.643 413.186 168.112 412.365 168.112C412.141 168.112 411.869 168.069 411.549 167.984L411.629 167.008C411.821 167.051 411.954 167.072 412.029 167.072C412.466 167.072 412.797 166.869 413.021 166.464C413.245 166.059 413.394 165.557 413.469 164.96C413.543 164.363 413.607 163.573 413.661 162.592L413.805 159.584H419.965ZM423.194 159.584H424.33V166.272L429.946 159.584H430.954V168H429.818V161.312L424.218 168H423.194V159.584ZM440.13 160.592H436.946V168H435.81V160.592H432.626V159.584H440.13V160.592ZM445.388 162.56C446.444 162.571 447.244 162.805 447.788 163.264C448.343 163.723 448.62 164.384 448.62 165.248C448.62 166.144 448.322 166.832 447.724 167.312C447.138 167.792 446.284 168.027 445.164 168.016L441.772 168V159.584H442.908V162.528L445.388 162.56ZM445.1 167.152C445.879 167.163 446.466 167.008 446.86 166.688C447.266 166.357 447.468 165.877 447.468 165.248C447.468 164.629 447.271 164.171 446.876 163.872C446.482 163.573 445.89 163.419 445.1 163.408L442.908 163.376V167.12L445.1 167.152ZM454.308 168.08C453.476 168.08 452.729 167.899 452.068 167.536C451.417 167.173 450.905 166.667 450.532 166.016C450.159 165.355 449.972 164.613 449.972 163.792C449.972 162.971 450.159 162.235 450.532 161.584C450.905 160.933 451.417 160.427 452.068 160.064C452.729 159.701 453.476 159.52 454.308 159.52C455.033 159.52 455.679 159.664 456.244 159.952C456.82 160.229 457.273 160.64 457.604 161.184L456.756 161.76C456.479 161.344 456.127 161.035 455.7 160.832C455.273 160.619 454.809 160.512 454.308 160.512C453.7 160.512 453.151 160.651 452.66 160.928C452.18 161.195 451.801 161.579 451.524 162.08C451.257 162.581 451.124 163.152 451.124 163.792C451.124 164.443 451.257 165.019 451.524 165.52C451.801 166.011 452.18 166.395 452.66 166.672C453.151 166.939 453.7 167.072 454.308 167.072C454.809 167.072 455.273 166.971 455.7 166.768C456.127 166.565 456.479 166.256 456.756 165.84L457.604 166.416C457.273 166.96 456.82 167.376 456.244 167.664C455.668 167.941 455.023 168.08 454.308 168.08ZM465.986 159.584V168H464.946V165.216H462.306H461.986L460.034 168H458.802L460.898 165.056C460.248 164.875 459.746 164.565 459.394 164.128C459.042 163.691 458.866 163.136 458.866 162.464C458.866 161.525 459.186 160.811 459.826 160.32C460.466 159.829 461.341 159.584 462.45 159.584H465.986ZM460.018 162.496C460.018 163.744 460.813 164.368 462.402 164.368H464.946V160.592H462.482C460.84 160.592 460.018 161.227 460.018 162.496ZM476.933 168.08C476.101 168.08 475.354 167.899 474.693 167.536C474.042 167.173 473.53 166.667 473.157 166.016C472.784 165.355 472.597 164.613 472.597 163.792C472.597 162.971 472.784 162.235 473.157 161.584C473.53 160.933 474.042 160.427 474.693 160.064C475.354 159.701 476.101 159.52 476.933 159.52C477.658 159.52 478.304 159.664 478.869 159.952C479.445 160.229 479.898 160.64 480.229 161.184L479.381 161.76C479.104 161.344 478.752 161.035 478.325 160.832C477.898 160.619 477.434 160.512 476.933 160.512C476.325 160.512 475.776 160.651 475.285 160.928C474.805 161.195 474.426 161.579 474.149 162.08C473.882 162.581 473.749 163.152 473.749 163.792C473.749 164.443 473.882 165.019 474.149 165.52C474.426 166.011 474.805 166.395 475.285 166.672C475.776 166.939 476.325 167.072 476.933 167.072C477.434 167.072 477.898 166.971 478.325 166.768C478.752 166.565 479.104 166.256 479.381 165.84L480.229 166.416C479.898 166.96 479.445 167.376 478.869 167.664C478.293 167.941 477.648 168.08 476.933 168.08ZM485.808 168.08C484.976 168.08 484.229 167.899 483.568 167.536C482.917 167.173 482.405 166.667 482.032 166.016C481.659 165.355 481.472 164.613 481.472 163.792C481.472 162.971 481.659 162.235 482.032 161.584C482.405 160.933 482.917 160.427 483.568 160.064C484.229 159.701 484.976 159.52 485.808 159.52C486.533 159.52 487.179 159.664 487.744 159.952C488.32 160.229 488.773 160.64 489.104 161.184L488.256 161.76C487.979 161.344 487.627 161.035 487.2 160.832C486.773 160.619 486.309 160.512 485.808 160.512C485.2 160.512 484.651 160.651 484.16 160.928C483.68 161.195 483.301 161.579 483.024 162.08C482.757 162.581 482.624 163.152 482.624 163.792C482.624 164.443 482.757 165.019 483.024 165.52C483.301 166.011 483.68 166.395 484.16 166.672C484.651 166.939 485.2 167.072 485.808 167.072C486.309 167.072 486.773 166.971 487.2 166.768C487.627 166.565 487.979 166.256 488.256 165.84L489.104 166.416C488.773 166.96 488.32 167.376 487.744 167.664C487.168 167.941 486.523 168.08 485.808 168.08ZM494.84 162.56C495.896 162.571 496.701 162.805 497.256 163.264C497.81 163.723 498.088 164.384 498.088 165.248C498.088 166.144 497.789 166.832 497.192 167.312C496.594 167.792 495.741 168.027 494.632 168.016L491.304 168V159.584H492.44V162.528L494.84 162.56ZM499.496 159.584H500.632V168H499.496V159.584ZM494.568 167.152C495.346 167.163 495.933 167.008 496.328 166.688C496.733 166.357 496.936 165.877 496.936 165.248C496.936 164.629 496.738 164.171 496.344 163.872C495.949 163.573 495.357 163.419 494.568 163.408L492.44 163.376V167.12L494.568 167.152ZM510.746 159.584V168H509.61V160.592H505.578L505.466 162.672C505.381 164.421 505.178 165.765 504.858 166.704C504.538 167.643 503.967 168.112 503.146 168.112C502.922 168.112 502.65 168.069 502.33 167.984L502.41 167.008C502.602 167.051 502.735 167.072 502.81 167.072C503.247 167.072 503.578 166.869 503.802 166.464C504.026 166.059 504.175 165.557 504.25 164.96C504.325 164.363 504.389 163.573 504.442 162.592L504.586 159.584H510.746ZM517.031 164.256H515.111V168H513.975V159.584H515.111V163.28H517.047L520.007 159.584H521.239L517.927 163.664L521.479 168H520.135L517.031 164.256ZM526.447 168.08C525.637 168.08 524.906 167.899 524.255 167.536C523.605 167.163 523.093 166.651 522.719 166C522.346 165.349 522.159 164.613 522.159 163.792C522.159 162.971 522.346 162.235 522.719 161.584C523.093 160.933 523.605 160.427 524.255 160.064C524.906 159.701 525.637 159.52 526.447 159.52C527.258 159.52 527.989 159.701 528.639 160.064C529.29 160.427 529.797 160.933 530.159 161.584C530.533 162.235 530.719 162.971 530.719 163.792C530.719 164.613 530.533 165.349 530.159 166C529.797 166.651 529.29 167.163 528.639 167.536C527.989 167.899 527.258 168.08 526.447 168.08ZM526.447 167.072C527.045 167.072 527.578 166.939 528.047 166.672C528.527 166.395 528.901 166.005 529.167 165.504C529.434 165.003 529.567 164.432 529.567 163.792C529.567 163.152 529.434 162.581 529.167 162.08C528.901 161.579 528.527 161.195 528.047 160.928C527.578 160.651 527.045 160.512 526.447 160.512C525.85 160.512 525.311 160.651 524.831 160.928C524.362 161.195 523.989 161.579 523.711 162.08C523.445 162.581 523.311 163.152 523.311 163.792C523.311 164.432 523.445 165.003 523.711 165.504C523.989 166.005 524.362 166.395 524.831 166.672C525.311 166.939 525.85 167.072 526.447 167.072ZM533.147 159.584H534.283V166.272L539.899 159.584H540.907V168H539.771V161.312L534.171 168H533.147V159.584ZM536.971 158.368C536.246 158.368 535.67 158.187 535.243 157.824C534.817 157.461 534.598 156.949 534.587 156.288H535.403C535.414 156.704 535.563 157.04 535.851 157.296C536.139 157.541 536.513 157.664 536.971 157.664C537.43 157.664 537.803 157.541 538.091 157.296C538.39 157.04 538.545 156.704 538.555 156.288H539.371C539.361 156.949 539.137 157.461 538.699 157.824C538.273 158.187 537.697 158.368 536.971 158.368Z" fill="#2D3246"/>
<path d="M374.8 204.096C373.691 204.096 372.683 203.851 371.776 203.36C370.88 202.859 370.176 202.176 369.664 201.312C369.163 200.448 368.912 199.477 368.912 198.4C368.912 197.323 369.163 196.352 369.664 195.488C370.176 194.624 370.88 193.947 371.776 193.456C372.683 192.955 373.691 192.704 374.8 192.704C375.909 192.704 376.907 192.949 377.792 193.44C378.688 193.931 379.392 194.613 379.904 195.488C380.416 196.352 380.672 197.323 380.672 198.4C380.672 199.477 380.416 200.453 379.904 201.328C379.392 202.192 378.688 202.869 377.792 203.36C376.907 203.851 375.909 204.096 374.8 204.096ZM374.8 203.04C375.685 203.04 376.485 202.843 377.2 202.448C377.915 202.043 378.475 201.488 378.88 200.784C379.285 200.069 379.488 199.275 379.488 198.4C379.488 197.525 379.285 196.736 378.88 196.032C378.475 195.317 377.915 194.763 377.2 194.368C376.485 193.963 375.685 193.76 374.8 193.76C373.915 193.76 373.109 193.963 372.384 194.368C371.669 194.763 371.104 195.317 370.688 196.032C370.283 196.736 370.08 197.525 370.08 198.4C370.08 199.275 370.283 200.069 370.688 200.784C371.104 201.488 371.669 202.043 372.384 202.448C373.109 202.843 373.915 203.04 374.8 203.04ZM388.911 196.592H385.727V204H384.591V196.592H381.407V195.584H388.911V196.592ZM398.106 195.584V204H396.97V196.592H391.69V204H390.554V195.584H398.106ZM405.671 195.52C406.46 195.52 407.175 195.701 407.815 196.064C408.455 196.416 408.956 196.917 409.319 197.568C409.681 198.219 409.863 198.96 409.863 199.792C409.863 200.635 409.681 201.381 409.319 202.032C408.956 202.683 408.455 203.189 407.815 203.552C407.185 203.904 406.471 204.08 405.671 204.08C404.988 204.08 404.369 203.941 403.815 203.664C403.271 203.376 402.823 202.96 402.471 202.416V207.104H401.335V195.584H402.423V197.248C402.764 196.693 403.212 196.267 403.767 195.968C404.332 195.669 404.967 195.52 405.671 195.52ZM405.591 203.072C406.177 203.072 406.711 202.939 407.191 202.672C407.671 202.395 408.044 202.005 408.311 201.504C408.588 201.003 408.727 200.432 408.727 199.792C408.727 199.152 408.588 198.587 408.311 198.096C408.044 197.595 407.671 197.205 407.191 196.928C406.711 196.651 406.177 196.512 405.591 196.512C404.993 196.512 404.455 196.651 403.975 196.928C403.505 197.205 403.132 197.595 402.855 198.096C402.588 198.587 402.455 199.152 402.455 199.792C402.455 200.432 402.588 201.003 402.855 201.504C403.132 202.005 403.505 202.395 403.975 202.672C404.455 202.939 404.993 203.072 405.591 203.072ZM415.153 195.52C416.251 195.52 417.094 195.797 417.681 196.352C418.267 196.896 418.561 197.707 418.561 198.784V204H417.473V202.688C417.217 203.125 416.838 203.467 416.337 203.712C415.846 203.957 415.259 204.08 414.577 204.08C413.638 204.08 412.891 203.856 412.337 203.408C411.782 202.96 411.505 202.368 411.505 201.632C411.505 200.917 411.761 200.341 412.273 199.904C412.795 199.467 413.622 199.248 414.753 199.248H417.425V198.736C417.425 198.011 417.222 197.461 416.817 197.088C416.411 196.704 415.819 196.512 415.041 196.512C414.507 196.512 413.995 196.603 413.505 196.784C413.014 196.955 412.593 197.195 412.241 197.504L411.729 196.656C412.155 196.293 412.667 196.016 413.265 195.824C413.862 195.621 414.491 195.52 415.153 195.52ZM414.753 203.184C415.393 203.184 415.942 203.04 416.401 202.752C416.859 202.453 417.201 202.027 417.425 201.472V200.096H414.785C413.345 200.096 412.625 200.597 412.625 201.6C412.625 202.091 412.811 202.48 413.185 202.768C413.558 203.045 414.081 203.184 414.753 203.184ZM426.945 199.648C428.086 199.915 428.657 200.603 428.657 201.712C428.657 202.448 428.385 203.013 427.841 203.408C427.297 203.803 426.486 204 425.409 204H421.585V195.584H425.297C426.257 195.584 427.009 195.771 427.553 196.144C428.097 196.517 428.369 197.051 428.369 197.744C428.369 198.203 428.241 198.597 427.985 198.928C427.739 199.248 427.393 199.488 426.945 199.648ZM422.689 199.328H425.217C425.867 199.328 426.363 199.205 426.705 198.96C427.057 198.715 427.233 198.357 427.233 197.888C427.233 197.419 427.057 197.067 426.705 196.832C426.363 196.597 425.867 196.48 425.217 196.48H422.689V199.328ZM425.361 203.104C426.086 203.104 426.63 202.987 426.993 202.752C427.355 202.517 427.537 202.149 427.537 201.648C427.537 201.147 427.371 200.779 427.041 200.544C426.71 200.299 426.187 200.176 425.473 200.176H422.689V203.104H425.361ZM431.319 195.584H432.455V202.272L438.071 195.584H439.079V204H437.943V197.312L432.343 204H431.319V195.584ZM448.255 196.592H445.071V204H443.935V196.592H440.751V195.584H448.255V196.592ZM453.513 198.56C454.569 198.571 455.369 198.805 455.913 199.264C456.468 199.723 456.745 200.384 456.745 201.248C456.745 202.144 456.447 202.832 455.849 203.312C455.263 203.792 454.409 204.027 453.289 204.016L449.897 204V195.584H451.033V198.528L453.513 198.56ZM453.225 203.152C454.004 203.163 454.591 203.008 454.985 202.688C455.391 202.357 455.593 201.877 455.593 201.248C455.593 200.629 455.396 200.171 455.001 199.872C454.607 199.573 454.015 199.419 453.225 199.408L451.033 199.376V203.12L453.225 203.152ZM472.668 192.8V204H471.5V198.832H464.492V204H463.308V192.8H464.492V197.792H471.5V192.8H472.668ZM483.972 204L481.412 200.4C481.124 200.432 480.825 200.448 480.516 200.448H477.508V204H476.324V192.8H480.516C481.945 192.8 483.065 193.141 483.876 193.824C484.687 194.507 485.092 195.445 485.092 196.64C485.092 197.515 484.868 198.256 484.42 198.864C483.983 199.461 483.353 199.893 482.532 200.16L485.268 204H483.972ZM480.484 199.44C481.593 199.44 482.441 199.195 483.028 198.704C483.615 198.213 483.908 197.525 483.908 196.64C483.908 195.733 483.615 195.04 483.028 194.56C482.441 194.069 481.593 193.824 480.484 193.824H477.508V199.44H480.484ZM494.154 195.52C494.997 195.52 495.754 195.707 496.426 196.08C497.109 196.443 497.642 196.949 498.026 197.6C498.421 198.251 498.618 198.981 498.618 199.792C498.618 200.603 498.421 201.339 498.026 202C497.642 202.651 497.109 203.163 496.426 203.536C495.754 203.909 494.997 204.096 494.154 204.096C493.45 204.096 492.805 203.989 492.218 203.776C491.631 203.552 491.135 203.232 490.73 202.816L491.402 202.144C492.117 202.816 493.018 203.152 494.106 203.152C494.714 203.152 495.263 203.024 495.754 202.768C496.255 202.512 496.661 202.155 496.97 201.696C497.29 201.237 497.477 200.725 497.53 200.16H493.034V199.296H497.514C497.397 198.453 497.023 197.771 496.394 197.248C495.765 196.715 495.002 196.448 494.106 196.448C493.018 196.448 492.117 196.784 491.402 197.456L490.73 196.8C491.135 196.384 491.631 196.069 492.218 195.856C492.805 195.632 493.45 195.52 494.154 195.52ZM504.063 200.256H502.143V204H501.007V195.584H502.143V199.28H504.079L507.039 195.584H508.271L504.959 199.664L508.511 204H507.167L504.063 200.256ZM513.527 204.08C512.695 204.08 511.948 203.899 511.287 203.536C510.636 203.173 510.124 202.667 509.751 202.016C509.377 201.355 509.191 200.613 509.191 199.792C509.191 198.971 509.377 198.235 509.751 197.584C510.124 196.933 510.636 196.427 511.287 196.064C511.948 195.701 512.695 195.52 513.527 195.52C514.252 195.52 514.897 195.664 515.463 195.952C516.039 196.229 516.492 196.64 516.823 197.184L515.975 197.76C515.697 197.344 515.345 197.035 514.919 196.832C514.492 196.619 514.028 196.512 513.527 196.512C512.919 196.512 512.369 196.651 511.879 196.928C511.399 197.195 511.02 197.579 510.743 198.08C510.476 198.581 510.343 199.152 510.343 199.792C510.343 200.443 510.476 201.019 510.743 201.52C511.02 202.011 511.399 202.395 511.879 202.672C512.369 202.939 512.919 203.072 513.527 203.072C514.028 203.072 514.492 202.971 514.919 202.768C515.345 202.565 515.697 202.256 515.975 201.84L516.823 202.416C516.492 202.96 516.039 203.376 515.463 203.664C514.887 203.941 514.241 204.08 513.527 204.08ZM526.574 195.584V204H525.438V196.592H520.158V204H519.022V195.584H526.574ZM537.164 200.144H530.124C530.188 201.019 530.524 201.728 531.132 202.272C531.74 202.805 532.508 203.072 533.436 203.072C533.958 203.072 534.438 202.981 534.876 202.8C535.313 202.608 535.692 202.331 536.012 201.968L536.652 202.704C536.278 203.152 535.809 203.493 535.244 203.728C534.689 203.963 534.076 204.08 533.404 204.08C532.54 204.08 531.772 203.899 531.1 203.536C530.438 203.163 529.921 202.651 529.548 202C529.174 201.349 528.988 200.613 528.988 199.792C528.988 198.971 529.164 198.235 529.516 197.584C529.878 196.933 530.369 196.427 530.988 196.064C531.617 195.701 532.321 195.52 533.1 195.52C533.878 195.52 534.577 195.701 535.196 196.064C535.814 196.427 536.3 196.933 536.652 197.584C537.004 198.224 537.18 198.96 537.18 199.792L537.164 200.144ZM533.1 196.496C532.289 196.496 531.606 196.757 531.052 197.28C530.508 197.792 530.198 198.464 530.124 199.296H536.092C536.017 198.464 535.702 197.792 535.148 197.28C534.604 196.757 533.921 196.496 533.1 196.496ZM544.03 195.52C544.819 195.52 545.534 195.701 546.174 196.064C546.814 196.416 547.315 196.917 547.678 197.568C548.041 198.219 548.222 198.96 548.222 199.792C548.222 200.635 548.041 201.381 547.678 202.032C547.315 202.683 546.814 203.189 546.174 203.552C545.545 203.904 544.83 204.08 544.03 204.08C543.347 204.08 542.729 203.941 542.174 203.664C541.63 203.376 541.182 202.96 540.83 202.416V207.104H539.694V195.584H540.782V197.248C541.123 196.693 541.571 196.267 542.126 195.968C542.691 195.669 543.326 195.52 544.03 195.52ZM543.95 203.072C544.537 203.072 545.07 202.939 545.55 202.672C546.03 202.395 546.403 202.005 546.67 201.504C546.947 201.003 547.086 200.432 547.086 199.792C547.086 199.152 546.947 198.587 546.67 198.096C546.403 197.595 546.03 197.205 545.55 196.928C545.07 196.651 544.537 196.512 543.95 196.512C543.353 196.512 542.814 196.651 542.334 196.928C541.865 197.205 541.491 197.595 541.214 198.096C540.947 198.587 540.814 199.152 540.814 199.792C540.814 200.432 540.947 201.003 541.214 201.504C541.491 202.005 541.865 202.395 542.334 202.672C542.814 202.939 543.353 203.072 543.95 203.072ZM556.27 196.592H553.086V204H551.95V196.592H548.766V195.584H556.27V196.592ZM565.096 195.584L560.888 205.008C560.547 205.797 560.152 206.357 559.704 206.688C559.256 207.019 558.717 207.184 558.088 207.184C557.683 207.184 557.304 207.12 556.952 206.992C556.6 206.864 556.296 206.672 556.04 206.416L556.568 205.568C556.995 205.995 557.507 206.208 558.104 206.208C558.488 206.208 558.813 206.101 559.08 205.888C559.357 205.675 559.613 205.312 559.848 204.8L560.216 203.984L556.456 195.584H557.64L560.808 202.736L563.976 195.584H565.096Z" fill="#2D3246"/>
<rect x="385" width="217.889" height="53" rx="7.36111" fill="#3B48D1"/>
<path d="M427.174 33.136C425.984 33.136 424.907 32.8753 423.944 32.354C422.992 31.8213 422.244 31.096 421.7 30.178C421.156 29.2487 420.884 28.206 420.884 27.05C420.884 25.894 421.156 24.857 421.7 23.939C422.244 23.0097 422.998 22.2843 423.961 21.763C424.924 21.2303 426.001 20.964 427.191 20.964C428.12 20.964 428.97 21.1227 429.741 21.44C430.512 21.746 431.169 22.205 431.713 22.817L430.608 23.888C429.713 22.9473 428.596 22.477 427.259 22.477C426.375 22.477 425.576 22.6753 424.862 23.072C424.148 23.4687 423.587 24.0183 423.179 24.721C422.782 25.4123 422.584 26.1887 422.584 27.05C422.584 27.9113 422.782 28.6933 423.179 29.396C423.587 30.0873 424.148 30.6313 424.862 31.028C425.576 31.4247 426.375 31.623 427.259 31.623C428.585 31.623 429.701 31.147 430.608 30.195L431.713 31.266C431.169 31.878 430.506 32.3427 429.724 32.66C428.953 32.9773 428.103 33.136 427.174 33.136ZM438.203 27.764H435.721V33H434.055V21.1H435.721V26.268H438.237L441.977 21.1H443.796L439.546 26.863L444 33H442.062L438.203 27.764ZM453.312 30.025H446.988L445.679 33H443.928L449.317 21.1H451L456.406 33H454.621L453.312 30.025ZM452.717 28.665L450.15 22.834L447.583 28.665H452.717ZM466.452 21.1V33H464.769V28.291C463.511 28.7783 462.349 29.022 461.284 29.022C459.833 29.022 458.706 28.6707 457.901 27.968C457.108 27.2653 456.711 26.2623 456.711 24.959V21.1H458.377V24.772C458.377 25.656 458.643 26.336 459.176 26.812C459.72 27.288 460.485 27.526 461.471 27.526C462.57 27.526 463.67 27.2767 464.769 26.778V21.1H466.452ZM477.899 30.025H471.575L470.266 33H468.515L473.904 21.1H475.587L480.993 33H479.208L477.899 30.025ZM477.304 28.665L474.737 22.834L472.17 28.665H477.304ZM490.626 22.579H486.546V33H484.88V22.579H480.817V21.1H490.626V22.579ZM497.911 25.248C499.328 25.248 500.41 25.5653 501.158 26.2C501.917 26.8347 502.297 27.7697 502.297 29.005C502.297 30.3083 501.889 31.3 501.073 31.98C500.268 32.66 499.112 33 497.605 33H492.692V21.1H494.375V25.248H497.911ZM497.537 31.657C498.523 31.657 499.277 31.436 499.798 30.994C500.331 30.5407 500.597 29.889 500.597 29.039C500.597 27.407 499.577 26.591 497.537 26.591H494.375V31.657H497.537Z" fill="white"/>
<path d="M533.694 52.2639V0.736111C533.694 0.329568 533.365 0 532.958 0C532.552 0 532.222 0.329569 532.222 0.736111V52.2639C532.222 52.6704 532.552 53 532.958 53C533.365 53 533.694 52.6704 533.694 52.2639Z" fill="#959DEF"/>
<path d="M566.083 38.2772C564.457 38.2772 563.139 36.959 563.139 35.3328C563.139 33.7066 564.457 32.3883 566.083 32.3883C567.709 32.3883 569.028 33.7066 569.028 35.3328C569.028 36.959 567.709 38.2772 566.083 38.2772ZM566.083 29.4439C564.457 29.4439 563.139 28.1256 563.139 26.4995C563.139 24.8733 564.457 23.555 566.083 23.555C567.709 23.555 569.028 24.8733 569.028 26.4995C569.028 27.2804 568.717 28.0293 568.165 28.5815C567.613 29.1337 566.864 29.4439 566.083 29.4439ZM566.083 20.6106C564.457 20.6106 563.139 19.2923 563.139 17.6661C563.139 16.04 564.457 14.7217 566.083 14.7217C567.709 14.7217 569.028 16.04 569.028 17.6661C569.028 18.447 568.717 19.196 568.165 19.7482C567.613 20.3004 566.864 20.6106 566.083 20.6106Z" fill="white"/>
<path d="M581.884 78.261V74.3479H580.142V70.8697H578.401V67.3914H576.66V63.4784H574.483V61.7393H572.741V58.261H576.66V60.0001H578.401V65.2175H580.142V41.7393H583.625V58.261H585.366V50.8697H589.284V58.261H591.026V52.6088H594.508V60.0001H596.25V54.348H598.426V56.5219H600.168V69.1306H598.426V74.3479H596.25V78.261H581.884Z" fill="white"/>
<path d="M580.142 80V74.3478H578.401V70.8696H576.659V67.3913H574.483V63.4783H572.741V61.7391H571V56.5217H576.659V58.2609H578.401V41.7391H580.142V40H583.625V41.7391H585.366V49.1304H589.284V50.8696H594.508V52.6087H598.426V54.3478H600.168V56.5217H601.909V69.1304H600.168V74.3478H598.426V80H580.142ZM596.25 78.2609V74.3478H598.426V69.1304H600.168V56.5217H598.426V54.3478H596.25V60H594.508V52.6087H591.026V58.2609H589.284V50.8696H585.366V58.2609H583.625V41.7391H580.142V65.2174H578.401V60H576.659V58.2609H572.741V61.7391H574.483V63.4783H576.659V67.3913H578.401V70.8696H580.142V74.3478H581.883V78.2609H596.25Z" fill="#2D3246"/>
<defs>
<filter id="filter0_d" x="327" y="63" width="287" height="189" filterUnits="userSpaceOnUse" color-interpolation-filters="sRGB">
<feFlood flood-opacity="0" result="BackgroundImageFix"/>
<feColorMatrix in="SourceAlpha" type="matrix" values="0 0 0 0 0 0 0 0 0 0 0 0 0 0 0 0 0 0 127 0"/>
<feMorphology radius="25" operator="erode" in="SourceAlpha" result="effect1_dropShadow"/>
<feOffset dy="17"/>
<feGaussianBlur stdDeviation="18"/>
<feColorMatrix type="matrix" values="0 0 0 0 0.481597 0 0 0 0 0.517808 0 0 0 0 0.608333 0 0 0 0.65 0"/>
<feBlend mode="normal" in2="BackgroundImageFix" result="effect1_dropShadow"/>
<feBlend mode="normal" in="SourceGraphic" in2="effect1_dropShadow" result="shape"/>
</filter>
</defs>
</svg>
