<svg width="623" height="478" viewBox="0 0 623 478" fill="none" xmlns="http://www.w3.org/2000/svg">
<rect width="352" height="477.955" rx="11.246" fill="white"/>
<rect x="22.4921" y="29.2397" width="44.984" height="44.984" rx="5.623" fill="#D0D6E5"/>
<rect x="83.2205" y="39.3608" width="232.792" height="11.246" rx="2.2492" fill="#D0D6E5"/>
<rect x="83.2205" y="57.3545" width="169.815" height="6.7476" rx="2.2492" fill="#D0D6E5"/>
<rect x="22.4921" y="211.425" width="169.815" height="6.7476" rx="2.2492" fill="#D0D6E5"/>
<rect x="22.4921" y="222.671" width="96.7157" height="5.623" rx="2.2492" fill="#D0D6E5"/>
<rect x="31.4888" y="242.914" width="59.6038" height="3.3738" rx="1.6869" fill="#D0D6E5"/>
<rect x="22.4921" y="242.914" width="3.3738" height="3.3738" rx="1.6869" fill="#D0D6E5"/>
<rect x="31.4888" y="250.786" width="59.6038" height="3.3738" rx="1.6869" fill="#D0D6E5"/>
<rect x="22.4921" y="250.786" width="3.3738" height="3.3738" rx="1.6869" fill="#D0D6E5"/>
<rect x="31.4888" y="258.658" width="59.6038" height="3.3738" rx="1.6869" fill="#D0D6E5"/>
<rect x="22.4921" y="258.658" width="3.3738" height="3.3738" rx="1.6869" fill="#D0D6E5"/>
<rect x="22.4921" y="273.278" width="169.815" height="6.7476" rx="2.2492" fill="#D0D6E5"/>
<rect x="22.4921" y="284.524" width="96.7157" height="5.623" rx="2.2492" fill="#D0D6E5"/>
<rect x="31.4888" y="304.767" width="59.6038" height="3.3738" rx="1.6869" fill="#D0D6E5"/>
<rect x="22.4921" y="304.767" width="3.3738" height="3.3738" rx="1.6869" fill="#D0D6E5"/>
<rect x="31.4888" y="312.639" width="59.6038" height="3.3738" rx="1.6869" fill="#D0D6E5"/>
<rect x="22.4921" y="312.639" width="3.3738" height="3.3738" rx="1.6869" fill="#D0D6E5"/>
<rect x="31.4888" y="320.511" width="59.6038" height="3.3738" rx="1.6869" fill="#D0D6E5"/>
<rect x="22.4921" y="320.511" width="3.3738" height="3.3738" rx="1.6869" fill="#D0D6E5"/>
<path d="M27.2266 202.317C26.4094 202.317 25.6709 202.141 25.0112 201.789C24.3589 201.436 23.8453 200.953 23.4705 200.338C23.1031 199.716 22.9194 199.018 22.9194 198.246C22.9194 197.474 23.1031 196.78 23.4705 196.166C23.8453 195.543 24.3589 195.056 25.0112 194.704C25.6709 194.351 26.4094 194.175 27.2266 194.175C28.0438 194.175 28.7786 194.351 29.4309 194.704C30.0831 195.056 30.5967 195.543 30.9716 196.166C31.3464 196.78 31.5339 197.474 31.5339 198.246C31.5339 199.018 31.3464 199.716 30.9716 200.338C30.5967 200.953 30.0831 201.436 29.4309 201.789C28.7786 202.141 28.0438 202.317 27.2266 202.317ZM27.2266 200.765C27.6915 200.765 28.1113 200.66 28.4862 200.45C28.8611 200.233 29.1534 199.933 29.3634 199.551C29.5808 199.168 29.6895 198.733 29.6895 198.246C29.6895 197.759 29.5808 197.324 29.3634 196.941C29.1534 196.559 28.8611 196.263 28.4862 196.053C28.1113 195.836 27.6915 195.727 27.2266 195.727C26.7618 195.727 26.3419 195.836 25.9671 196.053C25.5922 196.263 25.2961 196.559 25.0786 196.941C24.8687 197.324 24.7638 197.759 24.7638 198.246C24.7638 198.733 24.8687 199.168 25.0786 199.551C25.2961 199.933 25.5922 200.233 25.9671 200.45C26.3419 200.66 26.7618 200.765 27.2266 200.765ZM36.2999 196.548C36.8772 196.548 37.3832 196.668 37.8181 196.908C38.2529 197.14 38.5866 197.47 38.819 197.897C39.0589 198.325 39.1789 198.82 39.1789 199.382C39.1789 199.959 39.0364 200.473 38.7515 200.923C38.4741 201.365 38.0842 201.71 37.5819 201.957C37.0796 202.197 36.5098 202.317 35.8725 202.317C34.8154 202.317 33.9832 201.98 33.3759 201.305C32.7761 200.623 32.4762 199.626 32.4762 198.314C32.4762 197.099 32.7386 196.132 33.2635 195.412C33.7958 194.685 34.6092 194.209 35.7038 193.984L38.5828 193.41L38.819 194.917L36.2774 195.423C35.5876 195.558 35.0741 195.783 34.7367 196.098C34.4068 196.413 34.2119 196.859 34.1519 197.436C34.4143 197.151 34.7292 196.934 35.0966 196.784C35.4639 196.627 35.865 196.548 36.2999 196.548ZM35.8838 200.956C36.3336 200.956 36.6935 200.81 36.9634 200.518C37.2408 200.225 37.3795 199.854 37.3795 199.404C37.3795 198.947 37.2408 198.583 36.9634 198.314C36.6935 198.044 36.3336 197.909 35.8838 197.909C35.4264 197.909 35.0591 198.044 34.7817 198.314C34.5043 198.583 34.3656 198.947 34.3656 199.404C34.3656 199.862 34.508 200.237 34.7929 200.529C35.0778 200.814 35.4414 200.956 35.8838 200.956ZM43.9342 196.042C44.4965 196.042 45.0064 196.173 45.4637 196.435C45.9285 196.69 46.2922 197.054 46.5546 197.526C46.817 197.991 46.9482 198.535 46.9482 199.157C46.9482 199.779 46.817 200.327 46.5546 200.799C46.2922 201.264 45.9285 201.627 45.4637 201.89C45.0064 202.145 44.4965 202.272 43.9342 202.272C43.162 202.272 42.5547 202.028 42.1124 201.541V204.364H40.358V196.132H42.0337V196.829C42.4685 196.304 43.102 196.042 43.9342 196.042ZM43.6306 200.833C44.0804 200.833 44.4478 200.683 44.7327 200.383C45.0251 200.075 45.1713 199.667 45.1713 199.157C45.1713 198.647 45.0251 198.242 44.7327 197.942C44.4478 197.635 44.0804 197.481 43.6306 197.481C43.1808 197.481 42.8096 197.635 42.5172 197.942C42.2323 198.242 42.0899 198.647 42.0899 199.157C42.0899 199.667 42.2323 200.075 42.5172 200.383C42.8096 200.683 43.1808 200.833 43.6306 200.833ZM50.4293 196.042C51.3665 196.042 52.0863 196.267 52.5886 196.717C53.0909 197.159 53.3421 197.83 53.3421 198.73V202.182H51.7001V201.429C51.3703 201.991 50.7555 202.272 49.8558 202.272C49.391 202.272 48.9861 202.193 48.6412 202.036C48.3038 201.878 48.0452 201.661 47.8653 201.384C47.6853 201.106 47.5953 200.791 47.5953 200.439C47.5953 199.877 47.8053 199.434 48.2251 199.112C48.6525 198.79 49.3085 198.628 50.1932 198.628H51.5877C51.5877 198.246 51.4715 197.954 51.2391 197.751C51.0066 197.541 50.658 197.436 50.1932 197.436C49.8708 197.436 49.5522 197.489 49.2373 197.594C48.9299 197.691 48.6675 197.826 48.45 197.999L47.8203 196.773C48.1502 196.54 48.5438 196.36 49.0011 196.233C49.4659 196.106 49.942 196.042 50.4293 196.042ZM50.2944 201.091C50.5943 201.091 50.8604 201.024 51.0929 200.889C51.3253 200.746 51.4902 200.54 51.5877 200.27V199.652H50.3844C49.6646 199.652 49.3047 199.888 49.3047 200.36C49.3047 200.585 49.391 200.765 49.5634 200.9C49.7433 201.028 49.987 201.091 50.2944 201.091ZM58.736 199.033C59.0959 199.146 59.3733 199.318 59.5682 199.551C59.7706 199.783 59.8719 200.06 59.8719 200.383C59.8719 200.765 59.7407 201.103 59.4782 201.395C59.2158 201.68 58.856 201.901 58.3986 202.058C57.9413 202.216 57.424 202.295 56.8467 202.295C56.3744 202.295 55.9095 202.246 55.4522 202.148C54.9948 202.051 54.5712 201.905 54.1814 201.71L54.6537 200.484C55.291 200.791 55.9957 200.945 56.768 200.945C57.1803 200.945 57.5027 200.885 57.7351 200.765C57.975 200.638 58.095 200.461 58.095 200.237C58.095 200.042 58.0125 199.895 57.8476 199.798C57.6826 199.693 57.4427 199.641 57.1278 199.641H55.8908V198.55H56.9704C57.2778 198.55 57.5139 198.501 57.6789 198.403C57.8438 198.306 57.9263 198.164 57.9263 197.976C57.9263 197.781 57.8213 197.631 57.6114 197.526C57.409 197.421 57.1166 197.369 56.7342 197.369C56.1494 197.369 55.5122 197.508 54.8224 197.785L54.3951 196.57C55.2348 196.203 56.052 196.019 56.8467 196.019C57.394 196.019 57.8813 196.087 58.3087 196.222C58.7435 196.357 59.0846 196.555 59.332 196.818C59.5795 197.073 59.7032 197.373 59.7032 197.717C59.7032 198.002 59.6169 198.261 59.4445 198.493C59.2721 198.718 59.0359 198.898 58.736 199.033ZM63.982 202.272C63.3447 202.272 62.7712 202.141 62.2614 201.878C61.759 201.609 61.3654 201.237 61.0805 200.765C60.7956 200.293 60.6532 199.757 60.6532 199.157C60.6532 198.557 60.7956 198.021 61.0805 197.549C61.3654 197.076 61.759 196.709 62.2614 196.447C62.7712 196.177 63.3447 196.042 63.982 196.042C64.6193 196.042 65.1891 196.177 65.6914 196.447C66.1937 196.709 66.5873 197.076 66.8722 197.549C67.1571 198.021 67.2996 198.557 67.2996 199.157C67.2996 199.757 67.1571 200.293 66.8722 200.765C66.5873 201.237 66.1937 201.609 65.6914 201.878C65.1891 202.141 64.6193 202.272 63.982 202.272ZM63.982 200.833C64.4318 200.833 64.7992 200.683 65.0841 200.383C65.3765 200.075 65.5227 199.667 65.5227 199.157C65.5227 198.647 65.3765 198.242 65.0841 197.942C64.7992 197.635 64.4318 197.481 63.982 197.481C63.5322 197.481 63.1611 197.635 62.8687 197.942C62.5763 198.242 62.4301 198.647 62.4301 199.157C62.4301 199.667 62.5763 200.075 62.8687 200.383C63.1611 200.683 63.5322 200.833 63.982 200.833ZM73.1284 199.022C73.8406 199.262 74.1967 199.742 74.1967 200.461C74.1967 201.009 73.9905 201.432 73.5782 201.732C73.1658 202.032 72.5511 202.182 71.7338 202.182H68.5062V196.132H71.5989C72.3561 196.132 72.9484 196.27 73.3758 196.548C73.8031 196.818 74.0168 197.2 74.0168 197.695C74.0168 197.995 73.9381 198.261 73.7806 198.493C73.6307 198.718 73.4133 198.895 73.1284 199.022ZM70.1144 198.617H71.4415C72.0562 198.617 72.3636 198.4 72.3636 197.965C72.3636 197.538 72.0562 197.324 71.4415 197.324H70.1144V198.617ZM71.5876 200.99C72.2324 200.99 72.5548 200.769 72.5548 200.327C72.5548 200.094 72.4798 199.925 72.3299 199.82C72.1799 199.708 71.9438 199.652 71.6214 199.652H70.1144V200.99H71.5876ZM77.8525 196.042C78.7896 196.042 79.5094 196.267 80.0117 196.717C80.514 197.159 80.7652 197.83 80.7652 198.73V202.182H79.1233V201.429C78.7934 201.991 78.1786 202.272 77.2789 202.272C76.8141 202.272 76.4092 202.193 76.0644 202.036C75.727 201.878 75.4683 201.661 75.2884 201.384C75.1084 201.106 75.0185 200.791 75.0185 200.439C75.0185 199.877 75.2284 199.434 75.6482 199.112C76.0756 198.79 76.7316 198.628 77.6163 198.628H79.0108C79.0108 198.246 78.8946 197.954 78.6622 197.751C78.4298 197.541 78.0811 197.436 77.6163 197.436C77.2939 197.436 76.9753 197.489 76.6604 197.594C76.353 197.691 76.0906 197.826 75.8732 197.999L75.2434 196.773C75.5733 196.54 75.9669 196.36 76.4242 196.233C76.8891 196.106 77.3651 196.042 77.8525 196.042ZM77.7175 201.091C78.0174 201.091 78.2836 201.024 78.516 200.889C78.7484 200.746 78.9133 200.54 79.0108 200.27V199.652H77.8075C77.0877 199.652 76.7279 199.888 76.7279 200.36C76.7279 200.585 76.8141 200.765 76.9865 200.9C77.1665 201.028 77.4101 201.091 77.7175 201.091ZM82.2892 196.132H84.0323V198.493H86.6639V196.132H88.4183V202.182H86.6639V199.922H84.0323V202.182H82.2892V196.132ZM90.0977 196.132H91.8408V199.73L94.7873 196.132H96.3955V202.182H94.6523V198.583L91.7171 202.182H90.0977V196.132ZM103.964 199.179C103.964 199.202 103.952 199.359 103.93 199.652H99.3527C99.4352 200.027 99.6301 200.323 99.9375 200.54C100.245 200.758 100.627 200.866 101.085 200.866C101.399 200.866 101.677 200.821 101.917 200.731C102.164 200.634 102.393 200.484 102.603 200.282L103.536 201.294C102.966 201.946 102.134 202.272 101.04 202.272C100.357 202.272 99.7538 202.141 99.229 201.878C98.7042 201.609 98.2993 201.237 98.0144 200.765C97.7295 200.293 97.5871 199.757 97.5871 199.157C97.5871 198.565 97.7258 198.032 98.0032 197.56C98.2881 197.08 98.6742 196.709 99.1615 196.447C99.6564 196.177 100.207 196.042 100.815 196.042C101.407 196.042 101.943 196.169 102.423 196.424C102.903 196.679 103.278 197.046 103.547 197.526C103.825 197.999 103.964 198.55 103.964 199.179ZM100.826 197.369C100.429 197.369 100.095 197.481 99.8251 197.706C99.5551 197.931 99.3902 198.239 99.3302 198.628H102.31C102.25 198.246 102.086 197.942 101.816 197.717C101.546 197.485 101.216 197.369 100.826 197.369Z" fill="#D0D6E5"/>
<rect x="22.4921" y="119.208" width="195.681" height="5.623" rx="2.2492" fill="#D0D6E5"/>
<rect x="22.4921" y="130.454" width="195.681" height="5.623" rx="2.2492" fill="#D0D6E5"/>
<rect x="22.4921" y="141.7" width="195.681" height="5.623" rx="2.2492" fill="#D0D6E5"/>
<rect x="22.4921" y="152.945" width="133.827" height="5.623" rx="2.2492" fill="#D0D6E5"/>
<path d="M27.2266 110.1C26.4094 110.1 25.6709 109.924 25.0112 109.571C24.3589 109.219 23.8453 108.735 23.4705 108.12C23.1031 107.498 22.9194 106.801 22.9194 106.029C22.9194 105.257 23.1031 104.563 23.4705 103.948C23.8453 103.326 24.3589 102.839 25.0112 102.486C25.6709 102.134 26.4094 101.958 27.2266 101.958C28.0438 101.958 28.7786 102.134 29.4309 102.486C30.0831 102.839 30.5967 103.326 30.9716 103.948C31.3464 104.563 31.5339 105.257 31.5339 106.029C31.5339 106.801 31.3464 107.498 30.9716 108.12C30.5967 108.735 30.0831 109.219 29.4309 109.571C28.7786 109.924 28.0438 110.1 27.2266 110.1ZM27.2266 108.548C27.6915 108.548 28.1113 108.443 28.4862 108.233C28.8611 108.016 29.1534 107.716 29.3634 107.333C29.5808 106.951 29.6895 106.516 29.6895 106.029C29.6895 105.541 29.5808 105.107 29.3634 104.724C29.1534 104.342 28.8611 104.046 28.4862 103.836C28.1113 103.618 27.6915 103.51 27.2266 103.51C26.7618 103.51 26.3419 103.618 25.9671 103.836C25.5922 104.046 25.2961 104.342 25.0786 104.724C24.8687 105.107 24.7638 105.541 24.7638 106.029C24.7638 106.516 24.8687 106.951 25.0786 107.333C25.2961 107.716 25.5922 108.016 25.9671 108.233C26.3419 108.443 26.7618 108.548 27.2266 108.548ZM38.8663 110.055C38.2215 110.055 37.6404 109.924 37.1231 109.661C36.6133 109.391 36.2122 109.02 35.9198 108.548C35.6349 108.076 35.4924 107.539 35.4924 106.94C35.4924 106.34 35.6349 105.804 35.9198 105.331C36.2122 104.859 36.6133 104.492 37.1231 104.229C37.6404 103.959 38.2215 103.825 38.8663 103.825C39.5035 103.825 40.0583 103.959 40.5307 104.229C41.0105 104.492 41.3591 104.87 41.5765 105.365L40.2158 106.096C39.9009 105.541 39.4473 105.264 38.855 105.264C38.3977 105.264 38.0191 105.414 37.7192 105.714C37.4193 106.014 37.2693 106.422 37.2693 106.94C37.2693 107.457 37.4193 107.866 37.7192 108.165C38.0191 108.465 38.3977 108.615 38.855 108.615C39.4548 108.615 39.9084 108.338 40.2158 107.783L41.5765 108.525C41.3591 109.005 41.0105 109.38 40.5307 109.65C40.0583 109.92 39.5035 110.055 38.8663 110.055ZM48.4474 106.962C48.4474 106.985 48.4362 107.142 48.4137 107.434H43.8365C43.919 107.809 44.1139 108.106 44.4213 108.323C44.7287 108.54 45.1111 108.649 45.5684 108.649C45.8833 108.649 46.1607 108.604 46.4006 108.514C46.648 108.417 46.8767 108.267 47.0866 108.064L48.0201 109.076C47.4503 109.729 46.6181 110.055 45.5234 110.055C44.8412 110.055 44.2377 109.924 43.7128 109.661C43.188 109.391 42.7832 109.02 42.4983 108.548C42.2134 108.076 42.0709 107.539 42.0709 106.94C42.0709 106.347 42.2096 105.815 42.487 105.343C42.7719 104.863 43.158 104.492 43.6454 104.229C44.1402 103.959 44.6912 103.825 45.2985 103.825C45.8908 103.825 46.4269 103.952 46.9067 104.207C47.3865 104.462 47.7614 104.829 48.0313 105.309C48.3087 105.781 48.4474 106.332 48.4474 106.962ZM45.3098 105.152C44.9124 105.152 44.5788 105.264 44.3089 105.489C44.039 105.714 43.874 106.021 43.8141 106.411H46.7942C46.7343 106.029 46.5693 105.725 46.2994 105.5C46.0295 105.268 45.6996 105.152 45.3098 105.152ZM53.2897 104.331C53.867 104.331 54.3731 104.451 54.8079 104.69C55.2427 104.923 55.5764 105.253 55.8088 105.68C56.0487 106.107 56.1687 106.602 56.1687 107.165C56.1687 107.742 56.0262 108.255 55.7413 108.705C55.4639 109.148 55.0741 109.493 54.5717 109.74C54.0694 109.98 53.4996 110.1 52.8623 110.1C51.8052 110.1 50.973 109.762 50.3657 109.088C49.7659 108.405 49.4661 107.408 49.4661 106.096C49.4661 104.882 49.7285 103.914 50.2533 103.195C50.7856 102.468 51.599 101.991 52.6937 101.767L55.5726 101.193L55.8088 102.7L53.2672 103.206C52.5774 103.341 52.0639 103.566 51.7265 103.881C51.3966 104.196 51.2017 104.642 51.1417 105.219C51.4041 104.934 51.719 104.717 52.0864 104.567C52.4537 104.409 52.8548 104.331 53.2897 104.331ZM52.8736 108.739C53.3234 108.739 53.6833 108.593 53.9532 108.3C54.2306 108.008 54.3693 107.637 54.3693 107.187C54.3693 106.73 54.2306 106.366 53.9532 106.096C53.6833 105.826 53.3234 105.691 52.8736 105.691C52.4163 105.691 52.0489 105.826 51.7715 106.096C51.4941 106.366 51.3554 106.73 51.3554 107.187C51.3554 107.644 51.4978 108.019 51.7827 108.312C52.0676 108.597 52.4312 108.739 52.8736 108.739ZM63.2407 106.962C63.2407 106.985 63.2295 107.142 63.207 107.434H58.6299C58.7123 107.809 58.9073 108.106 59.2147 108.323C59.5221 108.54 59.9044 108.649 60.3618 108.649C60.6766 108.649 60.954 108.604 61.194 108.514C61.4414 108.417 61.67 108.267 61.88 108.064L62.8134 109.076C62.2436 109.729 61.4114 110.055 60.3168 110.055C59.6345 110.055 59.031 109.924 58.5062 109.661C57.9814 109.391 57.5765 109.02 57.2916 108.548C57.0067 108.076 56.8643 107.539 56.8643 106.94C56.8643 106.347 57.003 105.815 57.2804 105.343C57.5653 104.863 57.9514 104.492 58.4387 104.229C58.9335 103.959 59.4846 103.825 60.0919 103.825C60.6841 103.825 61.2202 103.952 61.7 104.207C62.1799 104.462 62.5547 104.829 62.8246 105.309C63.102 105.781 63.2407 106.332 63.2407 106.962ZM60.1031 105.152C59.7057 105.152 59.3721 105.264 59.1022 105.489C58.8323 105.714 58.6674 106.021 58.6074 106.411H61.5876C61.5276 106.029 61.3627 105.725 61.0927 105.5C60.8228 105.268 60.493 105.152 60.1031 105.152Z" fill="#D0D6E5"/>
<rect x="21.3674" y="376.741" width="195.681" height="5.623" rx="2.2492" fill="#D0D6E5"/>
<rect x="21.3674" y="387.987" width="195.681" height="5.623" rx="2.2492" fill="#D0D6E5"/>
<rect x="21.3674" y="399.233" width="195.681" height="5.623" rx="2.2492" fill="#D0D6E5"/>
<rect x="21.3674" y="410.479" width="195.681" height="5.623" rx="2.2492" fill="#D0D6E5"/>
<rect x="21.3674" y="421.725" width="148.447" height="5.623" rx="2.2492" fill="#D0D6E5"/>
<path d="M26.102 367.633C25.2848 367.633 24.5463 367.457 23.8865 367.105C23.2343 366.753 22.7207 366.269 22.3458 365.654C21.9785 365.032 21.7948 364.335 21.7948 363.562C21.7948 362.79 21.9785 362.097 22.3458 361.482C22.7207 360.86 23.2343 360.372 23.8865 360.02C24.5463 359.668 25.2848 359.491 26.102 359.491C26.9192 359.491 27.6539 359.668 28.3062 360.02C28.9585 360.372 29.4721 360.86 29.8469 361.482C30.2218 362.097 30.4092 362.79 30.4092 363.562C30.4092 364.335 30.2218 365.032 29.8469 365.654C29.4721 366.269 28.9585 366.753 28.3062 367.105C27.6539 367.457 26.9192 367.633 26.102 367.633ZM26.102 366.082C26.5668 366.082 26.9867 365.977 27.3616 365.767C27.7364 365.549 28.0288 365.249 28.2387 364.867C28.4562 364.485 28.5649 364.05 28.5649 363.562C28.5649 363.075 28.4562 362.64 28.2387 362.258C28.0288 361.876 27.7364 361.579 27.3616 361.369C26.9867 361.152 26.5668 361.043 26.102 361.043C25.6372 361.043 25.2173 361.152 24.8424 361.369C24.4676 361.579 24.1714 361.876 23.954 362.258C23.7441 362.64 23.6391 363.075 23.6391 363.562C23.6391 364.05 23.7441 364.485 23.954 364.867C24.1714 365.249 24.4676 365.549 24.8424 365.767C25.2173 365.977 25.6372 366.082 26.102 366.082ZM37.6943 361.448V367.499H35.94V362.888H33.4209V367.499H31.6777V361.448H37.6943ZM42.559 363.382C43.3463 363.39 43.9423 363.566 44.3472 363.911C44.752 364.256 44.9544 364.751 44.9544 365.396C44.9544 366.07 44.7258 366.591 44.2684 366.959C43.8111 367.326 43.1626 367.51 42.3229 367.51L39.3764 367.499V361.448H41.1195V363.382H42.559ZM45.6067 361.448H47.3498V367.499H45.6067V361.448ZM42.1654 366.261C42.5028 366.269 42.7615 366.198 42.9414 366.048C43.1213 365.898 43.2113 365.673 43.2113 365.373C43.2113 365.081 43.1213 364.867 42.9414 364.732C42.769 364.597 42.5103 364.526 42.1654 364.518L41.1195 364.507V366.261H42.1654ZM54.1241 362.888H52.0774V367.499H50.3342V362.888H48.2875V361.448H54.1241V362.888ZM61.8092 361.358C62.3715 361.358 62.8813 361.489 63.3387 361.752C63.8035 362.007 64.1671 362.37 64.4295 362.843C64.6919 363.308 64.8231 363.851 64.8231 364.473C64.8231 365.096 64.6919 365.643 64.4295 366.115C64.1671 366.58 63.8035 366.944 63.3387 367.206C62.8813 367.461 62.3715 367.589 61.8092 367.589C61.037 367.589 60.4297 367.345 59.9874 366.858V369.68H58.233V361.448H59.9086V362.145C60.3435 361.621 60.977 361.358 61.8092 361.358ZM61.5056 366.149C61.9554 366.149 62.3228 365.999 62.6077 365.699C62.9001 365.392 63.0463 364.983 63.0463 364.473C63.0463 363.964 62.9001 363.559 62.6077 363.259C62.3228 362.951 61.9554 362.798 61.5056 362.798C61.0557 362.798 60.6846 362.951 60.3922 363.259C60.1073 363.559 59.9649 363.964 59.9649 364.473C59.9649 364.983 60.1073 365.392 60.3922 365.699C60.6846 365.999 61.0557 366.149 61.5056 366.149ZM68.3043 361.358C69.2415 361.358 69.9612 361.583 70.4635 362.033C70.9659 362.475 71.217 363.146 71.217 364.046V367.499H69.5751V366.745C69.2452 367.307 68.6304 367.589 67.7308 367.589C67.2659 367.589 66.8611 367.51 66.5162 367.352C66.1788 367.195 65.9202 366.977 65.7402 366.7C65.5603 366.423 65.4703 366.108 65.4703 365.755C65.4703 365.193 65.6802 364.751 66.1001 364.428C66.5274 364.106 67.1835 363.945 68.0681 363.945H69.4626C69.4626 363.562 69.3464 363.27 69.114 363.068C68.8816 362.858 68.533 362.753 68.0681 362.753C67.7458 362.753 67.4271 362.805 67.1122 362.91C66.8048 363.008 66.5424 363.143 66.325 363.315L65.6952 362.089C66.0251 361.857 66.4187 361.677 66.8761 361.549C67.3409 361.422 67.817 361.358 68.3043 361.358ZM68.1694 366.408C68.4693 366.408 68.7354 366.34 68.9678 366.205C69.2002 366.063 69.3652 365.857 69.4626 365.587V364.968H68.2593C67.5396 364.968 67.1797 365.204 67.1797 365.677C67.1797 365.902 67.2659 366.082 67.4384 366.216C67.6183 366.344 67.862 366.408 68.1694 366.408ZM76.2385 361.864C76.8158 361.864 77.3219 361.984 77.7568 362.224C78.1916 362.457 78.5252 362.786 78.7576 363.214C78.9976 363.641 79.1175 364.136 79.1175 364.698C79.1175 365.276 78.9751 365.789 78.6902 366.239C78.4128 366.681 78.0229 367.026 77.5206 367.274C77.0183 367.514 76.4485 367.633 75.8112 367.633C74.7541 367.633 73.9219 367.296 73.3146 366.621C72.7148 365.939 72.4149 364.942 72.4149 363.63C72.4149 362.415 72.6773 361.448 73.2021 360.728C73.7344 360.001 74.5479 359.525 75.6425 359.3L78.5215 358.727L78.7576 360.234L76.216 360.74C75.5263 360.875 75.0127 361.1 74.6753 361.414C74.3455 361.729 74.1505 362.175 74.0906 362.753C74.353 362.468 74.6678 362.25 75.0352 362.1C75.4026 361.943 75.8037 361.864 76.2385 361.864ZM75.8224 366.273C76.2723 366.273 76.6322 366.127 76.9021 365.834C77.1795 365.542 77.3182 365.171 77.3182 364.721C77.3182 364.263 77.1795 363.9 76.9021 363.63C76.6322 363.36 76.2723 363.225 75.8224 363.225C75.3651 363.225 74.9977 363.36 74.7203 363.63C74.4429 363.9 74.3042 364.263 74.3042 364.721C74.3042 365.178 74.4467 365.553 74.7316 365.845C75.0165 366.13 75.3801 366.273 75.8224 366.273ZM83.1419 367.589C82.5046 367.589 81.9311 367.457 81.4213 367.195C80.919 366.925 80.5253 366.554 80.2404 366.082C79.9555 365.609 79.8131 365.073 79.8131 364.473C79.8131 363.874 79.9555 363.338 80.2404 362.865C80.5253 362.393 80.919 362.025 81.4213 361.763C81.9311 361.493 82.5046 361.358 83.1419 361.358C83.7792 361.358 84.349 361.493 84.8513 361.763C85.3536 362.025 85.7472 362.393 86.0321 362.865C86.317 363.338 86.4595 363.874 86.4595 364.473C86.4595 365.073 86.317 365.609 86.0321 366.082C85.7472 366.554 85.3536 366.925 84.8513 367.195C84.349 367.457 83.7792 367.589 83.1419 367.589ZM83.1419 366.149C83.5918 366.149 83.9591 365.999 84.244 365.699C84.5364 365.392 84.6826 364.983 84.6826 364.473C84.6826 363.964 84.5364 363.559 84.244 363.259C83.9591 362.951 83.5918 362.798 83.1419 362.798C82.6921 362.798 82.321 362.951 82.0286 363.259C81.7362 363.559 81.59 363.964 81.59 364.473C81.59 364.983 81.7362 365.392 82.0286 365.699C82.321 365.999 82.6921 366.149 83.1419 366.149ZM92.5297 362.888H90.4829V367.499H88.7398V362.888H86.693V361.448H92.5297V362.888ZM96.6475 363.382C97.4347 363.39 98.0308 363.566 98.4356 363.911C98.8405 364.256 99.0429 364.751 99.0429 365.396C99.0429 366.07 98.8142 366.591 98.3569 366.959C97.8995 367.326 97.251 367.51 96.4113 367.51L93.4649 367.499V361.448H95.208V363.382H96.6475ZM99.6952 361.448H101.438V367.499H99.6952V361.448ZM96.2539 366.261C96.5913 366.269 96.8499 366.198 97.0299 366.048C97.2098 365.898 97.2998 365.673 97.2998 365.373C97.2998 365.081 97.2098 364.867 97.0299 364.732C96.8574 364.597 96.5988 364.526 96.2539 364.518L95.208 364.507V366.261H96.2539Z" fill="#D0D6E5"/>
<rect x="258.658" y="119.208" width="70.8498" height="3.3738" rx="1.6869" fill="#D0D6E5"/>
<rect x="258.658" y="128.204" width="70.8498" height="3.3738" rx="1.6869" fill="#D0D6E5"/>
<rect x="258.658" y="137.201" width="70.8498" height="3.3738" rx="1.6869" fill="#D0D6E5"/>
<rect x="258.658" y="146.198" width="48.4548" height="3.3738" rx="1.6869" fill="#D0D6E5"/>
<path d="M266.857 102.093V109.965H265.035V106.737H261.458V109.965H259.637V102.093H261.458V105.197H265.035V102.093H266.857ZM271.044 103.825C271.982 103.825 272.701 104.049 273.204 104.499C273.706 104.942 273.957 105.613 273.957 106.512V109.965H272.315V109.211C271.985 109.774 271.37 110.055 270.471 110.055C270.006 110.055 269.601 109.976 269.256 109.819C268.919 109.661 268.66 109.444 268.48 109.166C268.3 108.889 268.21 108.574 268.21 108.222C268.21 107.659 268.42 107.217 268.84 106.895C269.267 106.572 269.924 106.411 270.808 106.411H272.203C272.203 106.029 272.086 105.736 271.854 105.534C271.622 105.324 271.273 105.219 270.808 105.219C270.486 105.219 270.167 105.272 269.852 105.376C269.545 105.474 269.282 105.609 269.065 105.781L268.435 104.556C268.765 104.323 269.159 104.143 269.616 104.016C270.081 103.888 270.557 103.825 271.044 103.825ZM270.909 108.874C271.209 108.874 271.475 108.807 271.708 108.672C271.94 108.529 272.105 108.323 272.203 108.053V107.434H270.999C270.28 107.434 269.92 107.671 269.92 108.143C269.92 108.368 270.006 108.548 270.178 108.683C270.358 108.81 270.602 108.874 270.909 108.874ZM280.103 106.805C280.815 107.045 281.172 107.524 281.172 108.244C281.172 108.792 280.965 109.215 280.553 109.515C280.141 109.815 279.526 109.965 278.709 109.965H275.481V103.914H278.574C279.331 103.914 279.923 104.053 280.351 104.331C280.778 104.6 280.992 104.983 280.992 105.478C280.992 105.778 280.913 106.044 280.755 106.276C280.606 106.501 280.388 106.677 280.103 106.805ZM277.089 106.4H278.416C279.031 106.4 279.338 106.182 279.338 105.748C279.338 105.32 279.031 105.107 278.416 105.107H277.089V106.4ZM278.562 108.773C279.207 108.773 279.53 108.552 279.53 108.109C279.53 107.877 279.455 107.708 279.305 107.603C279.155 107.491 278.919 107.434 278.596 107.434H277.089V108.773H278.562ZM285.66 105.849C286.447 105.856 287.043 106.032 287.448 106.377C287.852 106.722 288.055 107.217 288.055 107.862C288.055 108.537 287.826 109.058 287.369 109.425C286.912 109.792 286.263 109.976 285.423 109.976L282.477 109.965V103.914H284.22V105.849H285.66ZM288.707 103.914H290.45V109.965H288.707V103.914ZM285.266 108.728C285.603 108.735 285.862 108.664 286.042 108.514C286.222 108.364 286.312 108.139 286.312 107.839C286.312 107.547 286.222 107.333 286.042 107.198C285.869 107.063 285.611 106.992 285.266 106.985L284.22 106.973V108.728H285.266ZM294.807 107.671H293.896V109.965H292.141V103.914H293.896V106.265H294.84L296.482 103.914H298.349L296.235 106.816L298.495 109.965H296.426L294.807 107.671ZM299.357 103.914H301.1V107.513L304.046 103.914H305.655V109.965H303.912V106.366L300.976 109.965H299.357V103.914Z" fill="#D0D6E5"/>
<rect x="268.78" y="192.307" width="59.6038" height="3.3738" rx="1.6869" fill="#D0D6E5"/>
<rect x="259.783" y="192.307" width="3.3738" height="3.3738" rx="1.6869" fill="#D0D6E5"/>
<rect x="268.78" y="200.179" width="59.6038" height="3.3738" rx="1.6869" fill="#D0D6E5"/>
<rect x="259.783" y="200.179" width="3.3738" height="3.3738" rx="1.6869" fill="#D0D6E5"/>
<rect x="268.78" y="208.051" width="59.6038" height="3.3738" rx="1.6869" fill="#D0D6E5"/>
<rect x="259.783" y="208.051" width="3.3738" height="3.3738" rx="1.6869" fill="#D0D6E5"/>
<rect x="268.78" y="217.048" width="59.6038" height="3.3738" rx="1.6869" fill="#D0D6E5"/>
<rect x="259.783" y="217.048" width="3.3738" height="3.3738" rx="1.6869" fill="#D0D6E5"/>
<rect x="268.78" y="224.92" width="59.6038" height="3.3738" rx="1.6869" fill="#D0D6E5"/>
<rect x="259.783" y="224.92" width="3.3738" height="3.3738" rx="1.6869" fill="#D0D6E5"/>
<rect x="268.78" y="232.792" width="59.6038" height="3.3738" rx="1.6869" fill="#D0D6E5"/>
<rect x="259.783" y="232.792" width="3.3738" height="3.3738" rx="1.6869" fill="#D0D6E5"/>
<path d="M267.756 181.579V184.695H266.069V183.064H260.514V184.695H258.827L258.838 181.579H259.153C259.625 181.564 259.959 181.22 260.154 180.545C260.349 179.87 260.469 178.907 260.514 177.655L260.604 175.192H266.654V181.579H267.756ZM262.122 177.823C262.084 178.76 262.006 179.548 261.886 180.185C261.766 180.815 261.582 181.28 261.335 181.579H264.855V176.676H262.156L262.122 177.823ZM271.605 183.154C270.968 183.154 270.394 183.023 269.884 182.76C269.382 182.49 268.988 182.119 268.703 181.647C268.418 181.175 268.276 180.639 268.276 180.039C268.276 179.439 268.418 178.903 268.703 178.431C268.988 177.958 269.382 177.591 269.884 177.329C270.394 177.059 270.968 176.924 271.605 176.924C272.242 176.924 272.812 177.059 273.314 177.329C273.817 177.591 274.21 177.958 274.495 178.431C274.78 178.903 274.922 179.439 274.922 180.039C274.922 180.639 274.78 181.175 274.495 181.647C274.21 182.119 273.817 182.49 273.314 182.76C272.812 183.023 272.242 183.154 271.605 183.154ZM271.605 181.714C272.055 181.714 272.422 181.564 272.707 181.265C272.999 180.957 273.146 180.549 273.146 180.039C273.146 179.529 272.999 179.124 272.707 178.824C272.422 178.517 272.055 178.363 271.605 178.363C271.155 178.363 270.784 178.517 270.491 178.824C270.199 179.124 270.053 179.529 270.053 180.039C270.053 180.549 270.199 180.957 270.491 181.265C270.784 181.564 271.155 181.714 271.605 181.714ZM279.008 183.154C278.363 183.154 277.782 183.023 277.265 182.76C276.755 182.49 276.354 182.119 276.062 181.647C275.777 181.175 275.634 180.639 275.634 180.039C275.634 179.439 275.777 178.903 276.062 178.431C276.354 177.958 276.755 177.591 277.265 177.329C277.782 177.059 278.363 176.924 279.008 176.924C279.645 176.924 280.2 177.059 280.672 177.329C281.152 177.591 281.501 177.97 281.718 178.464L280.358 179.195C280.043 178.641 279.589 178.363 278.997 178.363C278.539 178.363 278.161 178.513 277.861 178.813C277.561 179.113 277.411 179.521 277.411 180.039C277.411 180.556 277.561 180.965 277.861 181.265C278.161 181.564 278.539 181.714 278.997 181.714C279.597 181.714 280.05 181.437 280.358 180.882L281.718 181.624C281.501 182.104 281.152 182.479 280.672 182.749C280.2 183.019 279.645 183.154 279.008 183.154ZM287.846 178.453H285.799V183.064H284.056V178.453H282.009V177.014H287.846V178.453ZM288.781 177.014H290.524V180.612L293.47 177.014H295.079V183.064H293.335V179.465L290.4 183.064H288.781V177.014ZM302.759 180.77H301.916V183.064H300.184V180.77H299.34L298.058 183.064H295.989L297.89 179.938L296.124 177.014H297.98L299.318 179.364H300.184V177.014H301.916V179.364H302.77L304.12 177.014H305.976L304.21 179.938L306.122 183.064H304.041L302.759 180.77ZM312.729 180.061C312.729 180.084 312.717 180.241 312.695 180.534H308.118C308.2 180.908 308.395 181.205 308.702 181.422C309.01 181.639 309.392 181.748 309.85 181.748C310.164 181.748 310.442 181.703 310.682 181.613C310.929 181.516 311.158 181.366 311.368 181.163L312.301 182.176C311.731 182.828 310.899 183.154 309.805 183.154C309.122 183.154 308.519 183.023 307.994 182.76C307.469 182.49 307.064 182.119 306.779 181.647C306.495 181.175 306.352 180.639 306.352 180.039C306.352 179.446 306.491 178.914 306.768 178.442C307.053 177.962 307.439 177.591 307.927 177.329C308.421 177.059 308.972 176.924 309.58 176.924C310.172 176.924 310.708 177.051 311.188 177.306C311.668 177.561 312.043 177.928 312.312 178.408C312.59 178.88 312.729 179.432 312.729 180.061ZM309.591 178.251C309.194 178.251 308.86 178.363 308.59 178.588C308.32 178.813 308.155 179.12 308.095 179.51H311.075C311.015 179.128 310.85 178.824 310.581 178.599C310.311 178.367 309.981 178.251 309.591 178.251ZM314.073 177.014H315.816V179.375H318.448V177.014H320.202V183.064H318.448V180.804H315.816V183.064H314.073V177.014ZM321.882 177.014H323.625V180.612L326.571 177.014H328.18V183.064H326.436V179.465L323.501 183.064H321.882V177.014ZM335.242 177.014V183.064H333.678V181.332H332.385L331.238 183.064H329.371L330.755 181.085C330.335 180.92 330.012 180.684 329.787 180.376C329.57 180.061 329.461 179.683 329.461 179.24C329.461 178.528 329.716 177.981 330.226 177.598C330.743 177.209 331.452 177.014 332.351 177.014H335.242ZM332.385 178.442C332.01 178.442 331.725 178.509 331.53 178.644C331.343 178.779 331.249 178.997 331.249 179.297C331.249 179.596 331.339 179.818 331.519 179.96C331.707 180.095 331.988 180.162 332.363 180.162H333.678V178.442H332.385Z" fill="#D0D6E5"/>
<g filter="url(#filter0_d)">
<rect x="376" y="176" width="234" height="53" rx="5" fill="#3B48D1"/>
</g>
<rect x="376" y="176" width="234" height="52" rx="5" fill="#3B48D1"/>
<path d="M404.147 202.255C404.676 202.437 405.088 202.723 405.382 203.113C405.686 203.494 405.837 203.941 405.837 204.452C405.837 205.007 405.655 205.488 405.291 205.895C404.927 206.302 404.433 206.614 403.809 206.831C403.194 207.048 402.518 207.156 401.781 207.156C401.157 207.156 400.533 207.078 399.909 206.922C399.294 206.766 398.709 206.528 398.154 206.207L398.804 204.699C399.203 204.942 399.641 205.128 400.117 205.258C400.603 205.379 401.075 205.44 401.534 205.44C402.158 205.44 402.674 205.327 403.081 205.102C403.497 204.877 403.705 204.56 403.705 204.153C403.705 203.815 403.562 203.559 403.276 203.386C402.999 203.213 402.618 203.126 402.132 203.126H399.909V201.54H401.976C402.401 201.54 402.73 201.453 402.964 201.28C403.207 201.107 403.328 200.868 403.328 200.565C403.328 200.21 403.155 199.932 402.808 199.733C402.47 199.534 402.033 199.434 401.495 199.434C401.097 199.434 400.685 199.49 400.26 199.603C399.836 199.707 399.433 199.867 399.051 200.084L398.414 198.446C399.376 197.952 400.416 197.705 401.534 197.705C402.245 197.705 402.899 197.809 403.497 198.017C404.095 198.225 404.572 198.528 404.927 198.927C405.283 199.326 405.46 199.789 405.46 200.318C405.46 200.751 405.343 201.137 405.109 201.475C404.875 201.813 404.555 202.073 404.147 202.255ZM413.667 205.05H409.442L408.636 207H406.478L410.534 197.9H412.614L416.683 207H414.473L413.667 205.05ZM413.004 203.451L411.561 199.967L410.118 203.451H413.004ZM424.298 199.616H419.969L419.982 207H417.889V197.9H424.311L424.298 199.616ZM429.534 197.9C430.34 197.9 431.038 198.034 431.627 198.303C432.225 198.572 432.685 198.953 433.005 199.447C433.326 199.941 433.486 200.526 433.486 201.202C433.486 201.869 433.326 202.454 433.005 202.957C432.685 203.451 432.225 203.832 431.627 204.101C431.038 204.361 430.34 204.491 429.534 204.491H427.701V207H425.595V197.9H429.534ZM429.417 202.775C430.05 202.775 430.531 202.641 430.86 202.372C431.19 202.095 431.354 201.705 431.354 201.202C431.354 200.691 431.19 200.301 430.86 200.032C430.531 199.755 430.05 199.616 429.417 199.616H427.701V202.775H429.417ZM442.889 197.9L439.015 205.102C438.642 205.795 438.191 206.32 437.663 206.675C437.143 207.03 436.575 207.208 435.96 207.208C435.483 207.208 434.989 207.104 434.478 206.896L434.985 205.297C435.349 205.41 435.652 205.466 435.895 205.466C436.155 205.466 436.389 205.405 436.597 205.284C436.805 205.154 436.995 204.955 437.169 204.686L437.247 204.582L433.659 197.9H435.908L438.326 202.788L440.822 197.9H442.889ZM449.127 202.255C449.655 202.437 450.067 202.723 450.362 203.113C450.665 203.494 450.817 203.941 450.817 204.452C450.817 205.007 450.635 205.488 450.271 205.895C449.907 206.302 449.413 206.614 448.789 206.831C448.173 207.048 447.497 207.156 446.761 207.156C446.137 207.156 445.513 207.078 444.889 206.922C444.273 206.766 443.688 206.528 443.134 206.207L443.784 204.699C444.182 204.942 444.62 205.128 445.097 205.258C445.582 205.379 446.054 205.44 446.514 205.44C447.138 205.44 447.653 205.327 448.061 205.102C448.477 204.877 448.685 204.56 448.685 204.153C448.685 203.815 448.542 203.559 448.256 203.386C447.978 203.213 447.597 203.126 447.112 203.126H444.889V201.54H446.956C447.38 201.54 447.71 201.453 447.944 201.28C448.186 201.107 448.308 200.868 448.308 200.565C448.308 200.21 448.134 199.932 447.788 199.733C447.45 199.534 447.012 199.434 446.475 199.434C446.076 199.434 445.664 199.49 445.24 199.603C444.815 199.707 444.412 199.867 444.031 200.084L443.394 198.446C444.356 197.952 445.396 197.705 446.514 197.705C447.224 197.705 447.879 197.809 448.477 198.017C449.075 198.225 449.551 198.528 449.907 198.927C450.262 199.326 450.44 199.789 450.44 200.318C450.44 200.751 450.323 201.137 450.089 201.475C449.855 201.813 449.534 202.073 449.127 202.255ZM452.484 197.9H454.577V203.828L458.919 197.9H460.895V207H458.815V201.085L454.473 207H452.484V197.9ZM470.116 199.616H467.204V207H465.124V199.616H462.225V197.9H470.116V199.616ZM475.845 200.89C476.954 200.89 477.804 201.137 478.393 201.631C478.991 202.125 479.29 202.857 479.29 203.828C479.29 204.859 478.961 205.648 478.302 206.194C477.652 206.731 476.733 207 475.546 207H471.438V197.9H473.531V200.89H475.845ZM475.429 205.44C475.975 205.44 476.4 205.306 476.703 205.037C477.015 204.768 477.171 204.378 477.171 203.867C477.171 202.922 476.59 202.45 475.429 202.45H473.531V205.44H475.429ZM488.792 207.156C487.865 207.156 487.024 206.957 486.27 206.558C485.525 206.151 484.935 205.592 484.502 204.881C484.077 204.162 483.865 203.351 483.865 202.45C483.865 201.549 484.077 200.743 484.502 200.032C484.935 199.313 485.525 198.754 486.27 198.355C487.024 197.948 487.869 197.744 488.805 197.744C489.594 197.744 490.304 197.883 490.937 198.16C491.578 198.437 492.116 198.836 492.549 199.356L491.197 200.604C490.582 199.893 489.819 199.538 488.909 199.538C488.346 199.538 487.843 199.664 487.401 199.915C486.959 200.158 486.612 200.5 486.361 200.942C486.118 201.384 485.997 201.887 485.997 202.45C485.997 203.013 486.118 203.516 486.361 203.958C486.612 204.4 486.959 204.747 487.401 204.998C487.843 205.241 488.346 205.362 488.909 205.362C489.819 205.362 490.582 205.002 491.197 204.283L492.549 205.531C492.116 206.06 491.578 206.463 490.937 206.74C490.296 207.017 489.581 207.156 488.792 207.156ZM500.227 202.255C500.781 202.42 501.206 202.688 501.501 203.061C501.795 203.434 501.943 203.893 501.943 204.439C501.943 205.245 501.635 205.873 501.02 206.324C500.413 206.775 499.542 207 498.407 207H493.922V197.9H498.16C499.217 197.9 500.04 198.104 500.63 198.511C501.219 198.918 501.514 199.499 501.514 200.253C501.514 200.704 501.401 201.102 501.176 201.449C500.95 201.787 500.634 202.056 500.227 202.255ZM496.015 201.67H497.978C498.437 201.67 498.784 201.579 499.018 201.397C499.252 201.206 499.369 200.929 499.369 200.565C499.369 200.21 499.247 199.937 499.005 199.746C498.771 199.555 498.428 199.46 497.978 199.46H496.015V201.67ZM498.329 205.44C499.317 205.44 499.811 205.05 499.811 204.27C499.811 203.516 499.317 203.139 498.329 203.139H496.015V205.44H498.329ZM507.95 207.156C507.005 207.156 506.152 206.952 505.389 206.545C504.635 206.138 504.041 205.579 503.608 204.868C503.183 204.149 502.971 203.343 502.971 202.45C502.971 201.557 503.183 200.756 503.608 200.045C504.041 199.326 504.635 198.762 505.389 198.355C506.152 197.948 507.005 197.744 507.95 197.744C508.895 197.744 509.744 197.948 510.498 198.355C511.252 198.762 511.846 199.326 512.279 200.045C512.712 200.756 512.929 201.557 512.929 202.45C512.929 203.343 512.712 204.149 512.279 204.868C511.846 205.579 511.252 206.138 510.498 206.545C509.744 206.952 508.895 207.156 507.95 207.156ZM507.95 205.362C508.487 205.362 508.973 205.241 509.406 204.998C509.839 204.747 510.177 204.4 510.42 203.958C510.671 203.516 510.797 203.013 510.797 202.45C510.797 201.887 510.671 201.384 510.42 200.942C510.177 200.5 509.839 200.158 509.406 199.915C508.973 199.664 508.487 199.538 507.95 199.538C507.413 199.538 506.927 199.664 506.494 199.915C506.061 200.158 505.718 200.5 505.467 200.942C505.224 201.384 505.103 201.887 505.103 202.45C505.103 203.013 505.224 203.516 505.467 203.958C505.718 204.4 506.061 204.747 506.494 204.998C506.927 205.241 507.413 205.362 507.95 205.362ZM521.597 205.31V207H514.551V197.9H521.428V199.59H516.644V201.566H520.869V203.204H516.644V205.31H521.597ZM530.919 197.9C531.725 197.9 532.423 198.034 533.012 198.303C533.61 198.572 534.069 198.953 534.39 199.447C534.711 199.941 534.871 200.526 534.871 201.202C534.871 201.869 534.711 202.454 534.39 202.957C534.069 203.451 533.61 203.832 533.012 204.101C532.423 204.361 531.725 204.491 530.919 204.491H529.086V207H526.98V197.9H530.919ZM530.802 202.775C531.435 202.775 531.916 202.641 532.245 202.372C532.574 202.095 532.739 201.705 532.739 201.202C532.739 200.691 532.574 200.301 532.245 200.032C531.916 199.755 531.435 199.616 530.802 199.616H529.086V202.775H530.802ZM543.306 205.31V207H536.26V197.9H543.137V199.59H538.353V201.566H542.578V203.204H538.353V205.31H543.306ZM550.181 202.255C550.71 202.437 551.122 202.723 551.416 203.113C551.72 203.494 551.871 203.941 551.871 204.452C551.871 205.007 551.689 205.488 551.325 205.895C550.961 206.302 550.467 206.614 549.843 206.831C549.228 207.048 548.552 207.156 547.815 207.156C547.191 207.156 546.567 207.078 545.943 206.922C545.328 206.766 544.743 206.528 544.188 206.207L544.838 204.699C545.237 204.942 545.675 205.128 546.151 205.258C546.637 205.379 547.109 205.44 547.568 205.44C548.192 205.44 548.708 205.327 549.115 205.102C549.531 204.877 549.739 204.56 549.739 204.153C549.739 203.815 549.596 203.559 549.31 203.386C549.033 203.213 548.652 203.126 548.166 203.126H545.943V201.54H548.01C548.435 201.54 548.764 201.453 548.998 201.28C549.241 201.107 549.362 200.868 549.362 200.565C549.362 200.21 549.189 199.932 548.842 199.733C548.504 199.534 548.067 199.434 547.529 199.434C547.131 199.434 546.719 199.49 546.294 199.603C545.87 199.707 545.467 199.867 545.085 200.084L544.448 198.446C545.41 197.952 546.45 197.705 547.568 197.705C548.279 197.705 548.933 197.809 549.531 198.017C550.129 198.225 550.606 198.528 550.961 198.927C551.317 199.326 551.494 199.789 551.494 200.318C551.494 200.751 551.377 201.137 551.143 201.475C550.909 201.813 550.589 202.073 550.181 202.255ZM561.573 197.744C562.483 197.744 563.302 197.948 564.03 198.355C564.766 198.762 565.343 199.326 565.759 200.045C566.175 200.756 566.383 201.557 566.383 202.45C566.383 203.343 566.175 204.149 565.759 204.868C565.343 205.579 564.766 206.138 564.03 206.545C563.302 206.952 562.483 207.156 561.573 207.156C560.758 207.156 560.013 206.996 559.337 206.675C558.661 206.346 558.102 205.891 557.66 205.31C557.226 204.721 556.949 204.049 556.828 203.295H555.632V207H553.539V197.9H555.632V201.475H556.854C556.992 200.747 557.278 200.101 557.712 199.538C558.154 198.966 558.708 198.524 559.376 198.212C560.043 197.9 560.775 197.744 561.573 197.744ZM561.573 205.362C562.075 205.362 562.53 205.241 562.938 204.998C563.345 204.755 563.666 204.413 563.9 203.971C564.134 203.529 564.251 203.022 564.251 202.45C564.251 201.878 564.134 201.371 563.9 200.929C563.666 200.487 563.345 200.145 562.938 199.902C562.53 199.659 562.075 199.538 561.573 199.538C561.07 199.538 560.615 199.659 560.208 199.902C559.8 200.145 559.48 200.487 559.246 200.929C559.012 201.371 558.895 201.878 558.895 202.45C558.895 203.022 559.012 203.529 559.246 203.971C559.48 204.413 559.8 204.755 560.208 204.998C560.615 205.241 561.07 205.362 561.573 205.362ZM576.305 207L576.292 201.553L573.614 206.038H572.678L570 201.657V207H568.024V197.9H569.766L573.172 203.555L576.526 197.9H578.268L578.281 207H576.305ZM587.588 205.31V207H580.542V197.9H587.419V199.59H582.635V201.566H586.86V203.204H582.635V205.31H587.588Z" fill="white"/>
<path d="M394 265H382C380.895 265 380 264.104 380 263V247C380 245.895 380.895 245 382 245H389C389.009 244.999 389.018 244.999 389.027 245H389.033C389.042 245.003 389.052 245.005 389.062 245.006C389.15 245.012 389.237 245.029 389.321 245.057H389.336H389.351H389.363C389.381 245.07 389.399 245.084 389.415 245.1C389.524 245.148 389.623 245.216 389.708 245.3L395.708 251.3C395.792 251.385 395.86 251.484 395.908 251.593C395.917 251.615 395.924 251.636 395.931 251.659L395.941 251.687C395.969 251.77 395.985 251.857 395.99 251.945C395.991 251.955 395.993 251.965 395.997 251.974V251.98C395.999 251.986 396 251.993 396 252V263C396 263.53 395.789 264.039 395.414 264.414C395.039 264.789 394.53 265 394 265ZM389 247V252H394L389 247Z" fill="#F8DC82"/>
<path d="M413.216 253.704C413.792 252.808 414.805 252.36 416.256 252.36V254.264C416.085 254.232 415.931 254.216 415.792 254.216C415.013 254.216 414.405 254.445 413.968 254.904C413.531 255.352 413.312 256.003 413.312 256.856V261H411.312V252.456H413.216V253.704ZM425.907 256.776C425.907 256.915 425.896 257.112 425.875 257.368H419.171C419.288 257.997 419.592 258.499 420.083 258.872C420.584 259.235 421.203 259.416 421.939 259.416C422.877 259.416 423.651 259.107 424.259 258.488L425.331 259.72C424.947 260.179 424.461 260.525 423.875 260.76C423.288 260.995 422.627 261.112 421.891 261.112C420.952 261.112 420.125 260.925 419.411 260.552C418.696 260.179 418.141 259.661 417.747 259C417.363 258.328 417.171 257.571 417.171 256.728C417.171 255.896 417.357 255.149 417.731 254.488C418.115 253.816 418.643 253.293 419.315 252.92C419.987 252.547 420.744 252.36 421.587 252.36C422.419 252.36 423.16 252.547 423.811 252.92C424.472 253.283 424.984 253.8 425.347 254.472C425.72 255.133 425.907 255.901 425.907 256.776ZM421.587 253.96C420.947 253.96 420.403 254.152 419.955 254.536C419.517 254.909 419.251 255.411 419.155 256.04H424.003C423.917 255.421 423.656 254.92 423.219 254.536C422.781 254.152 422.237 253.96 421.587 253.96ZM430.468 261.112C429.774 261.112 429.097 261.021 428.436 260.84C427.774 260.659 427.246 260.429 426.852 260.152L427.62 258.632C428.004 258.888 428.462 259.096 428.996 259.256C429.54 259.405 430.073 259.48 430.596 259.48C431.79 259.48 432.388 259.165 432.388 258.536C432.388 258.237 432.233 258.029 431.924 257.912C431.625 257.795 431.14 257.683 430.468 257.576C429.764 257.469 429.188 257.347 428.74 257.208C428.302 257.069 427.918 256.829 427.588 256.488C427.268 256.136 427.108 255.651 427.108 255.032C427.108 254.221 427.444 253.576 428.116 253.096C428.798 252.605 429.716 252.36 430.868 252.36C431.454 252.36 432.041 252.429 432.628 252.568C433.214 252.696 433.694 252.872 434.068 253.096L433.3 254.616C432.574 254.189 431.758 253.976 430.852 253.976C430.265 253.976 429.817 254.067 429.508 254.248C429.209 254.419 429.06 254.648 429.06 254.936C429.06 255.256 429.22 255.485 429.54 255.624C429.87 255.752 430.377 255.875 431.06 255.992C431.742 256.099 432.302 256.221 432.74 256.36C433.177 256.499 433.55 256.733 433.86 257.064C434.18 257.395 434.34 257.864 434.34 258.472C434.34 259.272 433.993 259.912 433.3 260.392C432.606 260.872 431.662 261.112 430.468 261.112ZM444.334 252.456V261H442.43V259.912C442.11 260.296 441.71 260.595 441.23 260.808C440.75 261.011 440.233 261.112 439.678 261.112C438.537 261.112 437.635 260.797 436.974 260.168C436.323 259.528 435.998 258.584 435.998 257.336V252.456H437.998V257.064C437.998 257.832 438.169 258.408 438.51 258.792C438.862 259.165 439.358 259.352 439.998 259.352C440.713 259.352 441.278 259.133 441.694 258.696C442.121 258.248 442.334 257.608 442.334 256.776V252.456H444.334ZM457.737 252.36C458.814 252.36 459.667 252.675 460.297 253.304C460.926 253.923 461.241 254.856 461.241 256.104V261H459.241V256.36C459.241 255.613 459.075 255.053 458.745 254.68C458.414 254.296 457.939 254.104 457.321 254.104C456.649 254.104 456.11 254.328 455.705 254.776C455.299 255.213 455.097 255.843 455.097 256.664V261H453.097V256.36C453.097 255.613 452.931 255.053 452.601 254.68C452.27 254.296 451.795 254.104 451.177 254.104C450.494 254.104 449.95 254.323 449.545 254.76C449.15 255.197 448.953 255.832 448.953 256.664V261H446.953V252.456H448.857V253.544C449.177 253.16 449.577 252.867 450.057 252.664C450.537 252.461 451.07 252.36 451.657 252.36C452.297 252.36 452.862 252.483 453.353 252.728C453.854 252.963 454.249 253.315 454.537 253.784C454.889 253.336 455.342 252.989 455.897 252.744C456.451 252.488 457.065 252.36 457.737 252.36ZM471.907 256.776C471.907 256.915 471.896 257.112 471.875 257.368H465.171C465.288 257.997 465.592 258.499 466.083 258.872C466.584 259.235 467.203 259.416 467.939 259.416C468.877 259.416 469.651 259.107 470.259 258.488L471.331 259.72C470.947 260.179 470.461 260.525 469.875 260.76C469.288 260.995 468.627 261.112 467.891 261.112C466.952 261.112 466.125 260.925 465.411 260.552C464.696 260.179 464.141 259.661 463.747 259C463.363 258.328 463.171 257.571 463.171 256.728C463.171 255.896 463.357 255.149 463.731 254.488C464.115 253.816 464.643 253.293 465.315 252.92C465.987 252.547 466.744 252.36 467.587 252.36C468.419 252.36 469.16 252.547 469.811 252.92C470.472 253.283 470.984 253.8 471.347 254.472C471.72 255.133 471.907 255.901 471.907 256.776ZM467.587 253.96C466.947 253.96 466.403 254.152 465.955 254.536C465.517 254.909 465.251 255.411 465.155 256.04H470.003C469.917 255.421 469.656 254.92 469.219 254.536C468.781 254.152 468.237 253.96 467.587 253.96ZM481.175 259.24V261H472.919V259.608L477.367 255.384C477.869 254.904 478.205 254.488 478.375 254.136C478.557 253.773 478.647 253.416 478.647 253.064C478.647 252.541 478.471 252.141 478.119 251.864C477.767 251.587 477.25 251.448 476.567 251.448C475.426 251.448 474.551 251.837 473.943 252.616L472.487 251.496C472.925 250.909 473.511 250.456 474.247 250.136C474.994 249.805 475.826 249.64 476.743 249.64C477.959 249.64 478.93 249.928 479.655 250.504C480.381 251.08 480.743 251.864 480.743 252.856C480.743 253.464 480.615 254.035 480.359 254.568C480.103 255.101 479.613 255.709 478.887 256.392L475.895 259.24H481.175ZM483.78 261.112C483.417 261.112 483.108 260.989 482.852 260.744C482.596 260.488 482.468 260.168 482.468 259.784C482.468 259.389 482.591 259.069 482.836 258.824C483.092 258.579 483.407 258.456 483.78 258.456C484.153 258.456 484.463 258.579 484.708 258.824C484.964 259.069 485.092 259.389 485.092 259.784C485.092 260.168 484.964 260.488 484.708 260.744C484.452 260.989 484.143 261.112 483.78 261.112ZM490.923 261.16C490.027 261.16 489.227 260.936 488.523 260.488C487.819 260.029 487.264 259.368 486.859 258.504C486.454 257.629 486.251 256.595 486.251 255.4C486.251 254.205 486.454 253.176 486.859 252.312C487.264 251.437 487.819 250.776 488.523 250.328C489.227 249.869 490.027 249.64 490.923 249.64C491.819 249.64 492.619 249.869 493.323 250.328C494.038 250.776 494.598 251.437 495.003 252.312C495.408 253.176 495.611 254.205 495.611 255.4C495.611 256.595 495.408 257.629 495.003 258.504C494.598 259.368 494.038 260.029 493.323 260.488C492.619 260.936 491.819 261.16 490.923 261.16ZM490.923 259.352C491.723 259.352 492.352 259.021 492.811 258.36C493.28 257.699 493.515 256.712 493.515 255.4C493.515 254.088 493.28 253.101 492.811 252.44C492.352 251.779 491.723 251.448 490.923 251.448C490.134 251.448 489.504 251.779 489.035 252.44C488.576 253.101 488.347 254.088 488.347 255.4C488.347 256.712 488.576 257.699 489.035 258.36C489.504 259.021 490.134 259.352 490.923 259.352ZM498.077 261.112C497.714 261.112 497.405 260.989 497.149 260.744C496.893 260.488 496.765 260.168 496.765 259.784C496.765 259.389 496.888 259.069 497.133 258.824C497.389 258.579 497.704 258.456 498.077 258.456C498.45 258.456 498.76 258.579 499.005 258.824C499.261 259.069 499.389 259.389 499.389 259.784C499.389 260.168 499.261 260.488 499.005 260.744C498.749 260.989 498.44 261.112 498.077 261.112ZM509.555 249.128V261H507.635V259.896C507.304 260.301 506.894 260.605 506.403 260.808C505.923 261.011 505.39 261.112 504.803 261.112C503.982 261.112 503.24 260.931 502.579 260.568C501.928 260.205 501.416 259.693 501.043 259.032C500.67 258.36 500.483 257.592 500.483 256.728C500.483 255.864 500.67 255.101 501.043 254.44C501.416 253.779 501.928 253.267 502.579 252.904C503.24 252.541 503.982 252.36 504.803 252.36C505.368 252.36 505.886 252.456 506.355 252.648C506.824 252.84 507.224 253.128 507.555 253.512V249.128H509.555ZM505.043 259.4C505.523 259.4 505.955 259.293 506.339 259.08C506.723 258.856 507.027 258.541 507.251 258.136C507.475 257.731 507.587 257.261 507.587 256.728C507.587 256.195 507.475 255.725 507.251 255.32C507.027 254.915 506.723 254.605 506.339 254.392C505.955 254.168 505.523 254.056 505.043 254.056C504.563 254.056 504.131 254.168 503.747 254.392C503.363 254.605 503.059 254.915 502.835 255.32C502.611 255.725 502.499 256.195 502.499 256.728C502.499 257.261 502.611 257.731 502.835 258.136C503.059 258.541 503.363 258.856 503.747 259.08C504.131 259.293 504.563 259.4 505.043 259.4ZM516.011 261.112C515.147 261.112 514.369 260.925 513.675 260.552C512.982 260.179 512.438 259.661 512.043 259C511.659 258.328 511.467 257.571 511.467 256.728C511.467 255.885 511.659 255.133 512.043 254.472C512.438 253.811 512.982 253.293 513.675 252.92C514.369 252.547 515.147 252.36 516.011 252.36C516.886 252.36 517.67 252.547 518.363 252.92C519.057 253.293 519.595 253.811 519.979 254.472C520.374 255.133 520.571 255.885 520.571 256.728C520.571 257.571 520.374 258.328 519.979 259C519.595 259.661 519.057 260.179 518.363 260.552C517.67 260.925 516.886 261.112 516.011 261.112ZM516.011 259.4C516.747 259.4 517.355 259.155 517.835 258.664C518.315 258.173 518.555 257.528 518.555 256.728C518.555 255.928 518.315 255.283 517.835 254.792C517.355 254.301 516.747 254.056 516.011 254.056C515.275 254.056 514.667 254.301 514.187 254.792C513.718 255.283 513.483 255.928 513.483 256.728C513.483 257.528 513.718 258.173 514.187 258.664C514.667 259.155 515.275 259.4 516.011 259.4ZM527.643 261L525.451 258.04L523.243 261H521.035L524.363 256.664L521.179 252.456H523.403L525.499 255.256L527.595 252.456H529.755L526.555 256.632L529.899 261H527.643Z" fill="#2D3246"/>
<path fill-rule="evenodd" clip-rule="evenodd" d="M608.906 249.369C609.23 249.369 609.5 249.638 609.5 249.981V250.297C609.5 250.631 609.23 250.909 608.906 250.909H595.095C594.77 250.909 594.5 250.631 594.5 250.297V249.981C594.5 249.638 594.77 249.369 595.095 249.369H597.525C598.018 249.369 598.448 249.018 598.559 248.523L598.686 247.955C598.884 247.181 599.535 246.667 600.279 246.667H603.721C604.457 246.667 605.115 247.181 605.306 247.914L605.442 248.522C605.552 249.018 605.982 249.369 606.476 249.369H608.906ZM607.672 260.945C607.925 258.581 608.369 252.964 608.369 252.907C608.386 252.736 608.33 252.573 608.219 252.442C608.099 252.32 607.949 252.247 607.783 252.247H596.224C596.057 252.247 595.898 252.32 595.788 252.442C595.676 252.573 595.621 252.736 595.629 252.907C595.63 252.918 595.646 253.116 595.673 253.446C595.791 254.916 596.121 259.008 596.334 260.945C596.485 262.372 597.421 263.268 598.777 263.301C599.823 263.325 600.901 263.333 602.003 263.333C603.041 263.333 604.096 263.325 605.174 263.301C606.577 263.277 607.513 262.396 607.672 260.945Z" fill="#D0D6E5"/>
<path d="M439.884 300.261V296.348H438.142V292.87H436.401V289.391H434.66V285.478H432.483V283.739H430.741V280.261H434.66V282H436.401V287.218H438.142V263.739H441.625V280.261H443.366V272.87H447.284V280.261H449.026V274.609H452.508V282H454.25V276.348H456.426V278.522H458.168V291.131H456.426V296.348H454.25V300.261H439.884Z" fill="white"/>
<path d="M438.142 302V296.348H436.401V292.87H434.659V289.391H432.483V285.478H430.741V283.739H429V278.522H434.659V280.261H436.401V263.739H438.142V262H441.625V263.739H443.366V271.13H447.284V272.87H452.508V274.609H456.426V276.348H458.168V278.522H459.909V291.13H458.168V296.348H456.426V302H438.142ZM454.25 300.261V296.348H456.426V291.13H458.168V278.522H456.426V276.348H454.25V282H452.508V274.609H449.026V280.261H447.284V272.87H443.366V280.261H441.625V263.739H438.142V287.217H436.401V282H434.659V280.261H430.741V283.739H432.483V285.478H434.659V289.391H436.401V292.87H438.142V296.348H439.883V300.261H454.25Z" fill="#2D3246"/>
<defs>
<filter id="filter0_d" x="363" y="176" width="260" height="85" filterUnits="userSpaceOnUse" color-interpolation-filters="sRGB">
<feFlood flood-opacity="0" result="BackgroundImageFix"/>
<feColorMatrix in="SourceAlpha" type="matrix" values="0 0 0 0 0 0 0 0 0 0 0 0 0 0 0 0 0 0 127 0"/>
<feMorphology radius="25" operator="erode" in="SourceAlpha" result="effect1_dropShadow"/>
<feOffset dy="19"/>
<feGaussianBlur stdDeviation="19"/>
<feColorMatrix type="matrix" values="0 0 0 0 0.231373 0 0 0 0 0.282353 0 0 0 0 0.819608 0 0 0 0.66 0"/>
<feBlend mode="normal" in2="BackgroundImageFix" result="effect1_dropShadow"/>
<feBlend mode="normal" in="SourceGraphic" in2="effect1_dropShadow" result="shape"/>
</filter>
</defs>
</svg>
