<svg width="202" height="31" viewBox="0 0 202 31" fill="none" xmlns="http://www.w3.org/2000/svg">
<path fill-rule="evenodd" clip-rule="evenodd" d="M73.8646 24.36C76.2778 24.36 78.2094 23.6882 79.7265 22.3431C81.206 21.1324 82.1765 19.5858 82.705 17.7033C83.2154 15.8879 83.1129 14.3407 82.3313 13.0635C81.551 11.7856 79.9964 11.1137 77.5832 11.1137C75.1693 11.1137 73.2383 11.7856 71.7394 13.0635C70.2411 14.3407 69.2699 15.8879 68.7609 17.7033C68.2324 19.5865 68.3349 21.1324 69.1339 22.3431C69.8968 23.6875 71.4514 24.36 73.8646 24.36ZM74.7701 21.1324C74.0334 21.1324 73.5049 20.8637 73.2919 20.1912C73.0595 19.5865 73.085 18.7789 73.387 17.7033C73.6703 16.6942 74.0983 15.8879 74.6891 15.2147C75.2611 14.6101 75.9396 14.3407 76.6777 14.3407C77.4151 14.3407 77.9429 14.6094 78.1753 15.2147C78.3889 15.8879 78.3628 16.6942 78.0802 17.7033C77.7781 18.7796 77.3501 19.5865 76.7781 20.1912C76.1867 20.863 75.5082 21.1324 74.7701 21.1324ZM193.809 20.4942C193.138 20.4942 192.744 20.2254 192.56 19.6873C192.309 19.1498 192.296 18.4773 192.542 17.6025C192.788 16.7278 193.196 15.9894 193.73 15.5177C194.217 14.9796 194.809 14.778 195.432 14.7115C196.84 14.7115 197.294 15.72 196.813 17.6697C196.568 18.5438 196.178 19.2163 195.691 19.7544C195.072 20.2933 194.478 20.4942 193.809 20.4942ZM189.586 11.4168L184.885 28.1607H189.712L191.26 22.6461C191.762 23.7217 192.684 24.2599 193.89 24.2599C195.365 24.2599 196.838 23.7889 198.347 22.7126C199.097 22.1271 199.748 21.4233 200.273 20.6285C200.817 19.8888 201.252 18.8125 201.658 17.6025C202.149 15.8543 202.114 14.3077 201.534 13.0299C200.955 11.752 199.735 11.0795 197.858 11.0795C197.121 11.0795 196.394 11.281 195.562 11.6176C194.73 11.9536 194.024 12.5589 193.414 13.2986H193.346L193.875 11.4161H189.586V11.4168ZM185.608 18.8105C186.25 16.5235 186.241 14.641 185.365 13.2287C184.555 11.8158 182.952 11.0768 180.673 11.0768C178.729 11.0768 176.95 11.6815 175.336 12.8921C173.656 14.1028 172.532 15.7166 171.928 17.8686C171.362 19.8855 171.579 21.4999 172.618 22.5749C173.571 23.7184 175.029 24.2559 177.04 24.2559C178.515 24.2559 179.931 23.9871 181.375 23.3818C182.818 22.7771 183.992 21.7008 184.896 20.1542H180.27C180.042 20.4908 179.698 20.7595 179.307 20.9611C178.982 21.1627 178.56 21.2298 178.158 21.2298C177.487 21.2298 177.009 21.0283 176.671 20.5573C176.333 20.087 176.284 19.5489 176.491 18.8092H185.608V18.8105ZM177.189 16.322C177.586 14.9097 178.531 14.1693 180.025 14.1028C180.609 14.17 181.089 14.3716 181.311 14.7753C181.6 15.1785 181.716 15.7166 181.546 16.322H177.189ZM160.835 23.9757L163.346 15.032H159.188L160.208 11.4006H173.347L172.329 15.032H168.172L165.661 23.9757H160.835ZM158.557 16.1748C158.799 14.3595 158.439 13.0137 157.392 12.2075C156.326 11.4671 154.964 11.064 153.355 11.064C151.277 11.064 149.517 11.6022 147.903 12.8129C146.309 13.9564 145.167 15.6373 144.562 17.7886C143.977 19.8734 144.194 21.4872 145.215 22.6307C146.187 23.7063 147.625 24.3116 149.637 24.3116C151.312 24.3116 152.968 23.9078 154.401 23.101C155.151 22.679 155.826 22.1335 156.396 21.4872C156.987 20.8153 157.415 20.0084 157.813 19.0665H152.986C152.787 19.5542 152.481 19.9907 152.091 20.3437C151.71 20.7474 151.184 20.949 150.58 20.949C149.843 20.949 149.382 20.6809 149.217 20.0749C149.033 19.5368 149.039 18.7971 149.323 17.7886C149.417 17.4527 149.597 17.0489 149.778 16.6451C149.958 16.2413 150.138 15.8382 150.367 15.5023C150.595 15.1657 150.939 14.897 151.264 14.6947C151.588 14.4932 151.962 14.3588 152.43 14.3588C152.966 14.3588 153.312 14.5604 153.486 14.8963C153.745 15.165 153.748 15.6367 153.663 16.1741H158.557V16.1748ZM135.121 21.4858C134.048 21.4858 133.606 21.1492 133.795 20.4774C133.908 20.0736 134.137 19.737 134.462 19.5354C134.786 19.3339 135.092 19.1995 135.513 19.1323C135.886 18.9979 136.374 18.9308 136.796 18.8636C137.303 18.7285 137.743 18.5942 138.25 18.4598C138.071 19.3339 137.748 20.0064 137.244 20.6117C136.671 21.2171 135.992 21.4858 135.121 21.4858ZM142.151 23.9065L142.208 23.7049C141.948 23.4362 141.889 23.1675 141.897 22.8981C141.887 22.6965 141.895 22.4278 141.99 22.0912L143.632 16.2407C143.84 15.5003 144.029 14.8284 144.084 14.1559C144.184 13.6009 144.083 13.0281 143.799 12.5414C143.529 12.0711 143.02 11.7345 142.224 11.4658C141.428 11.1971 140.325 11.062 138.851 11.062C136.572 11.062 134.715 11.4658 133.454 12.1376C132.174 12.878 131.403 13.9537 131.025 15.298H135.784C136.069 14.7606 136.365 14.424 136.757 14.2217C137.197 14.088 137.484 14.0202 137.819 14.0202C138.154 14.0202 138.471 14.088 138.835 14.2217C139.133 14.3568 139.258 14.6255 139.194 15.0965C138.975 15.634 138.412 15.9712 137.503 16.1056C137.081 16.1728 136.593 16.24 136.105 16.3072C135.55 16.3737 134.995 16.4409 134.354 16.5759C133.818 16.5759 133.244 16.7103 132.718 16.9118C132.144 17.0462 131.532 17.3156 131.054 17.5837C130.577 17.8518 130.128 18.2562 129.728 18.7272C129.328 19.1982 129.024 19.8035 128.817 20.5425C128.477 21.7532 128.681 22.6945 129.383 23.2998C129.999 23.9723 130.929 24.2411 132.068 24.2411C133.007 24.2411 133.83 24.1739 134.576 23.9045C135.388 23.6357 136.192 23.1654 137.031 22.5601L136.922 23.9045H142.151V23.9065ZM100.539 23.9757L103.05 15.032H98.8266L99.846 11.4006H113.052L112.033 15.032H107.81L105.299 23.9757H100.539ZM89.9688 20.4942C89.299 20.4942 88.9052 20.2254 88.7203 19.6873C88.4691 19.1498 88.4564 18.4773 88.7022 17.6025C88.9473 16.7284 89.3566 15.9894 89.8911 15.5177C90.3773 14.9796 90.9701 14.778 91.5923 14.7115C93.0002 14.7115 93.4543 15.72 92.9734 17.6697C92.7282 18.5438 92.3378 19.2163 91.8515 19.7544C91.2326 20.2933 90.6392 20.4942 89.9688 20.4942ZM85.7471 11.4168L81.0466 28.1607H85.8737L87.4216 22.6461C87.9239 23.7217 88.8455 24.2599 90.0525 24.2599C91.5273 24.2599 93.0002 23.7889 94.5085 22.7126C95.2587 22.1271 95.909 21.4233 96.4341 20.6285C96.9773 19.8888 97.4133 18.8125 97.8206 17.6025C98.3115 15.8543 98.276 14.3077 97.6967 13.0299C97.1166 11.752 95.897 11.0795 94.0203 11.0795C93.2828 11.0795 92.5561 11.281 91.7243 11.6176C90.8924 11.9536 90.1858 12.5589 89.5756 13.2986H89.5086L90.0371 11.4161H85.7471V11.4168ZM51.9655 23.9757H56.7256L59.2353 15.032H63.057L60.546 23.9757H65.3731L68.9029 11.4006H55.4952L51.9655 23.9757ZM52.6801 16.1748C52.9219 14.3595 52.5616 13.0137 51.5147 12.2075C50.4491 11.4671 49.0874 11.064 47.478 11.064C45.3996 11.064 43.6408 11.6022 42.0266 12.8129C40.4326 13.9564 39.2899 15.6373 38.6858 17.7886C38.1011 19.8734 38.3181 21.4872 39.3375 22.6307C40.3093 23.7063 41.7487 24.3116 43.7593 24.3116C45.4351 24.3116 47.0908 23.9078 48.5235 23.101C49.2739 22.6788 49.9484 22.1333 50.5188 21.4872C51.1095 20.8153 51.5375 20.0084 51.936 19.0665H47.1089C46.9103 19.5543 46.6044 19.9909 46.2141 20.3437C45.833 20.7474 45.3072 20.949 44.7037 20.949C43.9663 20.949 43.5055 20.6809 43.3401 20.0749C43.1559 19.5368 43.1626 18.7971 43.4459 17.7886C43.5403 17.4527 43.7205 17.0489 43.9013 16.6451C44.0815 16.2413 44.2617 15.8382 44.4901 15.5023C44.7185 15.1657 45.0621 14.897 45.3869 14.6947C45.7118 14.4932 46.0848 14.3588 46.5543 14.3588C47.0902 14.3588 47.4358 14.5604 47.6099 14.8963C47.8691 15.165 47.8711 15.6367 47.7874 16.1741H52.6801V16.1748Z" fill="#D0D6E5"/>
<path fill-rule="evenodd" clip-rule="evenodd" d="M115.39 7.49293L118.686 22.8844L130.699 7.39014L121.123 14.1389L115.39 7.49293Z" fill="#D0D6E5"/>
<path fill-rule="evenodd" clip-rule="evenodd" d="M114.398 11.4102L110.828 23.9429H117.007L114.398 11.4102ZM129.567 11.4102L120.024 23.9429H125.998L129.567 11.4102Z" fill="#D0D6E5"/>
<path fill-rule="evenodd" clip-rule="evenodd" d="M37.6047 4.83594L25.9338 18.1118L0 4.94747L24.5153 10.1322L37.6047 4.83594Z" fill="#D0D6E5"/>
<path fill-rule="evenodd" clip-rule="evenodd" d="M2.3335 31L16.0104 15.4419L46.4036 30.8697L17.6728 24.7927L2.3335 31ZM23.7477 0.0134519C21.5039 0.195524 19.8208 2.18085 20.0029 4.4329C20.1851 6.68496 22.1643 8.37265 24.4081 8.18991C26.6532 8.00783 28.3357 6.02251 28.1535 3.77113C27.972 1.51908 25.9928 -0.16862 23.7477 0.0134519Z" fill="#D0D6E5"/>
</svg>
