<svg width="198" height="20" viewBox="0 0 198 20" fill="none" xmlns="http://www.w3.org/2000/svg">
<path d="M13.6718 19.1984V5.8779H21.5345V1.03044H0.0842056V5.8779H7.94663V19.1984H13.6718ZM29.3602 11.6031V1.03044H23.8257V19.1984H28.7112L38.2532 8.62597V19.1984H43.7875V1.03044H38.902L29.3602 11.6031ZM62.4062 12.4427V19.1984H67.9405V1.03044H62.4062V7.67165H53.5132V1.03044H47.9787V19.1984H53.5132V12.4427H62.4062ZM83.3532 19.1984C84.6127 19.1984 85.7577 19.084 86.8265 18.7785C89.689 17.9769 91.5592 15.6487 91.5592 12.4808C91.5592 9.46563 89.9562 7.36648 87.399 6.41215C86.1775 5.95425 84.7272 5.91598 83.3532 5.91598H77.6662V1.03044H72.1317V19.1984H83.3532ZM82.399 10.1909C83.1625 10.1909 83.8877 10.1909 84.5362 10.4197C85.4522 10.7251 85.9867 11.4885 85.9867 12.4045C85.9867 13.3588 85.4522 14.1602 84.5747 14.5419C83.9637 14.8091 83.3532 14.809 82.399 14.809H77.6662V10.1909H82.399ZM101.482 12.3281L108.085 19.1984H115.452L106.253 9.73275L115.108 1.03044H108.162L101.482 7.86265H99.9555V1.03044H94.4215V19.1984H99.9555V12.3281H101.482ZM126.839 0.534253C119.397 0.534253 114.931 4.73283 114.931 10.1526C114.931 15.5724 119.397 19.771 126.839 19.771C134.244 19.771 138.709 15.5724 138.709 10.1526C138.709 4.73283 134.244 0.534253 126.839 0.534253ZM126.839 15.3435C123.137 15.3435 120.771 13.1297 120.771 10.1526C120.771 7.17548 123.137 4.99995 126.839 4.99995C130.503 4.99995 132.908 7.17548 132.908 10.1526C132.908 13.1297 130.503 15.3435 126.839 15.3435ZM157.141 0H151.606V1.83204C144.66 1.98475 140.5 4.9236 140.5 10.1145C140.5 15.3053 144.66 18.0152 151.606 18.1679V20H157.141V18.1679C164.125 18.0152 168.286 15.3053 168.286 10.1145C168.286 4.9236 164.125 1.98475 157.141 1.83204V0ZM151.606 14.2748C147.79 14.1221 146.11 12.5572 146.11 10.1145C146.11 7.67165 147.79 5.91598 151.606 5.76325V14.2748ZM157.141 5.76325C160.996 5.91598 162.637 7.67165 162.637 10.1145C162.637 12.5572 160.996 14.1221 157.141 14.2748V5.76325ZM186.698 0H181.164V1.83204C174.218 1.98475 170.057 4.9236 170.057 10.1145C170.057 15.3053 174.218 18.0152 181.164 18.1679V20H186.698V18.1679C193.683 18.0152 197.845 15.3053 197.845 10.1145C197.845 4.9236 193.683 1.98475 186.698 1.83204V0ZM181.164 14.2748C177.347 14.1221 175.668 12.5572 175.668 10.1145C175.668 7.67165 177.347 5.91598 181.164 5.76325V14.2748ZM186.698 5.76325C190.553 5.91598 192.196 7.67165 192.196 10.1145C192.196 12.5572 190.553 14.1221 186.698 14.2748V5.76325Z" fill="#D0D6E5"/>
</svg>
