<svg width="72" height="41" viewBox="0 0 72 41" fill="none" xmlns="http://www.w3.org/2000/svg">
<path d="M9.80731 21.1613L0 15.5103V26.8123L9.80731 21.1613Z" fill="#D0D6E5"/>
<path d="M9.80731 35.349L0 29.698V41L9.80731 35.349Z" fill="#D0D6E5"/>
<path d="M0.597986 28.255L10.4053 22.604V33.906L0.597986 28.255Z" fill="#D0D6E5"/>
<path d="M71.402 21.1613L61.5947 15.5103V26.8123L71.402 21.1613Z" fill="#D0D6E5"/>
<path d="M71.402 35.349L61.5947 29.698V41L71.402 35.349Z" fill="#D0D6E5"/>
<path d="M62.1927 28.255L72 22.604V33.906L62.1927 28.255Z" fill="#D0D6E5"/>
<path d="M42.5781 39.1964L48.1993 29.3372H36.8372L42.5781 39.1964Z" fill="#D0D6E5"/>
<path d="M28.4651 39.1964L34.0864 29.3372H22.7243L28.4651 39.1964Z" fill="#D0D6E5"/>
<path d="M35.5216 29.9382L41.1428 39.7975H29.7807L35.5216 29.9382Z" fill="#D0D6E5"/>
<path d="M49.5149 27.2933L55.1362 17.4341H43.8937L49.5149 27.2933Z" fill="#D0D6E5"/>
<path d="M42.4585 18.0349L48.0797 27.8941H36.8372L42.4585 18.0349Z" fill="#D0D6E5"/>
<path d="M21.4086 27.2933L15.7873 17.4341H27.0298L21.4086 27.2933Z" fill="#D0D6E5"/>
<path d="M28.4651 18.0349L22.8438 27.8941H34.0863L28.4651 18.0349Z" fill="#D0D6E5"/>
<path d="M9.80731 5.65102L0 0V11.4223L9.80731 5.77126V5.65102Z" fill="#D0D6E5"/>
<path d="M71.402 5.65102L61.5947 0V11.4223L71.402 5.77126V5.65102Z" fill="#D0D6E5"/>
</svg>
