<svg width="140" height="31" viewBox="0 0 140 31" fill="none" xmlns="http://www.w3.org/2000/svg">
<path d="M21.5155 29.1511H12.9877V21.8784C12.9877 20.8384 12.8191 20.2129 12.482 19.9887C12.1703 19.7522 11.5663 19.5943 10.6584 19.5227V12.8023C12.3845 12.8023 13.2607 12.1306 13.3002 10.7809C13.3002 10.1955 13.1246 9.69476 12.7619 9.28725C12.4433 8.89207 11.963 8.69486 11.3142 8.69486C10.5741 8.69486 10.0683 8.98451 9.79534 9.55687C9.56797 10.0838 9.45119 10.8734 9.45119 11.9326V29.1511H1V11.4973C1 9.19404 1.44158 7.25897 2.32398 5.69211C3.194 4.15221 4.4012 2.98053 5.94559 2.17784C7.47064 1.39441 9.19753 1 11.1247 1C14.2599 1 16.6998 1.88203 18.4453 3.63917C20.1459 5.36317 21.0089 7.39069 21.0484 9.72788C21.0484 10.8726 20.8342 11.9126 20.3926 12.8408C19.9711 13.7621 19.3083 14.5263 18.4066 15.1318C19.3602 15.4083 20.1265 16.0138 20.6973 16.9482C21.2425 17.8495 21.5147 18.9881 21.5147 20.3516V29.1511H21.5155ZM43.6558 29.1511H35.7506V19.2785C35.7506 18.7184 35.6214 18.2316 35.3616 17.8102C35.1404 17.4297 34.7901 17.1123 34.316 16.8696C33.8296 16.6316 33.3687 16.513 32.9464 16.513C32.1932 16.513 31.518 16.751 30.921 17.2248C30.3758 17.6592 30.1036 18.2978 30.1036 19.1267C30.1036 19.9772 30.3371 20.6867 30.8042 21.2528C31.2651 21.7536 31.9008 22.0424 32.719 22.1226C33.4264 22.0401 34.1202 21.8672 34.7831 21.608V29.3953C34.2766 29.4284 33.8157 29.4615 33.3942 29.4869C32.9789 29.5124 32.6672 29.5339 32.4785 29.5455C29.5189 29.5455 27.0658 28.5587 25.1185 26.5843C23.223 24.6223 22.2757 22.1611 22.2757 19.1984C22.2757 17.5992 22.5742 16.1517 23.1712 14.8483C23.7814 13.4594 24.5532 12.354 25.4689 11.5374C26.4162 10.6554 27.5523 9.9844 28.8894 9.51681C29.993 9.12779 31.3425 8.93059 32.9387 8.93059C35.3276 9.00993 37.3329 9.61541 38.9422 10.7409C40.526 11.8401 41.7069 13.3215 42.4865 15.1703C43.2652 16.9806 43.655 18.9149 43.655 20.9748V29.1511H43.6558ZM73.8575 29.1511H66.0296V18.5667C66.0296 16.8288 65.5757 15.9607 64.66 15.9607C63.7382 16.0392 63.2579 16.8427 63.2193 18.3695V29.1511H55.393V18.2108C55.393 16.8026 54.9127 16.0785 53.9592 16.0385C53.018 16.0385 52.5509 16.7895 52.5509 18.2971V29.1511H44.8004V17.0337C44.8004 14.3614 45.6309 12.3478 47.2991 10.9851C48.9215 9.65547 50.882 8.97064 53.1796 8.93136C54.4649 8.93136 55.6845 9.16862 56.8337 9.64238C57.9497 10.0761 58.781 10.6692 59.3262 11.4195C59.9294 10.6962 60.7863 10.0838 61.903 9.59615C62.9092 9.19481 64.1032 8.97064 65.479 8.93136C67.7511 8.93136 69.724 9.64238 71.4052 11.0644C73.0393 12.4395 73.8583 14.4539 73.8583 17.1061V29.1511H73.8575V29.1511Z" stroke="#D0D6E5" stroke-miterlimit="2.613"/>
<path fill-rule="evenodd" clip-rule="evenodd" d="M95.2755 19.3364C95.2755 21.521 94.7952 23.4299 93.8285 25.063C92.8874 26.6622 91.6546 27.8871 90.1296 28.736C88.6633 29.5394 87.0269 29.9608 85.2296 30.0001C81.8354 30.0001 79.1867 28.8554 77.285 26.5636C75.4305 24.2935 74.4816 21.3184 74.4421 17.6385V1.91988H82.2692V19.2578C82.2692 20.1398 82.5167 20.9025 83.0093 21.548C83.4834 22.1797 84.1786 22.4955 85.1121 22.4955C85.9821 22.4955 86.6572 22.232 87.1375 21.7059C87.6177 21.1798 87.8776 20.4949 87.917 19.6522C87.917 18.8349 87.6433 18.1524 87.0981 17.5985C86.5722 17.1109 85.911 16.8474 85.1121 16.8089C84.4957 16.8089 83.8345 16.9537 83.1277 17.2434V9.37825C83.4331 9.35822 83.6729 9.33204 83.8538 9.31894C84.0348 9.29968 84.191 9.29275 84.3279 9.28659C84.464 9.27965 84.6133 9.27349 84.7687 9.26039C84.9303 9.25346 85.0796 9.24113 85.2296 9.22727C87.1885 9.22727 88.9286 9.64864 90.4467 10.4914C91.9075 11.2679 93.0962 12.4527 93.9917 14.0388C94.8486 15.5455 95.2755 17.3104 95.2755 19.3364ZM103.086 29.5256H95.3373V1.84131H103.086V29.5256ZM124.642 16.889L114.907 22.3445L112.681 18.3496L116.503 16.1842C115.958 15.6303 115.322 15.3537 114.595 15.3537C113.784 15.3537 113.031 15.7027 112.343 16.4145C111.701 17.0993 111.363 17.9675 111.324 19.0205C111.324 20.3509 111.701 21.4155 112.454 22.2189C113.2 23.0085 114.135 23.4438 115.257 23.5216C117.037 23.443 118.685 22.5409 120.203 20.8046L124.571 25.3064C123.48 26.7085 122.02 27.8262 120.203 28.6574C118.451 29.447 116.582 29.8414 114.596 29.8414C112.844 29.8414 111.169 29.4863 109.572 28.7683C108.015 28.0565 106.723 26.9526 105.71 25.4505C104.802 23.9953 104.316 22.1658 104.238 19.968C104.238 17.8088 104.705 15.8999 105.634 14.2414C106.581 12.6221 107.827 11.3711 109.372 10.4891C110.831 9.68985 112.463 9.25602 114.128 9.22496C115.784 9.22496 117.303 9.54079 118.686 10.1725C119.996 10.7718 121.191 11.653 122.269 12.8116C123.26 13.9132 124.051 15.2682 124.642 16.889ZM140 16.1048C137.677 16.1048 135.931 16.4075 134.769 17.02C133.529 17.6455 132.907 19.1461 132.907 21.5218L132.823 29.5263H125.08V9.7796H132.556V12.2347C133.212 11.0499 133.99 10.2534 134.899 9.85894C135.716 9.53001 136.807 9.34513 138.17 9.30584H139.999V16.1048H140Z" fill="#D0D6E5"/>
</svg>
