<svg width="102" height="29" viewBox="0 0 102 29" fill="none" xmlns="http://www.w3.org/2000/svg">
<path d="M1.84649 18.0985C1.84649 18.0985 3.59867 20.4488 6.69692 20.4488C8.4491 20.4488 10.0135 19.6143 10.0135 17.9742C10.0135 14.5715 1.18942 15.1902 1.18942 10.1783C1.18942 7.36274 3.62995 5.97074 6.79078 5.97074C8.38652 5.97074 11.578 6.58941 11.578 8.78632V10.1165H9.57549V9.37405C9.57549 8.22952 7.8859 7.79645 6.85336 7.79645C4.66314 7.79645 3.349 8.53885 3.349 10.0546C3.349 13.5507 12.1731 12.7464 12.1731 17.9123C12.1731 20.5107 9.79517 22.2745 6.66563 22.2745C2.56613 22.2745 0.626221 19.5518 0.626221 19.5518L1.84649 18.0985ZM16.1136 2.66152C16.1136 2.22845 15.8633 1.98098 15.4252 1.98098H14.1111V0.155273H16.3326C17.678 0.155273 18.2419 0.619274 18.2419 1.94941V12.2824H19.8689C20.4634 12.2824 21.2143 12.0968 21.6524 11.54L25.6886 6.34323H28.2856L23.7481 12.0356C22.9658 12.9945 22.5591 13.1499 22.5591 13.1499V13.2117C22.5591 13.2117 23.0284 13.4283 23.529 14.3562L26.377 19.399C26.6586 19.9242 26.9715 20.0796 27.8163 20.0796H28.6611V21.9046H27.1905C25.626 21.9046 25.188 21.6572 24.4684 20.358L21.3388 14.7893C20.9946 14.1707 20.2437 14.1088 19.6805 14.1088H18.2412V21.9046H16.1129V2.66152H16.1136ZM32.3219 26.5124C33.6986 26.5124 34.6372 25.3988 35.2317 23.9752L36.1704 21.8408L30.6316 8.87912C30.3813 8.32232 30.0997 8.16765 29.5365 8.16765H29.2236V6.34258H30.1936C31.6016 6.34258 32.0396 6.65192 32.6028 8.04392L36.6391 17.7576C36.952 18.531 37.2023 19.428 37.2023 19.428H37.2649C37.2649 19.428 37.4839 18.531 37.7968 17.7576L41.6766 8.04392C42.2085 6.65192 42.6778 6.34258 44.1178 6.34258H45.0877V8.16765H44.7748C44.2116 8.16765 43.8988 8.32232 43.6797 8.87912L36.8894 25.1513C36.0752 27.1311 34.4801 28.4 32.3831 28.4C30.1929 28.4 28.972 26.8836 28.972 26.8836L29.9732 25.3369C29.9745 25.3685 30.9758 26.5124 32.3219 26.5124ZM54.6934 5.75485C59.2616 5.75485 61.7654 9.06472 61.7654 13.2414C61.7654 13.7054 61.6708 14.6952 61.6708 14.6952H50.6565C50.9694 17.4799 53.0345 18.9337 55.4437 18.9337C58.01 18.9337 59.9187 17.1705 59.9187 17.1705L61.577 19.8933C61.577 19.8933 59.1364 22.2752 55.1621 22.2752C49.8736 22.2752 46.5883 18.5013 46.5883 14.0153C46.5883 9.15752 49.9056 5.75485 54.6934 5.75485ZM57.6965 11.9731C57.6339 10.0862 56.3204 8.78696 54.6934 8.78696C52.659 8.78696 51.2197 9.99336 50.7817 11.9731H57.6965ZM65.6119 10.1474C65.6119 9.68338 65.3616 9.46685 64.9236 9.46685H63.6714V6.12605H67.3328C68.7408 6.12605 69.4292 6.77565 69.4292 7.88925V8.35325C69.4292 8.69352 69.3666 9.03378 69.3666 9.03378H69.4292C70.1175 7.70365 71.8384 5.75485 75.0618 5.75485C78.5981 5.75485 80.6319 7.57992 80.6319 11.7566V17.9129C80.6319 18.346 80.8822 18.5941 81.3203 18.5941H82.5725V21.904H78.7859C77.2833 21.904 76.6576 21.2853 76.6576 19.7999V12.5608C76.6576 10.6423 76.1569 9.34312 74.1544 9.34312C72.0262 9.34312 70.4304 10.6733 69.8672 12.5608C69.6482 13.2104 69.555 13.9219 69.555 14.6643V21.9033H65.6119V10.1474ZM91.2069 5.75485C94.8996 5.75485 96.1199 7.98205 96.1199 7.98205H96.1825V7.57992C96.1825 6.86845 96.6838 6.12605 97.9347 6.12605H101.627V9.46685H100.406C99.9997 9.46685 99.7181 9.68338 99.7181 10.0855V20.9438C99.7181 26.3571 95.4628 28.3993 91.3008 28.3993C89.2983 28.3993 87.17 27.8425 85.6368 27.0383L86.8577 23.9443C86.8577 23.9443 88.8283 24.9967 91.2701 24.9967C93.6794 24.9967 95.7757 23.9752 95.7757 21.1294V20.387C95.7757 20.0158 95.807 19.5518 95.807 19.5518H95.7444C94.8058 20.8819 93.4284 21.594 91.3014 21.594C86.7326 21.594 84.1356 17.9432 84.1356 13.6119C84.1356 9.28061 86.6068 5.75485 91.2069 5.75485ZM95.8696 13.6435C95.8696 10.0546 94.0548 9.09565 91.8953 9.09565C89.486 9.09565 88.1712 10.8279 88.1712 13.4882C88.1712 16.2419 89.5792 18.2835 92.1456 18.2835C94.0548 18.2841 95.8696 17.2008 95.8696 13.6435Z" fill="#D0D6E5"/>
</svg>
