<svg width="614" height="530" viewBox="0 0 614 530" fill="none" xmlns="http://www.w3.org/2000/svg">
<rect y="219" width="281.332" height="382" rx="8.98824" fill="#D0D6E5"/>
<rect x="17.9765" y="242.369" width="35.9529" height="35.9529" rx="4.49412" fill="white"/>
<rect x="66.5129" y="250.459" width="186.056" height="8.98824" rx="1.79765" fill="white"/>
<rect x="66.5129" y="264.84" width="135.722" height="5.39294" rx="1.79765" fill="white"/>
<rect x="17.9765" y="387.979" width="135.722" height="5.39294" rx="1.79765" fill="white"/>
<rect x="17.9765" y="396.967" width="77.2988" height="4.49412" rx="1.79765" fill="white"/>
<rect x="25.1671" y="413.146" width="47.6376" height="2.69647" rx="1.34824" fill="white"/>
<rect x="17.9765" y="413.146" width="2.69647" height="2.69647" rx="1.34824" fill="white"/>
<rect x="25.1671" y="419.438" width="47.6376" height="2.69647" rx="1.34824" fill="white"/>
<rect x="17.9765" y="419.438" width="2.69647" height="2.69647" rx="1.34824" fill="white"/>
<rect x="25.1671" y="425.729" width="47.6376" height="2.69647" rx="1.34824" fill="white"/>
<rect x="17.9765" y="425.729" width="2.69647" height="2.69647" rx="1.34824" fill="white"/>
<rect x="17.9765" y="437.414" width="135.722" height="5.39294" rx="1.79765" fill="white"/>
<rect x="17.9765" y="446.402" width="77.2988" height="4.49412" rx="1.79765" fill="white"/>
<rect x="25.1671" y="462.581" width="47.6376" height="2.69647" rx="1.34824" fill="white"/>
<rect x="17.9765" y="462.581" width="2.69647" height="2.69647" rx="1.34824" fill="white"/>
<rect x="25.1671" y="468.873" width="47.6376" height="2.69647" rx="1.34824" fill="white"/>
<rect x="17.9765" y="468.873" width="2.69647" height="2.69647" rx="1.34824" fill="white"/>
<rect x="25.1671" y="475.165" width="47.6376" height="2.69647" rx="1.34824" fill="white"/>
<rect x="17.9765" y="475.165" width="2.69647" height="2.69647" rx="1.34824" fill="white"/>
<path d="M21.7605 380.908C21.1074 380.908 20.5171 380.767 19.9898 380.485C19.4685 380.204 19.0581 379.817 18.7584 379.326C18.4648 378.829 18.318 378.271 18.318 377.654C18.318 377.037 18.4648 376.483 18.7584 375.991C19.0581 375.494 19.4685 375.104 19.9898 374.823C20.5171 374.541 21.1074 374.4 21.7605 374.4C22.4137 374.4 23.0009 374.541 23.5222 374.823C24.0435 375.104 24.454 375.494 24.7536 375.991C25.0532 376.483 25.203 377.037 25.203 377.654C25.203 378.271 25.0532 378.829 24.7536 379.326C24.454 379.817 24.0435 380.204 23.5222 380.485C23.0009 380.767 22.4137 380.908 21.7605 380.908ZM21.7605 379.667C22.132 379.667 22.4676 379.584 22.7672 379.416C23.0668 379.242 23.3005 379.002 23.4683 378.697C23.6421 378.391 23.7289 378.044 23.7289 377.654C23.7289 377.265 23.6421 376.917 23.4683 376.611C23.3005 376.306 23.0668 376.069 22.7672 375.901C22.4676 375.728 22.132 375.641 21.7605 375.641C21.389 375.641 21.0534 375.728 20.7538 375.901C20.4542 376.069 20.2175 376.306 20.0438 376.611C19.876 376.917 19.7921 377.265 19.7921 377.654C19.7921 378.044 19.876 378.391 20.0438 378.697C20.2175 379.002 20.4542 379.242 20.7538 379.416C21.0534 379.584 21.389 379.667 21.7605 379.667ZM29.0122 376.297C29.4736 376.297 29.8781 376.393 30.2256 376.585C30.5732 376.77 30.8398 377.034 31.0256 377.375C31.2173 377.717 31.3132 378.113 31.3132 378.562C31.3132 379.023 31.1993 379.434 30.9716 379.793C30.7499 380.147 30.4383 380.422 30.0369 380.62C29.6354 380.812 29.18 380.908 28.6706 380.908C27.8258 380.908 27.1606 380.638 26.6753 380.099C26.1959 379.554 25.9562 378.757 25.9562 377.708C25.9562 376.737 26.1659 375.964 26.5854 375.389C27.0108 374.808 27.661 374.427 28.5358 374.248L30.8368 373.789L31.0256 374.994L28.9942 375.398C28.4429 375.506 28.0325 375.686 27.7628 375.937C27.4992 376.189 27.3434 376.546 27.2954 377.007C27.5052 376.779 27.7568 376.605 28.0505 376.486C28.3441 376.36 28.6647 376.297 29.0122 376.297ZM28.6796 379.82C29.0392 379.82 29.3268 379.703 29.5425 379.47C29.7642 379.236 29.8751 378.939 29.8751 378.58C29.8751 378.214 29.7642 377.924 29.5425 377.708C29.3268 377.492 29.0392 377.384 28.6796 377.384C28.3141 377.384 28.0205 377.492 27.7988 377.708C27.5771 377.924 27.4662 378.214 27.4662 378.58C27.4662 378.945 27.5801 379.245 27.8078 379.479C28.0355 379.706 28.3261 379.82 28.6796 379.82ZM35.1139 375.892C35.5633 375.892 35.9708 375.997 36.3363 376.207C36.7078 376.411 36.9984 376.701 37.2081 377.079C37.4179 377.45 37.5227 377.885 37.5227 378.382C37.5227 378.88 37.4179 379.317 37.2081 379.694C36.9984 380.066 36.7078 380.357 36.3363 380.566C35.9708 380.77 35.5633 380.872 35.1139 380.872C34.4967 380.872 34.0113 380.677 33.6578 380.288V382.544H32.2556V375.964H33.5949V376.522C33.9424 376.102 34.4487 375.892 35.1139 375.892ZM34.8712 379.721C35.2307 379.721 35.5243 379.602 35.752 379.362C35.9857 379.116 36.1026 378.79 36.1026 378.382C36.1026 377.975 35.9857 377.651 35.752 377.411C35.5243 377.166 35.2307 377.043 34.8712 377.043C34.5117 377.043 34.2151 377.166 33.9814 377.411C33.7537 377.651 33.6398 377.975 33.6398 378.382C33.6398 378.79 33.7537 379.116 33.9814 379.362C34.2151 379.602 34.5117 379.721 34.8712 379.721ZM40.305 375.892C41.054 375.892 41.6293 376.072 42.0307 376.432C42.4322 376.785 42.633 377.322 42.633 378.041V380.8H41.3207V380.198C41.057 380.647 40.5657 380.872 39.8466 380.872C39.4751 380.872 39.1515 380.809 38.8759 380.683C38.6062 380.557 38.3995 380.384 38.2557 380.162C38.1119 379.94 38.04 379.688 38.04 379.407C38.04 378.957 38.2077 378.604 38.5433 378.346C38.8849 378.089 39.4092 377.96 40.1163 377.96H41.2308C41.2308 377.654 41.1379 377.42 40.9522 377.259C40.7664 377.091 40.4878 377.007 40.1163 377.007C39.8586 377.007 39.6039 377.049 39.3523 377.133C39.1066 377.211 38.8968 377.319 38.7231 377.456L38.2197 376.477C38.4834 376.291 38.798 376.147 39.1635 376.045C39.535 375.943 39.9155 375.892 40.305 375.892ZM40.1971 379.928C40.4368 379.928 40.6496 379.874 40.8353 379.766C41.0211 379.652 41.1529 379.488 41.2308 379.272V378.778H40.2691C39.6938 378.778 39.4062 378.966 39.4062 379.344C39.4062 379.524 39.4751 379.667 39.6129 379.775C39.7567 379.877 39.9515 379.928 40.1971 379.928ZM46.944 378.283C47.2316 378.373 47.4533 378.511 47.6091 378.697C47.7709 378.882 47.8518 379.104 47.8518 379.362C47.8518 379.667 47.747 379.937 47.5372 380.171C47.3275 380.399 47.0399 380.575 46.6744 380.701C46.3088 380.827 45.8954 380.89 45.434 380.89C45.0565 380.89 44.685 380.851 44.3194 380.773C43.9539 380.695 43.6154 380.578 43.3038 380.422L43.6813 379.443C44.1906 379.688 44.7539 379.811 45.3711 379.811C45.7006 379.811 45.9583 379.763 46.1441 379.667C46.3358 379.566 46.4317 379.425 46.4317 379.245C46.4317 379.089 46.3658 378.972 46.2339 378.894C46.1021 378.811 45.9104 378.769 45.6587 378.769H44.67V377.897H45.5329C45.7785 377.897 45.9673 377.858 46.0991 377.78C46.2309 377.702 46.2969 377.588 46.2969 377.438C46.2969 377.283 46.213 377.163 46.0452 377.079C45.8834 376.995 45.6497 376.953 45.3441 376.953C44.8767 376.953 44.3674 377.064 43.8161 377.286L43.4746 376.315C44.1457 376.021 44.7988 375.874 45.434 375.874C45.8714 375.874 46.2609 375.928 46.6025 376.036C46.95 376.144 47.2226 376.303 47.4204 376.513C47.6181 376.716 47.717 376.956 47.717 377.232C47.717 377.459 47.6481 377.666 47.5103 377.852C47.3724 378.032 47.1837 378.175 46.944 378.283ZM51.1368 380.872C50.6275 380.872 50.1691 380.767 49.7616 380.557C49.3601 380.342 49.0455 380.045 48.8178 379.667C48.5901 379.29 48.4763 378.862 48.4763 378.382C48.4763 377.903 48.5901 377.474 48.8178 377.097C49.0455 376.719 49.3601 376.426 49.7616 376.216C50.1691 376 50.6275 375.892 51.1368 375.892C51.6461 375.892 52.1015 376 52.503 376.216C52.9045 376.426 53.2191 376.719 53.4468 377.097C53.6745 377.474 53.7883 377.903 53.7883 378.382C53.7883 378.862 53.6745 379.29 53.4468 379.667C53.2191 380.045 52.9045 380.342 52.503 380.557C52.1015 380.767 51.6461 380.872 51.1368 380.872ZM51.1368 379.721C51.4963 379.721 51.79 379.602 52.0177 379.362C52.2514 379.116 52.3682 378.79 52.3682 378.382C52.3682 377.975 52.2514 377.651 52.0177 377.411C51.79 377.166 51.4963 377.043 51.1368 377.043C50.7773 377.043 50.4807 377.166 50.247 377.411C50.0133 377.651 49.8964 377.975 49.8964 378.382C49.8964 378.79 50.0133 379.116 50.247 379.362C50.4807 379.602 50.7773 379.721 51.1368 379.721ZM58.4469 378.274C59.0162 378.466 59.3008 378.85 59.3008 379.425C59.3008 379.862 59.136 380.201 58.8064 380.44C58.4769 380.68 57.9855 380.8 57.3324 380.8H54.7528V375.964H57.2245C57.8297 375.964 58.3031 376.075 58.6447 376.297C58.9862 376.513 59.157 376.818 59.157 377.214C59.157 377.453 59.0941 377.666 58.9682 377.852C58.8484 378.032 58.6746 378.172 58.4469 378.274ZM56.0381 377.951H57.0987C57.59 377.951 57.8357 377.777 57.8357 377.429C57.8357 377.088 57.59 376.917 57.0987 376.917H56.0381V377.951ZM57.2155 379.847C57.7309 379.847 57.9885 379.67 57.9885 379.317C57.9885 379.131 57.9286 378.996 57.8088 378.912C57.6889 378.823 57.5002 378.778 57.2425 378.778H56.0381V379.847H57.2155ZM62.2226 375.892C62.9716 375.892 63.5469 376.072 63.9483 376.432C64.3498 376.785 64.5506 377.322 64.5506 378.041V380.8H63.2383V380.198C62.9746 380.647 62.4833 380.872 61.7642 380.872C61.3927 380.872 61.0691 380.809 60.7935 380.683C60.5238 380.557 60.3171 380.384 60.1733 380.162C60.0295 379.94 59.9576 379.688 59.9576 379.407C59.9576 378.957 60.1253 378.604 60.4609 378.346C60.8025 378.089 61.3268 377.96 62.0339 377.96H63.1484C63.1484 377.654 63.0555 377.42 62.8698 377.259C62.684 377.091 62.4054 377.007 62.0339 377.007C61.7762 377.007 61.5215 377.049 61.2699 377.133C61.0242 377.211 60.8144 377.319 60.6407 377.456L60.1373 376.477C60.401 376.291 60.7156 376.147 61.0811 376.045C61.4526 375.943 61.8331 375.892 62.2226 375.892ZM62.1147 379.928C62.3544 379.928 62.5672 379.874 62.7529 379.766C62.9387 379.652 63.0705 379.488 63.1484 379.272V378.778H62.1867C61.6114 378.778 61.3238 378.966 61.3238 379.344C61.3238 379.524 61.3927 379.667 61.5305 379.775C61.6743 379.877 61.8691 379.928 62.1147 379.928ZM65.7686 375.964H67.1618V377.852H69.265V375.964H70.6672V380.8H69.265V378.993H67.1618V380.8H65.7686V375.964ZM72.0095 375.964H73.4026V378.841L75.7576 375.964H77.0429V380.8H75.6497V377.924L73.3038 380.8H72.0095V375.964ZM83.0916 378.4C83.0916 378.418 83.0826 378.544 83.0646 378.778H79.4064C79.4723 379.077 79.6281 379.314 79.8738 379.488C80.1195 379.661 80.4251 379.748 80.7906 379.748C81.0423 379.748 81.264 379.712 81.4557 379.641C81.6535 379.563 81.8362 379.443 82.004 379.281L82.75 380.09C82.2946 380.611 81.6295 380.872 80.7547 380.872C80.2094 380.872 79.727 380.767 79.3076 380.557C78.8881 380.342 78.5645 380.045 78.3368 379.667C78.1091 379.29 77.9953 378.862 77.9953 378.382C77.9953 377.909 78.1061 377.483 78.3278 377.106C78.5555 376.722 78.8641 376.426 79.2536 376.216C79.6491 376 80.0895 375.892 80.5749 375.892C81.0483 375.892 81.4767 375.994 81.8602 376.198C82.2437 376.402 82.5433 376.695 82.759 377.079C82.9807 377.456 83.0916 377.897 83.0916 378.4ZM80.5839 376.953C80.2663 376.953 79.9996 377.043 79.7839 377.223C79.5682 377.402 79.4364 377.648 79.3884 377.96H81.7703C81.7224 377.654 81.5906 377.411 81.3748 377.232C81.1591 377.046 80.8955 376.953 80.5839 376.953Z" fill="white"/>
<rect x="17.9765" y="314.275" width="156.395" height="4.49412" rx="1.79765" fill="white"/>
<rect x="17.9765" y="323.264" width="156.395" height="4.49412" rx="1.79765" fill="white"/>
<rect x="17.9765" y="332.252" width="156.395" height="4.49412" rx="1.79765" fill="white"/>
<rect x="17.9765" y="341.24" width="106.96" height="4.49412" rx="1.79765" fill="white"/>
<path d="M21.7605 307.204C21.1074 307.204 20.5171 307.064 19.9898 306.782C19.4685 306.5 19.0581 306.114 18.7584 305.622C18.4648 305.125 18.318 304.568 18.318 303.951C18.318 303.333 18.4648 302.779 18.7584 302.288C19.0581 301.79 19.4685 301.401 19.9898 301.119C20.5171 300.838 21.1074 300.697 21.7605 300.697C22.4137 300.697 23.0009 300.838 23.5222 301.119C24.0435 301.401 24.454 301.79 24.7536 302.288C25.0532 302.779 25.203 303.333 25.203 303.951C25.203 304.568 25.0532 305.125 24.7536 305.622C24.454 306.114 24.0435 306.5 23.5222 306.782C23.0009 307.064 22.4137 307.204 21.7605 307.204ZM21.7605 305.964C22.132 305.964 22.4676 305.88 22.7672 305.712C23.0668 305.539 23.3005 305.299 23.4683 304.993C23.6421 304.688 23.7289 304.34 23.7289 303.951C23.7289 303.561 23.6421 303.214 23.4683 302.908C23.3005 302.602 23.0668 302.366 22.7672 302.198C22.4676 302.024 22.132 301.937 21.7605 301.937C21.389 301.937 21.0534 302.024 20.7538 302.198C20.4542 302.366 20.2175 302.602 20.0438 302.908C19.876 303.214 19.7921 303.561 19.7921 303.951C19.7921 304.34 19.876 304.688 20.0438 304.993C20.2175 305.299 20.4542 305.539 20.7538 305.712C21.0534 305.88 21.389 305.964 21.7605 305.964ZM31.0633 307.168C30.548 307.168 30.0836 307.064 29.6702 306.854C29.2627 306.638 28.9421 306.341 28.7084 305.964C28.4807 305.586 28.3669 305.158 28.3669 304.679C28.3669 304.199 28.4807 303.771 28.7084 303.393C28.9421 303.016 29.2627 302.722 29.6702 302.512C30.0836 302.297 30.548 302.189 31.0633 302.189C31.5727 302.189 32.0161 302.297 32.3936 302.512C32.7771 302.722 33.0557 303.025 33.2295 303.42L32.1419 304.005C31.8903 303.561 31.5277 303.339 31.0544 303.339C30.6888 303.339 30.3862 303.459 30.1465 303.699C29.9069 303.939 29.787 304.265 29.787 304.679C29.787 305.092 29.9069 305.419 30.1465 305.658C30.3862 305.898 30.6888 306.018 31.0544 306.018C31.5337 306.018 31.8963 305.796 32.1419 305.353L33.2295 305.946C33.0557 306.33 32.7771 306.629 32.3936 306.845C32.0161 307.061 31.5727 307.168 31.0633 307.168ZM38.721 304.697C38.721 304.715 38.712 304.84 38.694 305.074H35.0358C35.1017 305.374 35.2575 305.61 35.5032 305.784C35.7489 305.958 36.0545 306.045 36.42 306.045C36.6716 306.045 36.8934 306.009 37.0851 305.937C37.2828 305.859 37.4656 305.739 37.6334 305.577L38.3794 306.386C37.924 306.908 37.2589 307.168 36.384 307.168C35.8387 307.168 35.3564 307.064 34.9369 306.854C34.5175 306.638 34.1939 306.341 33.9662 305.964C33.7385 305.586 33.6246 305.158 33.6246 304.679C33.6246 304.205 33.7355 303.78 33.9572 303.402C34.1849 303.019 34.4935 302.722 34.883 302.512C35.2785 302.297 35.7189 302.189 36.2043 302.189C36.6776 302.189 37.1061 302.291 37.4896 302.495C37.8731 302.698 38.1727 302.992 38.3884 303.375C38.6101 303.753 38.721 304.193 38.721 304.697ZM36.2132 303.25C35.8957 303.25 35.629 303.339 35.4133 303.519C35.1976 303.699 35.0658 303.945 35.0178 304.256H37.3997C37.3518 303.951 37.2199 303.708 37.0042 303.528C36.7885 303.342 36.5248 303.25 36.2132 303.25ZM42.5911 302.593C43.0525 302.593 43.457 302.689 43.8045 302.881C44.1521 303.067 44.4187 303.33 44.6045 303.672C44.7962 304.014 44.8921 304.409 44.8921 304.858C44.8921 305.32 44.7782 305.73 44.5505 306.09C44.3288 306.443 44.0172 306.719 43.6158 306.917C43.2143 307.108 42.7589 307.204 42.2496 307.204C41.4047 307.204 40.7395 306.935 40.2542 306.395C39.7748 305.85 39.5351 305.053 39.5351 304.005C39.5351 303.034 39.7448 302.261 40.1643 301.686C40.5897 301.104 41.2399 300.724 42.1147 300.544L44.4157 300.086L44.6045 301.29L42.5731 301.695C42.0219 301.802 41.6114 301.982 41.3417 302.234C41.0781 302.486 40.9223 302.842 40.8744 303.303C41.0841 303.076 41.3357 302.902 41.6294 302.782C41.923 302.656 42.2436 302.593 42.5911 302.593ZM42.2585 306.117C42.6181 306.117 42.9057 306 43.1214 305.766C43.3431 305.533 43.454 305.236 43.454 304.876C43.454 304.511 43.3431 304.22 43.1214 304.005C42.9057 303.789 42.6181 303.681 42.2585 303.681C41.893 303.681 41.5994 303.789 41.3777 304.005C41.156 304.22 41.0451 304.511 41.0451 304.876C41.0451 305.242 41.159 305.542 41.3867 305.775C41.6144 306.003 41.905 306.117 42.2585 306.117ZM50.5444 304.697C50.5444 304.715 50.5354 304.84 50.5174 305.074H46.8592C46.9251 305.374 47.0809 305.61 47.3266 305.784C47.5722 305.958 47.8778 306.045 48.2434 306.045C48.495 306.045 48.7168 306.009 48.9085 305.937C49.1062 305.859 49.289 305.739 49.4568 305.577L50.2028 306.386C49.7474 306.908 49.0823 307.168 48.2074 307.168C47.6621 307.168 47.1798 307.064 46.7603 306.854C46.3409 306.638 46.0173 306.341 45.7896 305.964C45.5619 305.586 45.448 305.158 45.448 304.679C45.448 304.205 45.5589 303.78 45.7806 303.402C46.0083 303.019 46.3169 302.722 46.7064 302.512C47.1019 302.297 47.5423 302.189 48.0277 302.189C48.501 302.189 48.9295 302.291 49.313 302.495C49.6965 302.698 49.9961 302.992 50.2118 303.375C50.4335 303.753 50.5444 304.193 50.5444 304.697ZM48.0366 303.25C47.7191 303.25 47.4524 303.339 47.2367 303.519C47.021 303.699 46.8891 303.945 46.8412 304.256H49.2231C49.1752 303.951 49.0433 303.708 48.8276 303.528C48.6119 303.342 48.3482 303.25 48.0366 303.25Z" fill="white"/>
<rect x="17.0777" y="520.106" width="156.395" height="4.49412" rx="1.79765" fill="white"/>
<rect x="17.0777" y="529.094" width="156.395" height="4.49412" rx="1.79765" fill="white"/>
<path d="M20.8617 513.035C20.2086 513.035 19.6183 512.894 19.091 512.612C18.5697 512.331 18.1593 511.944 17.8596 511.453C17.566 510.956 17.4192 510.398 17.4192 509.781C17.4192 509.164 17.566 508.61 17.8596 508.118C18.1593 507.621 18.5697 507.231 19.091 506.95C19.6183 506.668 20.2086 506.527 20.8617 506.527C21.5149 506.527 22.1021 506.668 22.6234 506.95C23.1447 507.231 23.5552 507.621 23.8548 508.118C24.1544 508.61 24.3042 509.164 24.3042 509.781C24.3042 510.398 24.1544 510.956 23.8548 511.453C23.5552 511.944 23.1447 512.331 22.6234 512.612C22.1021 512.894 21.5149 513.035 20.8617 513.035ZM20.8617 511.794C21.2332 511.794 21.5688 511.711 21.8684 511.543C22.168 511.369 22.4017 511.129 22.5695 510.824C22.7433 510.518 22.8301 510.171 22.8301 509.781C22.8301 509.392 22.7433 509.044 22.5695 508.738C22.4017 508.433 22.168 508.196 21.8684 508.028C21.5688 507.855 21.2332 507.768 20.8617 507.768C20.4902 507.768 20.1546 507.855 19.855 508.028C19.5554 508.196 19.3187 508.433 19.145 508.738C18.9772 509.044 18.8933 509.392 18.8933 509.781C18.8933 510.171 18.9772 510.518 19.145 510.824C19.3187 511.129 19.5554 511.369 19.855 511.543C20.1546 511.711 20.4902 511.794 20.8617 511.794ZM30.1268 508.091V512.927H28.7246V509.242H26.7112V512.927H25.3181V508.091H30.1268ZM34.0148 509.637C34.644 509.643 35.1204 509.784 35.4439 510.06C35.7675 510.335 35.9293 510.731 35.9293 511.246C35.9293 511.785 35.7465 512.202 35.381 512.496C35.0155 512.789 34.4972 512.936 33.826 512.936L31.4711 512.927V508.091H32.8643V509.637H34.0148ZM36.4506 508.091H37.8438V512.927H36.4506V508.091ZM33.7002 511.938C33.9699 511.944 34.1766 511.887 34.3204 511.768C34.4642 511.648 34.5361 511.468 34.5361 511.228C34.5361 510.995 34.4642 510.824 34.3204 510.716C34.1826 510.608 33.9759 510.551 33.7002 510.545L32.8643 510.536V511.938H33.7002ZM43.2581 509.242H41.6222V512.927H40.229V509.242H38.5932V508.091H43.2581V509.242ZM49.4003 508.019C49.8497 508.019 50.2572 508.124 50.6227 508.334C50.9942 508.538 51.2848 508.828 51.4945 509.206C51.7043 509.577 51.8091 510.012 51.8091 510.509C51.8091 511.007 51.7043 511.444 51.4945 511.821C51.2848 512.193 50.9942 512.484 50.6227 512.693C50.2572 512.897 49.8497 512.999 49.4003 512.999C48.7831 512.999 48.2977 512.804 47.9442 512.415V514.671H46.542V508.091H47.8813V508.649C48.2288 508.229 48.7351 508.019 49.4003 508.019ZM49.1576 511.848C49.5171 511.848 49.8107 511.729 50.0384 511.489C50.2721 511.243 50.389 510.917 50.389 510.509C50.389 510.102 50.2721 509.778 50.0384 509.538C49.8107 509.293 49.5171 509.17 49.1576 509.17C48.7981 509.17 48.5015 509.293 48.2678 509.538C48.0401 509.778 47.9262 510.102 47.9262 510.509C47.9262 510.917 48.0401 511.243 48.2678 511.489C48.5015 511.729 48.7981 511.848 49.1576 511.848ZM54.5914 508.019C55.3404 508.019 55.9157 508.199 56.3171 508.559C56.7186 508.912 56.9194 509.449 56.9194 510.168V512.927H55.6071V512.325C55.3434 512.774 54.8521 512.999 54.133 512.999C53.7615 512.999 53.4379 512.936 53.1623 512.81C52.8926 512.684 52.6859 512.511 52.5421 512.289C52.3983 512.067 52.3264 511.815 52.3264 511.534C52.3264 511.084 52.4941 510.731 52.8297 510.473C53.1713 510.216 53.6956 510.087 54.4026 510.087H55.5172C55.5172 509.781 55.4243 509.547 55.2386 509.386C55.0528 509.218 54.7742 509.134 54.4026 509.134C54.145 509.134 53.8903 509.176 53.6386 509.26C53.393 509.338 53.1832 509.446 53.0095 509.583L52.5061 508.604C52.7698 508.418 53.0844 508.274 53.4499 508.172C53.8214 508.07 54.2019 508.019 54.5914 508.019ZM54.4835 512.055C54.7232 512.055 54.936 512.001 55.1217 511.893C55.3075 511.78 55.4393 511.615 55.5172 511.399V510.905H54.5554C53.9802 510.905 53.6926 511.093 53.6926 511.471C53.6926 511.651 53.7615 511.794 53.8993 511.902C54.0431 512.004 54.2379 512.055 54.4835 512.055ZM60.9327 508.424C61.3941 508.424 61.7986 508.52 62.1462 508.712C62.4937 508.897 62.7604 509.161 62.9461 509.502C63.1379 509.844 63.2337 510.24 63.2337 510.689C63.2337 511.15 63.1199 511.561 62.8922 511.92C62.6705 512.274 62.3589 512.549 61.9574 512.747C61.5559 512.939 61.1005 513.035 60.5912 513.035C59.7463 513.035 59.0812 512.765 58.5958 512.226C58.1164 511.681 57.8767 510.884 57.8767 509.835C57.8767 508.864 58.0865 508.091 58.5059 507.516C58.9314 506.935 59.5815 506.554 60.4564 506.375L62.7574 505.916L62.9461 507.121L60.9148 507.525C60.3635 507.633 59.953 507.813 59.6834 508.064C59.4197 508.316 59.2639 508.673 59.216 509.134C59.4257 508.906 59.6774 508.732 59.971 508.613C60.2646 508.487 60.5852 508.424 60.9327 508.424ZM60.6002 511.947C60.9597 511.947 61.2473 511.83 61.463 511.597C61.6848 511.363 61.7956 511.066 61.7956 510.707C61.7956 510.341 61.6848 510.051 61.463 509.835C61.2473 509.619 60.9597 509.511 60.6002 509.511C60.2347 509.511 59.941 509.619 59.7193 509.835C59.4976 510.051 59.3868 510.341 59.3868 510.707C59.3868 511.072 59.5006 511.372 59.7283 511.606C59.956 511.833 60.2466 511.947 60.6002 511.947ZM66.4502 512.999C65.9409 512.999 65.4825 512.894 65.075 512.684C64.6735 512.469 64.3589 512.172 64.1312 511.794C63.9035 511.417 63.7897 510.989 63.7897 510.509C63.7897 510.03 63.9035 509.601 64.1312 509.224C64.3589 508.846 64.6735 508.553 65.075 508.343C65.4825 508.127 65.9409 508.019 66.4502 508.019C66.9595 508.019 67.4149 508.127 67.8164 508.343C68.2179 508.553 68.5325 508.846 68.7602 509.224C68.9879 509.601 69.1017 510.03 69.1017 510.509C69.1017 510.989 68.9879 511.417 68.7602 511.794C68.5325 512.172 68.2179 512.469 67.8164 512.684C67.4149 512.894 66.9595 512.999 66.4502 512.999ZM66.4502 511.848C66.8097 511.848 67.1033 511.729 67.331 511.489C67.5647 511.243 67.6816 510.917 67.6816 510.509C67.6816 510.102 67.5647 509.778 67.331 509.538C67.1033 509.293 66.8097 509.17 66.4502 509.17C66.0907 509.17 65.794 509.293 65.5603 509.538C65.3267 509.778 65.2098 510.102 65.2098 510.509C65.2098 510.917 65.3267 511.243 65.5603 511.489C65.794 511.729 66.0907 511.848 66.4502 511.848ZM73.9533 509.242H72.3174V512.927H70.9242V509.242H69.2884V508.091H73.9533V509.242ZM77.2444 509.637C77.8735 509.643 78.3499 509.784 78.6735 510.06C78.9971 510.335 79.1588 510.731 79.1588 511.246C79.1588 511.785 78.9761 512.202 78.6106 512.496C78.245 512.789 77.7267 512.936 77.0556 512.936L74.7007 512.927V508.091H76.0939V509.637H77.2444ZM79.6802 508.091H81.0733V512.927H79.6802V508.091ZM76.9298 511.938C77.1994 511.944 77.4061 511.887 77.55 511.768C77.6938 511.648 77.7657 511.468 77.7657 511.228C77.7657 510.995 77.6938 510.824 77.55 510.716C77.4121 510.608 77.2054 510.551 76.9298 510.545L76.0939 510.536V511.938H76.9298Z" fill="white"/>
<rect x="206.729" y="314.275" width="56.6259" height="2.69647" rx="1.34824" fill="white"/>
<rect x="206.729" y="321.466" width="56.6259" height="2.69647" rx="1.34824" fill="white"/>
<rect x="206.729" y="328.656" width="56.6259" height="2.69647" rx="1.34824" fill="white"/>
<rect x="206.729" y="335.847" width="38.7269" height="2.69647" rx="1.34824" fill="white"/>
<path d="M213.282 300.805V307.096H211.826V304.517H208.968V307.096H207.511V300.805H208.968V303.285H211.826V300.805H213.282ZM216.629 302.189C217.378 302.189 217.953 302.369 218.355 302.728C218.756 303.082 218.957 303.618 218.957 304.337V307.096H217.645V306.494C217.381 306.944 216.89 307.168 216.171 307.168C215.799 307.168 215.475 307.105 215.2 306.98C214.93 306.854 214.723 306.68 214.58 306.458C214.436 306.237 214.364 305.985 214.364 305.703C214.364 305.254 214.532 304.9 214.867 304.643C215.209 304.385 215.733 304.256 216.44 304.256H217.555C217.555 303.951 217.462 303.717 217.276 303.555C217.09 303.387 216.812 303.303 216.44 303.303C216.183 303.303 215.928 303.345 215.676 303.429C215.43 303.507 215.221 303.615 215.047 303.753L214.544 302.773C214.807 302.587 215.122 302.444 215.487 302.342C215.859 302.24 216.239 302.189 216.629 302.189ZM216.521 306.225C216.761 306.225 216.973 306.171 217.159 306.063C217.345 305.949 217.477 305.784 217.555 305.568V305.074H216.593C216.018 305.074 215.73 305.263 215.73 305.64C215.73 305.82 215.799 305.964 215.937 306.072C216.081 306.174 216.275 306.225 216.521 306.225ZM223.869 304.571C224.438 304.763 224.723 305.146 224.723 305.721C224.723 306.159 224.558 306.497 224.229 306.737C223.899 306.977 223.408 307.096 222.755 307.096H220.175V302.261H222.647C223.252 302.261 223.725 302.372 224.067 302.593C224.408 302.809 224.579 303.115 224.579 303.51C224.579 303.75 224.516 303.963 224.39 304.148C224.271 304.328 224.097 304.469 223.869 304.571ZM221.46 304.247H222.521C223.012 304.247 223.258 304.073 223.258 303.726C223.258 303.384 223.012 303.214 222.521 303.214H221.46V304.247ZM222.638 306.144C223.153 306.144 223.411 305.967 223.411 305.613C223.411 305.428 223.351 305.293 223.231 305.209C223.111 305.119 222.922 305.074 222.665 305.074H221.46V306.144H222.638ZM228.31 303.807C228.939 303.813 229.415 303.954 229.739 304.229C230.063 304.505 230.224 304.9 230.224 305.416C230.224 305.955 230.042 306.371 229.676 306.665C229.311 306.959 228.792 307.105 228.121 307.105L225.766 307.096V302.261H227.159V303.807H228.31ZM230.746 302.261H232.139V307.096H230.746V302.261ZM227.995 306.108C228.265 306.114 228.472 306.057 228.616 305.937C228.759 305.817 228.831 305.637 228.831 305.398C228.831 305.164 228.759 304.993 228.616 304.885C228.478 304.778 228.271 304.721 227.995 304.715L227.159 304.706V306.108H227.995ZM235.621 305.263H234.893V307.096H233.49V302.261H234.893V304.139H235.648L236.96 302.261H238.452L236.762 304.58L238.569 307.096H236.915L235.621 305.263ZM239.257 302.261H240.651V305.137L243.005 302.261H244.291V307.096H242.898V304.22L240.552 307.096H239.257V302.261Z" fill="white"/>
<rect x="214.819" y="372.699" width="47.6376" height="2.69647" rx="1.34824" fill="white"/>
<rect x="207.628" y="372.699" width="2.69647" height="2.69647" rx="1.34824" fill="white"/>
<rect x="214.819" y="378.991" width="47.6376" height="2.69647" rx="1.34824" fill="white"/>
<rect x="207.628" y="378.991" width="2.69647" height="2.69647" rx="1.34824" fill="white"/>
<rect x="214.819" y="385.282" width="47.6376" height="2.69647" rx="1.34824" fill="white"/>
<rect x="207.628" y="385.282" width="2.69647" height="2.69647" rx="1.34824" fill="white"/>
<rect x="214.819" y="392.473" width="47.6376" height="2.69647" rx="1.34824" fill="white"/>
<rect x="207.628" y="392.473" width="2.69647" height="2.69647" rx="1.34824" fill="white"/>
<rect x="214.819" y="398.765" width="47.6376" height="2.69647" rx="1.34824" fill="white"/>
<rect x="207.628" y="398.765" width="2.69647" height="2.69647" rx="1.34824" fill="white"/>
<rect x="214.819" y="405.056" width="47.6376" height="2.69647" rx="1.34824" fill="white"/>
<rect x="207.628" y="405.056" width="2.69647" height="2.69647" rx="1.34824" fill="white"/>
<path d="M214.001 364.334V366.823H212.653V365.52H208.212V366.823H206.864L206.873 364.334H207.125C207.502 364.322 207.769 364.046 207.925 363.507C208.081 362.967 208.177 362.197 208.212 361.197L208.284 359.228H213.12V364.334H214.001ZM209.498 361.332C209.468 362.081 209.405 362.71 209.309 363.219C209.213 363.722 209.066 364.094 208.869 364.334H211.682V360.415H209.525L209.498 361.332ZM217.077 365.592C216.568 365.592 216.109 365.487 215.702 365.277C215.3 365.062 214.986 364.765 214.758 364.388C214.53 364.01 214.416 363.582 214.416 363.102C214.416 362.623 214.53 362.194 214.758 361.817C214.986 361.439 215.3 361.146 215.702 360.936C216.109 360.72 216.568 360.612 217.077 360.612C217.586 360.612 218.042 360.72 218.443 360.936C218.845 361.146 219.159 361.439 219.387 361.817C219.615 362.194 219.728 362.623 219.728 363.102C219.728 363.582 219.615 364.01 219.387 364.388C219.159 364.765 218.845 365.062 218.443 365.277C218.042 365.487 217.586 365.592 217.077 365.592ZM217.077 364.441C217.436 364.441 217.73 364.322 217.958 364.082C218.191 363.836 218.308 363.51 218.308 363.102C218.308 362.695 218.191 362.371 217.958 362.131C217.73 361.886 217.436 361.763 217.077 361.763C216.717 361.763 216.421 361.886 216.187 362.131C215.953 362.371 215.836 362.695 215.836 363.102C215.836 363.51 215.953 363.836 216.187 364.082C216.421 364.322 216.717 364.441 217.077 364.441ZM222.994 365.592C222.478 365.592 222.014 365.487 221.601 365.277C221.193 365.062 220.873 364.765 220.639 364.388C220.411 364.01 220.297 363.582 220.297 363.102C220.297 362.623 220.411 362.194 220.639 361.817C220.873 361.439 221.193 361.146 221.601 360.936C222.014 360.72 222.478 360.612 222.994 360.612C223.503 360.612 223.947 360.72 224.324 360.936C224.708 361.146 224.986 361.448 225.16 361.844L224.072 362.428C223.821 361.985 223.458 361.763 222.985 361.763C222.619 361.763 222.317 361.883 222.077 362.122C221.837 362.362 221.717 362.689 221.717 363.102C221.717 363.516 221.837 363.842 222.077 364.082C222.317 364.322 222.619 364.441 222.985 364.441C223.464 364.441 223.827 364.22 224.072 363.776L225.16 364.37C224.986 364.753 224.708 365.053 224.324 365.268C223.947 365.484 223.503 365.592 222.994 365.592ZM230.057 361.835H228.421V365.52H227.028V361.835H225.392V360.684H230.057V361.835ZM230.805 360.684H232.198V363.561L234.553 360.684H235.838V365.52H234.445V362.644L232.099 365.52H230.805V360.684ZM241.977 363.686H241.302V365.52H239.918V363.686H239.244L238.22 365.52H236.566L238.085 363.021L236.674 360.684H238.157L239.226 362.563H239.918V360.684H241.302V362.563H241.986L243.064 360.684H244.547L243.136 363.021L244.664 365.52H243.001L241.977 363.686ZM249.945 363.12C249.945 363.138 249.936 363.264 249.918 363.498H246.259C246.325 363.797 246.481 364.034 246.727 364.208C246.972 364.382 247.278 364.468 247.644 364.468C247.895 364.468 248.117 364.432 248.309 364.361C248.506 364.283 248.689 364.163 248.857 364.001L249.603 364.81C249.148 365.331 248.482 365.592 247.608 365.592C247.062 365.592 246.58 365.487 246.16 365.277C245.741 365.062 245.417 364.765 245.19 364.388C244.962 364.01 244.848 363.582 244.848 363.102C244.848 362.629 244.959 362.203 245.181 361.826C245.408 361.442 245.717 361.146 246.107 360.936C246.502 360.72 246.942 360.612 247.428 360.612C247.901 360.612 248.33 360.714 248.713 360.918C249.097 361.122 249.396 361.415 249.612 361.799C249.834 362.176 249.945 362.617 249.945 363.12ZM247.437 361.673C247.119 361.673 246.853 361.763 246.637 361.943C246.421 362.122 246.289 362.368 246.241 362.68H248.623C248.575 362.374 248.443 362.131 248.228 361.952C248.012 361.766 247.748 361.673 247.437 361.673ZM251.019 360.684H252.412V362.572H254.516V360.684H255.918V365.52H254.516V363.713H252.412V365.52H251.019V360.684ZM257.26 360.684H258.653V363.561L261.008 360.684H262.294V365.52H260.9V362.644L258.554 365.52H257.26V360.684ZM267.938 360.684V365.52H266.688V364.136H265.655L264.738 365.52H263.246L264.352 363.938C264.016 363.806 263.758 363.618 263.579 363.372C263.405 363.12 263.318 362.818 263.318 362.464C263.318 361.895 263.522 361.457 263.929 361.152C264.343 360.84 264.909 360.684 265.628 360.684H267.938ZM265.655 361.826C265.355 361.826 265.128 361.88 264.972 361.988C264.822 362.096 264.747 362.269 264.747 362.509C264.747 362.749 264.819 362.925 264.963 363.039C265.113 363.147 265.337 363.201 265.637 363.201H266.688V361.826H265.655Z" fill="white"/>
<rect x="321.332" y="219" width="281.332" height="382" rx="8.98824" fill="#D0D6E5"/>
<rect x="339.308" y="242.369" width="35.9529" height="35.9529" rx="4.49412" fill="white"/>
<rect x="387.845" y="250.459" width="186.056" height="8.98824" rx="1.79765" fill="white"/>
<rect x="387.845" y="264.84" width="135.722" height="5.39294" rx="1.79765" fill="white"/>
<rect x="339.308" y="387.979" width="135.722" height="5.39294" rx="1.79765" fill="white"/>
<rect x="339.308" y="396.967" width="77.2988" height="4.49412" rx="1.79765" fill="white"/>
<rect x="346.499" y="413.146" width="47.6376" height="2.69647" rx="1.34824" fill="white"/>
<rect x="339.308" y="413.146" width="2.69647" height="2.69647" rx="1.34824" fill="white"/>
<rect x="346.499" y="419.438" width="47.6376" height="2.69647" rx="1.34824" fill="white"/>
<rect x="339.308" y="419.438" width="2.69647" height="2.69647" rx="1.34824" fill="white"/>
<rect x="346.499" y="425.729" width="47.6376" height="2.69647" rx="1.34824" fill="white"/>
<rect x="339.308" y="425.729" width="2.69647" height="2.69647" rx="1.34824" fill="white"/>
<rect x="339.308" y="437.414" width="135.722" height="5.39294" rx="1.79765" fill="white"/>
<rect x="339.308" y="446.402" width="77.2988" height="4.49412" rx="1.79765" fill="white"/>
<rect x="346.499" y="462.581" width="47.6376" height="2.69647" rx="1.34824" fill="white"/>
<rect x="339.308" y="462.581" width="2.69647" height="2.69647" rx="1.34824" fill="white"/>
<rect x="346.499" y="468.873" width="47.6376" height="2.69647" rx="1.34824" fill="white"/>
<rect x="339.308" y="468.873" width="2.69647" height="2.69647" rx="1.34824" fill="white"/>
<rect x="346.499" y="475.165" width="47.6376" height="2.69647" rx="1.34824" fill="white"/>
<rect x="339.308" y="475.165" width="2.69647" height="2.69647" rx="1.34824" fill="white"/>
<path d="M343.092 380.908C342.439 380.908 341.849 380.767 341.322 380.485C340.8 380.204 340.39 379.817 340.09 379.326C339.797 378.829 339.65 378.271 339.65 377.654C339.65 377.037 339.797 376.483 340.09 375.991C340.39 375.494 340.8 375.104 341.322 374.823C341.849 374.541 342.439 374.4 343.092 374.4C343.745 374.4 344.333 374.541 344.854 374.823C345.375 375.104 345.786 375.494 346.085 375.991C346.385 376.483 346.535 377.037 346.535 377.654C346.535 378.271 346.385 378.829 346.085 379.326C345.786 379.817 345.375 380.204 344.854 380.485C344.333 380.767 343.745 380.908 343.092 380.908ZM343.092 379.667C343.464 379.667 343.799 379.584 344.099 379.416C344.399 379.242 344.632 379.002 344.8 378.697C344.974 378.391 345.061 378.044 345.061 377.654C345.061 377.265 344.974 376.917 344.8 376.611C344.632 376.306 344.399 376.069 344.099 375.901C343.799 375.728 343.464 375.641 343.092 375.641C342.721 375.641 342.385 375.728 342.086 375.901C341.786 376.069 341.549 376.306 341.376 376.611C341.208 376.917 341.124 377.265 341.124 377.654C341.124 378.044 341.208 378.391 341.376 378.697C341.549 379.002 341.786 379.242 342.086 379.416C342.385 379.584 342.721 379.667 343.092 379.667ZM350.344 376.297C350.805 376.297 351.21 376.393 351.557 376.585C351.905 376.77 352.172 377.034 352.357 377.375C352.549 377.717 352.645 378.113 352.645 378.562C352.645 379.023 352.531 379.434 352.303 379.793C352.082 380.147 351.77 380.422 351.369 380.62C350.967 380.812 350.512 380.908 350.002 380.908C349.158 380.908 348.492 380.638 348.007 380.099C347.528 379.554 347.288 378.757 347.288 377.708C347.288 376.737 347.498 375.964 347.917 375.389C348.343 374.808 348.993 374.427 349.868 374.248L352.169 373.789L352.357 374.994L350.326 375.398C349.775 375.506 349.364 375.686 349.095 375.937C348.831 376.189 348.675 376.546 348.627 377.007C348.837 376.779 349.089 376.605 349.382 376.486C349.676 376.36 349.996 376.297 350.344 376.297ZM350.011 379.82C350.371 379.82 350.659 379.703 350.874 379.47C351.096 379.236 351.207 378.939 351.207 378.58C351.207 378.214 351.096 377.924 350.874 377.708C350.659 377.492 350.371 377.384 350.011 377.384C349.646 377.384 349.352 377.492 349.131 377.708C348.909 377.924 348.798 378.214 348.798 378.58C348.798 378.945 348.912 379.245 349.14 379.479C349.367 379.706 349.658 379.82 350.011 379.82ZM356.446 375.892C356.895 375.892 357.303 375.997 357.668 376.207C358.04 376.411 358.33 376.701 358.54 377.079C358.75 377.45 358.854 377.885 358.854 378.382C358.854 378.88 358.75 379.317 358.54 379.694C358.33 380.066 358.04 380.357 357.668 380.566C357.303 380.77 356.895 380.872 356.446 380.872C355.828 380.872 355.343 380.677 354.99 380.288V382.544H353.587V375.964H354.927V376.522C355.274 376.102 355.781 375.892 356.446 375.892ZM356.203 379.721C356.562 379.721 356.856 379.602 357.084 379.362C357.318 379.116 357.434 378.79 357.434 378.382C357.434 377.975 357.318 377.651 357.084 377.411C356.856 377.166 356.562 377.043 356.203 377.043C355.843 377.043 355.547 377.166 355.313 377.411C355.085 377.651 354.972 377.975 354.972 378.382C354.972 378.79 355.085 379.116 355.313 379.362C355.547 379.602 355.843 379.721 356.203 379.721ZM361.637 375.892C362.386 375.892 362.961 376.072 363.363 376.432C363.764 376.785 363.965 377.322 363.965 378.041V380.8H362.652V380.198C362.389 380.647 361.897 380.872 361.178 380.872C360.807 380.872 360.483 380.809 360.208 380.683C359.938 380.557 359.731 380.384 359.587 380.162C359.444 379.94 359.372 379.688 359.372 379.407C359.372 378.957 359.54 378.604 359.875 378.346C360.217 378.089 360.741 377.96 361.448 377.96H362.563C362.563 377.654 362.47 377.42 362.284 377.259C362.098 377.091 361.82 377.007 361.448 377.007C361.19 377.007 360.936 377.049 360.684 377.133C360.438 377.211 360.229 377.319 360.055 377.456L359.552 376.477C359.815 376.291 360.13 376.147 360.495 376.045C360.867 375.943 361.247 375.892 361.637 375.892ZM361.529 379.928C361.769 379.928 361.981 379.874 362.167 379.766C362.353 379.652 362.485 379.488 362.563 379.272V378.778H361.601C361.026 378.778 360.738 378.966 360.738 379.344C360.738 379.524 360.807 379.667 360.945 379.775C361.088 379.877 361.283 379.928 361.529 379.928ZM368.276 378.283C368.563 378.373 368.785 378.511 368.941 378.697C369.103 378.882 369.184 379.104 369.184 379.362C369.184 379.667 369.079 379.937 368.869 380.171C368.659 380.399 368.372 380.575 368.006 380.701C367.641 380.827 367.227 380.89 366.766 380.89C366.388 380.89 366.017 380.851 365.651 380.773C365.286 380.695 364.947 380.578 364.636 380.422L365.013 379.443C365.522 379.688 366.086 379.811 366.703 379.811C367.032 379.811 367.29 379.763 367.476 379.667C367.668 379.566 367.763 379.425 367.763 379.245C367.763 379.089 367.698 378.972 367.566 378.894C367.434 378.811 367.242 378.769 366.99 378.769H366.002V377.897H366.865C367.11 377.897 367.299 377.858 367.431 377.78C367.563 377.702 367.629 377.588 367.629 377.438C367.629 377.283 367.545 377.163 367.377 377.079C367.215 376.995 366.981 376.953 366.676 376.953C366.208 376.953 365.699 377.064 365.148 377.286L364.806 376.315C365.477 376.021 366.131 375.874 366.766 375.874C367.203 375.874 367.593 375.928 367.934 376.036C368.282 376.144 368.554 376.303 368.752 376.513C368.95 376.716 369.049 376.956 369.049 377.232C369.049 377.459 368.98 377.666 368.842 377.852C368.704 378.032 368.515 378.175 368.276 378.283ZM372.469 380.872C371.959 380.872 371.501 380.767 371.093 380.557C370.692 380.342 370.377 380.045 370.15 379.667C369.922 379.29 369.808 378.862 369.808 378.382C369.808 377.903 369.922 377.474 370.15 377.097C370.377 376.719 370.692 376.426 371.093 376.216C371.501 376 371.959 375.892 372.469 375.892C372.978 375.892 373.433 376 373.835 376.216C374.236 376.426 374.551 376.719 374.779 377.097C375.006 377.474 375.12 377.903 375.12 378.382C375.12 378.862 375.006 379.29 374.779 379.667C374.551 380.045 374.236 380.342 373.835 380.557C373.433 380.767 372.978 380.872 372.469 380.872ZM372.469 379.721C372.828 379.721 373.122 379.602 373.349 379.362C373.583 379.116 373.7 378.79 373.7 378.382C373.7 377.975 373.583 377.651 373.349 377.411C373.122 377.166 372.828 377.043 372.469 377.043C372.109 377.043 371.812 377.166 371.579 377.411C371.345 377.651 371.228 377.975 371.228 378.382C371.228 378.79 371.345 379.116 371.579 379.362C371.812 379.602 372.109 379.721 372.469 379.721ZM379.779 378.274C380.348 378.466 380.633 378.85 380.633 379.425C380.633 379.862 380.468 380.201 380.138 380.44C379.809 380.68 379.317 380.8 378.664 380.8H376.085V375.964H378.556C379.161 375.964 379.635 376.075 379.976 376.297C380.318 376.513 380.489 376.818 380.489 377.214C380.489 377.453 380.426 377.666 380.3 377.852C380.18 378.032 380.006 378.172 379.779 378.274ZM377.37 377.951H378.43C378.922 377.951 379.167 377.777 379.167 377.429C379.167 377.088 378.922 376.917 378.43 376.917H377.37V377.951ZM378.547 379.847C379.063 379.847 379.32 379.67 379.32 379.317C379.32 379.131 379.26 378.996 379.141 378.912C379.021 378.823 378.832 378.778 378.574 378.778H377.37V379.847H378.547ZM383.554 375.892C384.303 375.892 384.879 376.072 385.28 376.432C385.682 376.785 385.882 377.322 385.882 378.041V380.8H384.57V380.198C384.306 380.647 383.815 380.872 383.096 380.872C382.724 380.872 382.401 380.809 382.125 380.683C381.856 380.557 381.649 380.384 381.505 380.162C381.361 379.94 381.289 379.688 381.289 379.407C381.289 378.957 381.457 378.604 381.793 378.346C382.134 378.089 382.659 377.96 383.366 377.96H384.48C384.48 377.654 384.387 377.42 384.202 377.259C384.016 377.091 383.737 377.007 383.366 377.007C383.108 377.007 382.853 377.049 382.602 377.133C382.356 377.211 382.146 377.319 381.972 377.456L381.469 376.477C381.733 376.291 382.047 376.147 382.413 376.045C382.784 375.943 383.165 375.892 383.554 375.892ZM383.447 379.928C383.686 379.928 383.899 379.874 384.085 379.766C384.27 379.652 384.402 379.488 384.48 379.272V378.778H383.518C382.943 378.778 382.656 378.966 382.656 379.344C382.656 379.524 382.724 379.667 382.862 379.775C383.006 379.877 383.201 379.928 383.447 379.928ZM387.1 375.964H388.494V377.852H390.597V375.964H391.999V380.8H390.597V378.993H388.494V380.8H387.1V375.964ZM393.341 375.964H394.734V378.841L397.089 375.964H398.375V380.8H396.981V377.924L394.636 380.8H393.341V375.964ZM404.423 378.4C404.423 378.418 404.414 378.544 404.396 378.778H400.738C400.804 379.077 400.96 379.314 401.206 379.488C401.451 379.661 401.757 379.748 402.122 379.748C402.374 379.748 402.596 379.712 402.788 379.641C402.985 379.563 403.168 379.443 403.336 379.281L404.082 380.09C403.626 380.611 402.961 380.872 402.086 380.872C401.541 380.872 401.059 380.767 400.639 380.557C400.22 380.342 399.896 380.045 399.669 379.667C399.441 379.29 399.327 378.862 399.327 378.382C399.327 377.909 399.438 377.483 399.66 377.106C399.887 376.722 400.196 376.426 400.585 376.216C400.981 376 401.421 375.892 401.907 375.892C402.38 375.892 402.808 375.994 403.192 376.198C403.575 376.402 403.875 376.695 404.091 377.079C404.313 377.456 404.423 377.897 404.423 378.4ZM401.916 376.953C401.598 376.953 401.331 377.043 401.116 377.223C400.9 377.402 400.768 377.648 400.72 377.96H403.102C403.054 377.654 402.922 377.411 402.707 377.232C402.491 377.046 402.227 376.953 401.916 376.953Z" fill="white"/>
<rect x="339.308" y="314.275" width="156.395" height="4.49412" rx="1.79765" fill="white"/>
<rect x="339.308" y="323.264" width="156.395" height="4.49412" rx="1.79765" fill="white"/>
<rect x="339.308" y="332.252" width="156.395" height="4.49412" rx="1.79765" fill="white"/>
<rect x="339.308" y="341.24" width="106.96" height="4.49412" rx="1.79765" fill="white"/>
<path d="M343.092 307.204C342.439 307.204 341.849 307.064 341.322 306.782C340.8 306.5 340.39 306.114 340.09 305.622C339.797 305.125 339.65 304.568 339.65 303.951C339.65 303.333 339.797 302.779 340.09 302.288C340.39 301.79 340.8 301.401 341.322 301.119C341.849 300.838 342.439 300.697 343.092 300.697C343.745 300.697 344.333 300.838 344.854 301.119C345.375 301.401 345.786 301.79 346.085 302.288C346.385 302.779 346.535 303.333 346.535 303.951C346.535 304.568 346.385 305.125 346.085 305.622C345.786 306.114 345.375 306.5 344.854 306.782C344.333 307.064 343.745 307.204 343.092 307.204ZM343.092 305.964C343.464 305.964 343.799 305.88 344.099 305.712C344.399 305.539 344.632 305.299 344.8 304.993C344.974 304.688 345.061 304.34 345.061 303.951C345.061 303.561 344.974 303.214 344.8 302.908C344.632 302.602 344.399 302.366 344.099 302.198C343.799 302.024 343.464 301.937 343.092 301.937C342.721 301.937 342.385 302.024 342.086 302.198C341.786 302.366 341.549 302.602 341.376 302.908C341.208 303.214 341.124 303.561 341.124 303.951C341.124 304.34 341.208 304.688 341.376 304.993C341.549 305.299 341.786 305.539 342.086 305.712C342.385 305.88 342.721 305.964 343.092 305.964ZM352.395 307.168C351.88 307.168 351.415 307.064 351.002 306.854C350.594 306.638 350.274 306.341 350.04 305.964C349.812 305.586 349.699 305.158 349.699 304.679C349.699 304.199 349.812 303.771 350.04 303.393C350.274 303.016 350.594 302.722 351.002 302.512C351.415 302.297 351.88 302.189 352.395 302.189C352.904 302.189 353.348 302.297 353.725 302.512C354.109 302.722 354.388 303.025 354.561 303.42L353.474 304.005C353.222 303.561 352.86 303.339 352.386 303.339C352.021 303.339 351.718 303.459 351.478 303.699C351.239 303.939 351.119 304.265 351.119 304.679C351.119 305.092 351.239 305.419 351.478 305.658C351.718 305.898 352.021 306.018 352.386 306.018C352.865 306.018 353.228 305.796 353.474 305.353L354.561 305.946C354.388 306.33 354.109 306.629 353.725 306.845C353.348 307.061 352.904 307.168 352.395 307.168ZM360.053 304.697C360.053 304.715 360.044 304.84 360.026 305.074H356.368C356.433 305.374 356.589 305.61 356.835 305.784C357.081 305.958 357.386 306.045 357.752 306.045C358.003 306.045 358.225 306.009 358.417 305.937C358.615 305.859 358.797 305.739 358.965 305.577L359.711 306.386C359.256 306.908 358.591 307.168 357.716 307.168C357.171 307.168 356.688 307.064 356.269 306.854C355.849 306.638 355.526 306.341 355.298 305.964C355.07 305.586 354.956 305.158 354.956 304.679C354.956 304.205 355.067 303.78 355.289 303.402C355.517 303.019 355.825 302.722 356.215 302.512C356.61 302.297 357.051 302.189 357.536 302.189C358.009 302.189 358.438 302.291 358.821 302.495C359.205 302.698 359.504 302.992 359.72 303.375C359.942 303.753 360.053 304.193 360.053 304.697ZM357.545 303.25C357.227 303.25 356.961 303.339 356.745 303.519C356.529 303.699 356.398 303.945 356.35 304.256H358.731C358.684 303.951 358.552 303.708 358.336 303.528C358.12 303.342 357.857 303.25 357.545 303.25ZM363.923 302.593C364.384 302.593 364.789 302.689 365.136 302.881C365.484 303.067 365.75 303.33 365.936 303.672C366.128 304.014 366.224 304.409 366.224 304.858C366.224 305.32 366.11 305.73 365.882 306.09C365.661 306.443 365.349 306.719 364.948 306.917C364.546 307.108 364.091 307.204 363.581 307.204C362.736 307.204 362.071 306.935 361.586 306.395C361.107 305.85 360.867 305.053 360.867 304.005C360.867 303.034 361.077 302.261 361.496 301.686C361.921 301.104 362.572 300.724 363.447 300.544L365.747 300.086L365.936 301.29L363.905 301.695C363.354 301.802 362.943 301.982 362.674 302.234C362.41 302.486 362.254 302.842 362.206 303.303C362.416 303.076 362.668 302.902 362.961 302.782C363.255 302.656 363.575 302.593 363.923 302.593ZM363.59 306.117C363.95 306.117 364.237 306 364.453 305.766C364.675 305.533 364.786 305.236 364.786 304.876C364.786 304.511 364.675 304.22 364.453 304.005C364.237 303.789 363.95 303.681 363.59 303.681C363.225 303.681 362.931 303.789 362.709 304.005C362.488 304.22 362.377 304.511 362.377 304.876C362.377 305.242 362.491 305.542 362.718 305.775C362.946 306.003 363.237 306.117 363.59 306.117ZM371.876 304.697C371.876 304.715 371.867 304.84 371.849 305.074H368.191C368.257 305.374 368.413 305.61 368.658 305.784C368.904 305.958 369.21 306.045 369.575 306.045C369.827 306.045 370.049 306.009 370.24 305.937C370.438 305.859 370.621 305.739 370.789 305.577L371.535 306.386C371.079 306.908 370.414 307.168 369.539 307.168C368.994 307.168 368.512 307.064 368.092 306.854C367.673 306.638 367.349 306.341 367.121 305.964C366.894 305.586 366.78 305.158 366.78 304.679C366.78 304.205 366.891 303.78 367.112 303.402C367.34 303.019 367.649 302.722 368.038 302.512C368.434 302.297 368.874 302.189 369.359 302.189C369.833 302.189 370.261 302.291 370.645 302.495C371.028 302.698 371.328 302.992 371.544 303.375C371.765 303.753 371.876 304.193 371.876 304.697ZM369.368 303.25C369.051 303.25 368.784 303.339 368.568 303.519C368.353 303.699 368.221 303.945 368.173 304.256H370.555C370.507 303.951 370.375 303.708 370.159 303.528C369.944 303.342 369.68 303.25 369.368 303.25Z" fill="white"/>
<rect x="338.409" y="520.106" width="156.395" height="4.49412" rx="1.79765" fill="white"/>
<rect x="338.409" y="529.094" width="156.395" height="4.49412" rx="1.79765" fill="white"/>
<path d="M342.193 513.035C341.54 513.035 340.95 512.894 340.423 512.612C339.901 512.331 339.491 511.944 339.191 511.453C338.898 510.956 338.751 510.398 338.751 509.781C338.751 509.164 338.898 508.61 339.191 508.118C339.491 507.621 339.901 507.231 340.423 506.95C340.95 506.668 341.54 506.527 342.193 506.527C342.847 506.527 343.434 506.668 343.955 506.95C344.476 507.231 344.887 507.621 345.187 508.118C345.486 508.61 345.636 509.164 345.636 509.781C345.636 510.398 345.486 510.956 345.187 511.453C344.887 511.944 344.476 512.331 343.955 512.612C343.434 512.894 342.847 513.035 342.193 513.035ZM342.193 511.794C342.565 511.794 342.901 511.711 343.2 511.543C343.5 511.369 343.733 511.129 343.901 510.824C344.075 510.518 344.162 510.171 344.162 509.781C344.162 509.392 344.075 509.044 343.901 508.738C343.733 508.433 343.5 508.196 343.2 508.028C342.901 507.855 342.565 507.768 342.193 507.768C341.822 507.768 341.486 507.855 341.187 508.028C340.887 508.196 340.65 508.433 340.477 508.738C340.309 509.044 340.225 509.392 340.225 509.781C340.225 510.171 340.309 510.518 340.477 510.824C340.65 511.129 340.887 511.369 341.187 511.543C341.486 511.711 341.822 511.794 342.193 511.794ZM351.459 508.091V512.927H350.056V509.242H348.043V512.927H346.65V508.091H351.459ZM355.347 509.637C355.976 509.643 356.452 509.784 356.776 510.06C357.099 510.335 357.261 510.731 357.261 511.246C357.261 511.785 357.078 512.202 356.713 512.496C356.347 512.789 355.829 512.936 355.158 512.936L352.803 512.927V508.091H354.196V509.637H355.347ZM357.782 508.091H359.176V512.927H357.782V508.091ZM355.032 511.938C355.302 511.944 355.508 511.887 355.652 511.768C355.796 511.648 355.868 511.468 355.868 511.228C355.868 510.995 355.796 510.824 355.652 510.716C355.514 510.608 355.308 510.551 355.032 510.545L354.196 510.536V511.938H355.032ZM364.59 509.242H362.954V512.927H361.561V509.242H359.925V508.091H364.59V509.242ZM370.732 508.019C371.181 508.019 371.589 508.124 371.954 508.334C372.326 508.538 372.617 508.828 372.826 509.206C373.036 509.577 373.141 510.012 373.141 510.509C373.141 511.007 373.036 511.444 372.826 511.821C372.617 512.193 372.326 512.484 371.954 512.693C371.589 512.897 371.181 512.999 370.732 512.999C370.115 512.999 369.629 512.804 369.276 512.415V514.671H367.874V508.091H369.213V508.649C369.561 508.229 370.067 508.019 370.732 508.019ZM370.489 511.848C370.849 511.848 371.142 511.729 371.37 511.489C371.604 511.243 371.721 510.917 371.721 510.509C371.721 510.102 371.604 509.778 371.37 509.538C371.142 509.293 370.849 509.17 370.489 509.17C370.13 509.17 369.833 509.293 369.599 509.538C369.372 509.778 369.258 510.102 369.258 510.509C369.258 510.917 369.372 511.243 369.599 511.489C369.833 511.729 370.13 511.848 370.489 511.848ZM375.923 508.019C376.672 508.019 377.247 508.199 377.649 508.559C378.05 508.912 378.251 509.449 378.251 510.168V512.927H376.939V512.325C376.675 512.774 376.184 512.999 375.465 512.999C375.093 512.999 374.77 512.936 374.494 512.81C374.224 512.684 374.018 512.511 373.874 512.289C373.73 512.067 373.658 511.815 373.658 511.534C373.658 511.084 373.826 510.731 374.161 510.473C374.503 510.216 375.027 510.087 375.734 510.087H376.849C376.849 509.781 376.756 509.547 376.57 509.386C376.385 509.218 376.106 509.134 375.734 509.134C375.477 509.134 375.222 509.176 374.97 509.26C374.725 509.338 374.515 509.446 374.341 509.583L373.838 508.604C374.102 508.418 374.416 508.274 374.782 508.172C375.153 508.07 375.534 508.019 375.923 508.019ZM375.815 512.055C376.055 512.055 376.268 512.001 376.453 511.893C376.639 511.78 376.771 511.615 376.849 511.399V510.905H375.887C375.312 510.905 375.024 511.093 375.024 511.471C375.024 511.651 375.093 511.794 375.231 511.902C375.375 512.004 375.57 512.055 375.815 512.055ZM382.264 508.424C382.726 508.424 383.13 508.52 383.478 508.712C383.825 508.897 384.092 509.161 384.278 509.502C384.47 509.844 384.565 510.24 384.565 510.689C384.565 511.15 384.452 511.561 384.224 511.92C384.002 512.274 383.691 512.549 383.289 512.747C382.888 512.939 382.432 513.035 381.923 513.035C381.078 513.035 380.413 512.765 379.928 512.226C379.448 511.681 379.208 510.884 379.208 509.835C379.208 508.864 379.418 508.091 379.838 507.516C380.263 506.935 380.913 506.554 381.788 506.375L384.089 505.916L384.278 507.121L382.247 507.525C381.695 507.633 381.285 507.813 381.015 508.064C380.751 508.316 380.596 508.673 380.548 509.134C380.757 508.906 381.009 508.732 381.303 508.613C381.596 508.487 381.917 508.424 382.264 508.424ZM381.932 511.947C382.291 511.947 382.579 511.83 382.795 511.597C383.016 511.363 383.127 511.066 383.127 510.707C383.127 510.341 383.016 510.051 382.795 509.835C382.579 509.619 382.291 509.511 381.932 509.511C381.566 509.511 381.273 509.619 381.051 509.835C380.829 510.051 380.719 510.341 380.719 510.707C380.719 511.072 380.832 511.372 381.06 511.606C381.288 511.833 381.578 511.947 381.932 511.947ZM387.782 512.999C387.273 512.999 386.814 512.894 386.407 512.684C386.005 512.469 385.691 512.172 385.463 511.794C385.235 511.417 385.121 510.989 385.121 510.509C385.121 510.03 385.235 509.601 385.463 509.224C385.691 508.846 386.005 508.553 386.407 508.343C386.814 508.127 387.273 508.019 387.782 508.019C388.291 508.019 388.747 508.127 389.148 508.343C389.55 508.553 389.864 508.846 390.092 509.224C390.32 509.601 390.433 510.03 390.433 510.509C390.433 510.989 390.32 511.417 390.092 511.794C389.864 512.172 389.55 512.469 389.148 512.684C388.747 512.894 388.291 512.999 387.782 512.999ZM387.782 511.848C388.141 511.848 388.435 511.729 388.663 511.489C388.896 511.243 389.013 510.917 389.013 510.509C389.013 510.102 388.896 509.778 388.663 509.538C388.435 509.293 388.141 509.17 387.782 509.17C387.422 509.17 387.126 509.293 386.892 509.538C386.658 509.778 386.542 510.102 386.542 510.509C386.542 510.917 386.658 511.243 386.892 511.489C387.126 511.729 387.422 511.848 387.782 511.848ZM395.285 509.242H393.649V512.927H392.256V509.242H390.62V508.091H395.285V509.242ZM398.576 509.637C399.205 509.643 399.682 509.784 400.005 510.06C400.329 510.335 400.491 510.731 400.491 511.246C400.491 511.785 400.308 512.202 399.942 512.496C399.577 512.789 399.058 512.936 398.387 512.936L396.032 512.927V508.091H397.426V509.637H398.576ZM401.012 508.091H402.405V512.927H401.012V508.091ZM398.262 511.938C398.531 511.944 398.738 511.887 398.882 511.768C399.026 511.648 399.097 511.468 399.097 511.228C399.097 510.995 399.026 510.824 398.882 510.716C398.744 510.608 398.537 510.551 398.262 510.545L397.426 510.536V511.938H398.262Z" fill="white"/>
<rect x="528.061" y="314.275" width="56.6259" height="2.69647" rx="1.34824" fill="white"/>
<rect x="528.061" y="321.466" width="56.6259" height="2.69647" rx="1.34824" fill="white"/>
<rect x="528.061" y="328.656" width="56.6259" height="2.69647" rx="1.34824" fill="white"/>
<rect x="528.061" y="335.847" width="38.7269" height="2.69647" rx="1.34824" fill="white"/>
<path d="M534.614 300.805V307.096H533.158V304.517H530.299V307.096H528.843V300.805H530.299V303.285H533.158V300.805H534.614ZM537.961 302.189C538.71 302.189 539.285 302.369 539.686 302.728C540.088 303.082 540.289 303.618 540.289 304.337V307.096H538.976V306.494C538.713 306.944 538.221 307.168 537.502 307.168C537.131 307.168 536.807 307.105 536.532 306.98C536.262 306.854 536.055 306.68 535.911 306.458C535.768 306.237 535.696 305.985 535.696 305.703C535.696 305.254 535.863 304.9 536.199 304.643C536.541 304.385 537.065 304.256 537.772 304.256H538.886C538.886 303.951 538.794 303.717 538.608 303.555C538.422 303.387 538.143 303.303 537.772 303.303C537.514 303.303 537.26 303.345 537.008 303.429C536.762 303.507 536.553 303.615 536.379 303.753L535.875 302.773C536.139 302.587 536.454 302.444 536.819 302.342C537.191 302.24 537.571 302.189 537.961 302.189ZM537.853 306.225C538.092 306.225 538.305 306.171 538.491 306.063C538.677 305.949 538.809 305.784 538.886 305.568V305.074H537.925C537.349 305.074 537.062 305.263 537.062 305.64C537.062 305.82 537.131 305.964 537.269 306.072C537.412 306.174 537.607 306.225 537.853 306.225ZM545.201 304.571C545.77 304.763 546.055 305.146 546.055 305.721C546.055 306.159 545.89 306.497 545.56 306.737C545.231 306.977 544.739 307.096 544.086 307.096H541.507V302.261H543.978C544.584 302.261 545.057 302.372 545.399 302.593C545.74 302.809 545.911 303.115 545.911 303.51C545.911 303.75 545.848 303.963 545.722 304.148C545.602 304.328 545.429 304.469 545.201 304.571ZM542.792 304.247H543.853C544.344 304.247 544.59 304.073 544.59 303.726C544.59 303.384 544.344 303.214 543.853 303.214H542.792V304.247ZM543.969 306.144C544.485 306.144 544.742 305.967 544.742 305.613C544.742 305.428 544.683 305.293 544.563 305.209C544.443 305.119 544.254 305.074 543.996 305.074H542.792V306.144H543.969ZM549.642 303.807C550.271 303.813 550.747 303.954 551.071 304.229C551.394 304.505 551.556 304.9 551.556 305.416C551.556 305.955 551.373 306.371 551.008 306.665C550.642 306.959 550.124 307.105 549.453 307.105L547.098 307.096V302.261H548.491V303.807H549.642ZM552.077 302.261H553.471V307.096H552.077V302.261ZM549.327 306.108C549.597 306.114 549.803 306.057 549.947 305.937C550.091 305.817 550.163 305.637 550.163 305.398C550.163 305.164 550.091 304.993 549.947 304.885C549.809 304.778 549.603 304.721 549.327 304.715L548.491 304.706V306.108H549.327ZM556.952 305.263H556.224V307.096H554.822V302.261H556.224V304.139H556.979L558.292 302.261H559.784L558.094 304.58L559.901 307.096H558.247L556.952 305.263ZM560.589 302.261H561.982V305.137L564.337 302.261H565.623V307.096H564.229V304.22L561.883 307.096H560.589V302.261Z" fill="white"/>
<rect x="536.151" y="372.699" width="47.6376" height="2.69647" rx="1.34824" fill="white"/>
<rect x="528.96" y="372.699" width="2.69647" height="2.69647" rx="1.34824" fill="white"/>
<rect x="536.151" y="378.991" width="47.6376" height="2.69647" rx="1.34824" fill="white"/>
<rect x="528.96" y="378.991" width="2.69647" height="2.69647" rx="1.34824" fill="white"/>
<rect x="536.151" y="385.282" width="47.6376" height="2.69647" rx="1.34824" fill="white"/>
<rect x="528.96" y="385.282" width="2.69647" height="2.69647" rx="1.34824" fill="white"/>
<rect x="536.151" y="392.473" width="47.6376" height="2.69647" rx="1.34824" fill="white"/>
<rect x="528.96" y="392.473" width="2.69647" height="2.69647" rx="1.34824" fill="white"/>
<rect x="536.151" y="398.765" width="47.6376" height="2.69647" rx="1.34824" fill="white"/>
<rect x="528.96" y="398.765" width="2.69647" height="2.69647" rx="1.34824" fill="white"/>
<rect x="536.151" y="405.056" width="47.6376" height="2.69647" rx="1.34824" fill="white"/>
<rect x="528.96" y="405.056" width="2.69647" height="2.69647" rx="1.34824" fill="white"/>
<path d="M535.333 364.334V366.823H533.984V365.52H529.544V366.823H528.196L528.205 364.334H528.457C528.834 364.322 529.101 364.046 529.257 363.507C529.412 362.967 529.508 362.197 529.544 361.197L529.616 359.228H534.452V364.334H535.333ZM530.83 361.332C530.8 362.081 530.737 362.71 530.641 363.219C530.545 363.722 530.398 364.094 530.2 364.334H533.014V360.415H530.857L530.83 361.332ZM538.409 365.592C537.899 365.592 537.441 365.487 537.033 365.277C536.632 365.062 536.317 364.765 536.09 364.388C535.862 364.01 535.748 363.582 535.748 363.102C535.748 362.623 535.862 362.194 536.09 361.817C536.317 361.439 536.632 361.146 537.033 360.936C537.441 360.72 537.899 360.612 538.409 360.612C538.918 360.612 539.373 360.72 539.775 360.936C540.176 361.146 540.491 361.439 540.719 361.817C540.946 362.194 541.06 362.623 541.06 363.102C541.06 363.582 540.946 364.01 540.719 364.388C540.491 364.765 540.176 365.062 539.775 365.277C539.373 365.487 538.918 365.592 538.409 365.592ZM538.409 364.441C538.768 364.441 539.062 364.322 539.289 364.082C539.523 363.836 539.64 363.51 539.64 363.102C539.64 362.695 539.523 362.371 539.289 362.131C539.062 361.886 538.768 361.763 538.409 361.763C538.049 361.763 537.752 361.886 537.519 362.131C537.285 362.371 537.168 362.695 537.168 363.102C537.168 363.51 537.285 363.836 537.519 364.082C537.752 364.322 538.049 364.441 538.409 364.441ZM544.326 365.592C543.81 365.592 543.346 365.487 542.932 365.277C542.525 365.062 542.204 364.765 541.971 364.388C541.743 364.01 541.629 363.582 541.629 363.102C541.629 362.623 541.743 362.194 541.971 361.817C542.204 361.439 542.525 361.146 542.932 360.936C543.346 360.72 543.81 360.612 544.326 360.612C544.835 360.612 545.278 360.72 545.656 360.936C546.039 361.146 546.318 361.448 546.492 361.844L545.404 362.428C545.152 361.985 544.79 361.763 544.317 361.763C543.951 361.763 543.648 361.883 543.409 362.122C543.169 362.362 543.049 362.689 543.049 363.102C543.049 363.516 543.169 363.842 543.409 364.082C543.648 364.322 543.951 364.441 544.317 364.441C544.796 364.441 545.158 364.22 545.404 363.776L546.492 364.37C546.318 364.753 546.039 365.053 545.656 365.268C545.278 365.484 544.835 365.592 544.326 365.592ZM551.389 361.835H549.753V365.52H548.36V361.835H546.724V360.684H551.389V361.835ZM552.136 360.684H553.529V363.561L555.884 360.684H557.17V365.52H555.777V362.644L553.431 365.52H552.136V360.684ZM563.308 363.686H562.634V365.52H561.25V363.686H560.576L559.551 365.52H557.897L559.416 363.021L558.005 360.684H559.488L560.558 362.563H561.25V360.684H562.634V362.563H563.317L564.396 360.684H565.879L564.468 363.021L565.996 365.52H564.333L563.308 363.686ZM571.276 363.12C571.276 363.138 571.267 363.264 571.249 363.498H567.591C567.657 363.797 567.813 364.034 568.058 364.208C568.304 364.382 568.61 364.468 568.975 364.468C569.227 364.468 569.449 364.432 569.64 364.361C569.838 364.283 570.021 364.163 570.189 364.001L570.935 364.81C570.479 365.331 569.814 365.592 568.939 365.592C568.394 365.592 567.912 365.487 567.492 365.277C567.073 365.062 566.749 364.765 566.521 364.388C566.294 364.01 566.18 363.582 566.18 363.102C566.18 362.629 566.291 362.203 566.512 361.826C566.74 361.442 567.049 361.146 567.438 360.936C567.834 360.72 568.274 360.612 568.76 360.612C569.233 360.612 569.661 360.714 570.045 360.918C570.428 361.122 570.728 361.415 570.944 361.799C571.165 362.176 571.276 362.617 571.276 363.12ZM568.769 361.673C568.451 361.673 568.184 361.763 567.969 361.943C567.753 362.122 567.621 362.368 567.573 362.68H569.955C569.907 362.374 569.775 362.131 569.56 361.952C569.344 361.766 569.08 361.673 568.769 361.673ZM572.351 360.684H573.744V362.572H575.847V360.684H577.25V365.52H575.847V363.713H573.744V365.52H572.351V360.684ZM578.592 360.684H579.985V363.561L582.34 360.684H583.625V365.52H582.232V362.644L579.886 365.52H578.592V360.684ZM589.27 360.684V365.52H588.02V364.136H586.987L586.07 365.52H584.578L585.683 363.938C585.348 363.806 585.09 363.618 584.91 363.372C584.737 363.12 584.65 362.818 584.65 362.464C584.65 361.895 584.853 361.457 585.261 361.152C585.674 360.84 586.241 360.684 586.96 360.684H589.27ZM586.987 361.826C586.687 361.826 586.459 361.88 586.303 361.988C586.154 362.096 586.079 362.269 586.079 362.509C586.079 362.749 586.151 362.925 586.294 363.039C586.444 363.147 586.669 363.201 586.969 363.201H588.02V361.826H586.987Z" fill="white"/>
<rect x="125" y="78" width="352" height="477.955" rx="11.246" fill="#FCFDFF"/>
<rect x="147.492" y="107.24" width="44.984" height="44.984" rx="5.623" fill="#D0D6E5"/>
<rect x="208.22" y="117.361" width="232.792" height="11.246" rx="2.2492" fill="#D0D6E5"/>
<rect x="208.22" y="135.355" width="169.815" height="6.7476" rx="2.2492" fill="#D0D6E5"/>
<rect x="147.492" y="289.425" width="169.815" height="6.7476" rx="2.2492" fill="#D0D6E5"/>
<rect x="147.492" y="300.671" width="96.7157" height="5.623" rx="2.2492" fill="#D0D6E5"/>
<rect x="156.489" y="320.914" width="59.6038" height="3.3738" rx="1.6869" fill="#D0D6E5"/>
<rect x="147.492" y="320.914" width="3.3738" height="3.3738" rx="1.6869" fill="#D0D6E5"/>
<rect x="156.489" y="328.786" width="59.6038" height="3.3738" rx="1.6869" fill="#D0D6E5"/>
<rect x="147.492" y="328.786" width="3.3738" height="3.3738" rx="1.6869" fill="#D0D6E5"/>
<rect x="156.489" y="336.658" width="59.6038" height="3.3738" rx="1.6869" fill="#D0D6E5"/>
<rect x="147.492" y="336.658" width="3.3738" height="3.3738" rx="1.6869" fill="#D0D6E5"/>
<rect x="147.492" y="351.278" width="169.815" height="6.7476" rx="2.2492" fill="#D0D6E5"/>
<rect x="147.492" y="362.524" width="96.7157" height="5.623" rx="2.2492" fill="#D0D6E5"/>
<rect x="156.489" y="382.767" width="59.6038" height="3.3738" rx="1.6869" fill="#D0D6E5"/>
<rect x="147.492" y="382.767" width="3.3738" height="3.3738" rx="1.6869" fill="#D0D6E5"/>
<rect x="156.489" y="390.639" width="59.6038" height="3.3738" rx="1.6869" fill="#D0D6E5"/>
<rect x="147.492" y="390.639" width="3.3738" height="3.3738" rx="1.6869" fill="#D0D6E5"/>
<rect x="156.489" y="398.511" width="59.6038" height="3.3738" rx="1.6869" fill="#D0D6E5"/>
<rect x="147.492" y="398.511" width="3.3738" height="3.3738" rx="1.6869" fill="#D0D6E5"/>
<path d="M152.227 280.317C151.409 280.317 150.671 280.141 150.011 279.789C149.359 279.436 148.845 278.953 148.47 278.338C148.103 277.716 147.919 277.018 147.919 276.246C147.919 275.474 148.103 274.78 148.47 274.166C148.845 273.543 149.359 273.056 150.011 272.704C150.671 272.351 151.409 272.175 152.227 272.175C153.044 272.175 153.779 272.351 154.431 272.704C155.083 273.056 155.597 273.543 155.971 274.166C156.346 274.78 156.534 275.474 156.534 276.246C156.534 277.018 156.346 277.716 155.971 278.338C155.597 278.953 155.083 279.436 154.431 279.789C153.779 280.141 153.044 280.317 152.227 280.317ZM152.227 278.765C152.691 278.765 153.111 278.66 153.486 278.45C153.861 278.233 154.153 277.933 154.363 277.551C154.581 277.168 154.689 276.733 154.689 276.246C154.689 275.759 154.581 275.324 154.363 274.941C154.153 274.559 153.861 274.263 153.486 274.053C153.111 273.836 152.691 273.727 152.227 273.727C151.762 273.727 151.342 273.836 150.967 274.053C150.592 274.263 150.296 274.559 150.079 274.941C149.869 275.324 149.764 275.759 149.764 276.246C149.764 276.733 149.869 277.168 150.079 277.551C150.296 277.933 150.592 278.233 150.967 278.45C151.342 278.66 151.762 278.765 152.227 278.765ZM161.3 274.548C161.877 274.548 162.383 274.668 162.818 274.908C163.253 275.14 163.587 275.47 163.819 275.897C164.059 276.325 164.179 276.82 164.179 277.382C164.179 277.959 164.036 278.473 163.751 278.923C163.474 279.365 163.084 279.71 162.582 279.957C162.08 280.197 161.51 280.317 160.872 280.317C159.815 280.317 158.983 279.98 158.376 279.305C157.776 278.623 157.476 277.626 157.476 276.314C157.476 275.099 157.739 274.132 158.263 273.412C158.796 272.685 159.609 272.209 160.704 271.984L163.583 271.41L163.819 272.917L161.277 273.423C160.588 273.558 160.074 273.783 159.737 274.098C159.407 274.413 159.212 274.859 159.152 275.436C159.414 275.151 159.729 274.934 160.096 274.784C160.464 274.627 160.865 274.548 161.3 274.548ZM160.884 278.956C161.334 278.956 161.693 278.81 161.963 278.518C162.241 278.225 162.379 277.854 162.379 277.404C162.379 276.947 162.241 276.583 161.963 276.314C161.693 276.044 161.334 275.909 160.884 275.909C160.426 275.909 160.059 276.044 159.782 276.314C159.504 276.583 159.366 276.947 159.366 277.404C159.366 277.862 159.508 278.237 159.793 278.529C160.078 278.814 160.441 278.956 160.884 278.956ZM168.934 274.042C169.496 274.042 170.006 274.173 170.464 274.435C170.928 274.69 171.292 275.054 171.555 275.526C171.817 275.991 171.948 276.535 171.948 277.157C171.948 277.779 171.817 278.327 171.555 278.799C171.292 279.264 170.928 279.627 170.464 279.89C170.006 280.145 169.496 280.272 168.934 280.272C168.162 280.272 167.555 280.028 167.112 279.541V282.364H165.358V274.132H167.034V274.829C167.468 274.304 168.102 274.042 168.934 274.042ZM168.631 278.833C169.08 278.833 169.448 278.683 169.733 278.383C170.025 278.075 170.171 277.667 170.171 277.157C170.171 276.647 170.025 276.242 169.733 275.942C169.448 275.635 169.08 275.481 168.631 275.481C168.181 275.481 167.81 275.635 167.517 275.942C167.232 276.242 167.09 276.647 167.09 277.157C167.09 277.667 167.232 278.075 167.517 278.383C167.81 278.683 168.181 278.833 168.631 278.833ZM175.429 274.042C176.366 274.042 177.086 274.267 177.589 274.717C178.091 275.159 178.342 275.83 178.342 276.73V280.182H176.7V279.429C176.37 279.991 175.755 280.272 174.856 280.272C174.391 280.272 173.986 280.193 173.641 280.036C173.304 279.878 173.045 279.661 172.865 279.384C172.685 279.106 172.595 278.791 172.595 278.439C172.595 277.877 172.805 277.434 173.225 277.112C173.652 276.79 174.308 276.628 175.193 276.628H176.588C176.588 276.246 176.471 275.954 176.239 275.751C176.007 275.541 175.658 275.436 175.193 275.436C174.871 275.436 174.552 275.489 174.237 275.594C173.93 275.691 173.667 275.826 173.45 275.999L172.82 274.773C173.15 274.54 173.544 274.36 174.001 274.233C174.466 274.106 174.942 274.042 175.429 274.042ZM175.294 279.091C175.594 279.091 175.86 279.024 176.093 278.889C176.325 278.746 176.49 278.54 176.588 278.27V277.652H175.384C174.665 277.652 174.305 277.888 174.305 278.36C174.305 278.585 174.391 278.765 174.563 278.9C174.743 279.028 174.987 279.091 175.294 279.091ZM183.736 277.033C184.096 277.146 184.373 277.318 184.568 277.551C184.771 277.783 184.872 278.06 184.872 278.383C184.872 278.765 184.741 279.103 184.478 279.395C184.216 279.68 183.856 279.901 183.399 280.058C182.941 280.216 182.424 280.295 181.847 280.295C181.374 280.295 180.909 280.246 180.452 280.148C179.995 280.051 179.571 279.905 179.181 279.71L179.654 278.484C180.291 278.791 180.996 278.945 181.768 278.945C182.18 278.945 182.503 278.885 182.735 278.765C182.975 278.638 183.095 278.461 183.095 278.237C183.095 278.042 183.012 277.895 182.848 277.798C182.683 277.693 182.443 277.641 182.128 277.641H180.891V276.55H181.97C182.278 276.55 182.514 276.501 182.679 276.403C182.844 276.306 182.926 276.164 182.926 275.976C182.926 275.781 182.821 275.631 182.611 275.526C182.409 275.421 182.117 275.369 181.734 275.369C181.149 275.369 180.512 275.508 179.822 275.785L179.395 274.57C180.235 274.203 181.052 274.019 181.847 274.019C182.394 274.019 182.881 274.087 183.309 274.222C183.743 274.357 184.085 274.555 184.332 274.818C184.579 275.073 184.703 275.373 184.703 275.717C184.703 276.002 184.617 276.261 184.444 276.493C184.272 276.718 184.036 276.898 183.736 277.033ZM188.982 280.272C188.345 280.272 187.771 280.141 187.261 279.878C186.759 279.609 186.365 279.237 186.08 278.765C185.796 278.293 185.653 277.757 185.653 277.157C185.653 276.557 185.796 276.021 186.08 275.549C186.365 275.076 186.759 274.709 187.261 274.447C187.771 274.177 188.345 274.042 188.982 274.042C189.619 274.042 190.189 274.177 190.691 274.447C191.194 274.709 191.587 275.076 191.872 275.549C192.157 276.021 192.3 276.557 192.3 277.157C192.3 277.757 192.157 278.293 191.872 278.765C191.587 279.237 191.194 279.609 190.691 279.878C190.189 280.141 189.619 280.272 188.982 280.272ZM188.982 278.833C189.432 278.833 189.799 278.683 190.084 278.383C190.376 278.075 190.523 277.667 190.523 277.157C190.523 276.647 190.376 276.242 190.084 275.942C189.799 275.635 189.432 275.481 188.982 275.481C188.532 275.481 188.161 275.635 187.869 275.942C187.576 276.242 187.43 276.647 187.43 277.157C187.43 277.667 187.576 278.075 187.869 278.383C188.161 278.683 188.532 278.833 188.982 278.833ZM198.128 277.022C198.841 277.262 199.197 277.742 199.197 278.461C199.197 279.009 198.99 279.432 198.578 279.732C198.166 280.032 197.551 280.182 196.734 280.182H193.506V274.132H196.599C197.356 274.132 197.948 274.27 198.376 274.548C198.803 274.818 199.017 275.2 199.017 275.695C199.017 275.995 198.938 276.261 198.781 276.493C198.631 276.718 198.413 276.895 198.128 277.022ZM195.114 276.617H196.441C197.056 276.617 197.364 276.4 197.364 275.965C197.364 275.538 197.056 275.324 196.441 275.324H195.114V276.617ZM196.588 278.99C197.232 278.99 197.555 278.769 197.555 278.327C197.555 278.094 197.48 277.925 197.33 277.82C197.18 277.708 196.944 277.652 196.621 277.652H195.114V278.99H196.588ZM202.852 274.042C203.79 274.042 204.509 274.267 205.012 274.717C205.514 275.159 205.765 275.83 205.765 276.73V280.182H204.123V279.429C203.793 279.991 203.179 280.272 202.279 280.272C201.814 280.272 201.409 280.193 201.064 280.036C200.727 279.878 200.468 279.661 200.288 279.384C200.108 279.106 200.018 278.791 200.018 278.439C200.018 277.877 200.228 277.434 200.648 277.112C201.076 276.79 201.732 276.628 202.616 276.628H204.011C204.011 276.246 203.895 275.954 203.662 275.751C203.43 275.541 203.081 275.436 202.616 275.436C202.294 275.436 201.975 275.489 201.66 275.594C201.353 275.691 201.091 275.826 200.873 275.999L200.243 274.773C200.573 274.54 200.967 274.36 201.424 274.233C201.889 274.106 202.365 274.042 202.852 274.042ZM202.717 279.091C203.017 279.091 203.284 279.024 203.516 278.889C203.748 278.746 203.913 278.54 204.011 278.27V277.652H202.807C202.088 277.652 201.728 277.888 201.728 278.36C201.728 278.585 201.814 278.765 201.986 278.9C202.166 279.028 202.41 279.091 202.717 279.091ZM207.289 274.132H209.032V276.493H211.664V274.132H213.418V280.182H211.664V277.922H209.032V280.182H207.289V274.132ZM215.098 274.132H216.841V277.73L219.787 274.132H221.395V280.182H219.652V276.583L216.717 280.182H215.098V274.132ZM228.964 277.179C228.964 277.202 228.952 277.359 228.93 277.652H224.353C224.435 278.027 224.63 278.323 224.937 278.54C225.245 278.758 225.627 278.866 226.085 278.866C226.399 278.866 226.677 278.821 226.917 278.731C227.164 278.634 227.393 278.484 227.603 278.282L228.536 279.294C227.966 279.946 227.134 280.272 226.04 280.272C225.357 280.272 224.754 280.141 224.229 279.878C223.704 279.609 223.299 279.237 223.014 278.765C222.729 278.293 222.587 277.757 222.587 277.157C222.587 276.565 222.726 276.032 223.003 275.56C223.288 275.08 223.674 274.709 224.161 274.447C224.656 274.177 225.207 274.042 225.815 274.042C226.407 274.042 226.943 274.169 227.423 274.424C227.903 274.679 228.278 275.046 228.547 275.526C228.825 275.999 228.964 276.55 228.964 277.179ZM225.826 275.369C225.429 275.369 225.095 275.481 224.825 275.706C224.555 275.931 224.39 276.239 224.33 276.628H227.31C227.25 276.246 227.085 275.942 226.816 275.717C226.546 275.485 226.216 275.369 225.826 275.369Z" fill="#D0D6E5"/>
<rect x="147.492" y="197.208" width="195.681" height="5.623" rx="2.2492" fill="#D0D6E5"/>
<rect x="147.492" y="208.454" width="195.681" height="5.623" rx="2.2492" fill="#D0D6E5"/>
<rect x="147.492" y="219.7" width="195.681" height="5.623" rx="2.2492" fill="#D0D6E5"/>
<rect x="147.492" y="230.946" width="133.827" height="5.623" rx="2.2492" fill="#D0D6E5"/>
<path d="M152.227 188.1C151.409 188.1 150.671 187.924 150.011 187.571C149.359 187.219 148.845 186.735 148.47 186.12C148.103 185.498 147.919 184.801 147.919 184.029C147.919 183.257 148.103 182.563 148.47 181.948C148.845 181.326 149.359 180.839 150.011 180.486C150.671 180.134 151.409 179.958 152.227 179.958C153.044 179.958 153.779 180.134 154.431 180.486C155.083 180.839 155.597 181.326 155.971 181.948C156.346 182.563 156.534 183.257 156.534 184.029C156.534 184.801 156.346 185.498 155.971 186.12C155.597 186.735 155.083 187.219 154.431 187.571C153.779 187.924 153.044 188.1 152.227 188.1ZM152.227 186.548C152.691 186.548 153.111 186.443 153.486 186.233C153.861 186.016 154.153 185.716 154.363 185.333C154.581 184.951 154.689 184.516 154.689 184.029C154.689 183.541 154.581 183.107 154.363 182.724C154.153 182.342 153.861 182.046 153.486 181.836C153.111 181.618 152.691 181.51 152.227 181.51C151.762 181.51 151.342 181.618 150.967 181.836C150.592 182.046 150.296 182.342 150.079 182.724C149.869 183.107 149.764 183.541 149.764 184.029C149.764 184.516 149.869 184.951 150.079 185.333C150.296 185.716 150.592 186.016 150.967 186.233C151.342 186.443 151.762 186.548 152.227 186.548ZM163.866 188.055C163.221 188.055 162.64 187.924 162.123 187.661C161.613 187.391 161.212 187.02 160.92 186.548C160.635 186.076 160.492 185.539 160.492 184.94C160.492 184.34 160.635 183.804 160.92 183.331C161.212 182.859 161.613 182.492 162.123 182.229C162.64 181.959 163.221 181.825 163.866 181.825C164.503 181.825 165.058 181.959 165.531 182.229C166.01 182.492 166.359 182.87 166.576 183.365L165.216 184.096C164.901 183.541 164.447 183.264 163.855 183.264C163.398 183.264 163.019 183.414 162.719 183.714C162.419 184.014 162.269 184.422 162.269 184.94C162.269 185.457 162.419 185.866 162.719 186.165C163.019 186.465 163.398 186.615 163.855 186.615C164.455 186.615 164.908 186.338 165.216 185.783L166.576 186.525C166.359 187.005 166.01 187.38 165.531 187.65C165.058 187.92 164.503 188.055 163.866 188.055ZM173.447 184.962C173.447 184.985 173.436 185.142 173.414 185.434H168.836C168.919 185.809 169.114 186.106 169.421 186.323C169.729 186.54 170.111 186.649 170.568 186.649C170.883 186.649 171.161 186.604 171.401 186.514C171.648 186.417 171.877 186.267 172.087 186.064L173.02 187.076C172.45 187.729 171.618 188.055 170.523 188.055C169.841 188.055 169.238 187.924 168.713 187.661C168.188 187.391 167.783 187.02 167.498 186.548C167.213 186.076 167.071 185.539 167.071 184.94C167.071 184.347 167.21 183.815 167.487 183.343C167.772 182.863 168.158 182.492 168.645 182.229C169.14 181.959 169.691 181.825 170.298 181.825C170.891 181.825 171.427 181.952 171.907 182.207C172.386 182.462 172.761 182.829 173.031 183.309C173.309 183.781 173.447 184.332 173.447 184.962ZM170.31 183.152C169.912 183.152 169.579 183.264 169.309 183.489C169.039 183.714 168.874 184.021 168.814 184.411H171.794C171.734 184.029 171.569 183.725 171.299 183.5C171.029 183.268 170.7 183.152 170.31 183.152ZM178.29 182.331C178.867 182.331 179.373 182.451 179.808 182.69C180.243 182.923 180.576 183.253 180.809 183.68C181.049 184.107 181.169 184.602 181.169 185.165C181.169 185.742 181.026 186.255 180.741 186.705C180.464 187.148 180.074 187.493 179.572 187.74C179.069 187.98 178.5 188.1 177.862 188.1C176.805 188.1 175.973 187.762 175.366 187.088C174.766 186.405 174.466 185.408 174.466 184.096C174.466 182.882 174.728 181.914 175.253 181.195C175.786 180.468 176.599 179.991 177.694 179.767L180.573 179.193L180.809 180.7L178.267 181.206C177.577 181.341 177.064 181.566 176.726 181.881C176.397 182.196 176.202 182.642 176.142 183.219C176.404 182.934 176.719 182.717 177.086 182.567C177.454 182.409 177.855 182.331 178.29 182.331ZM177.874 186.739C178.323 186.739 178.683 186.593 178.953 186.3C179.231 186.008 179.369 185.637 179.369 185.187C179.369 184.73 179.231 184.366 178.953 184.096C178.683 183.826 178.323 183.691 177.874 183.691C177.416 183.691 177.049 183.826 176.771 184.096C176.494 184.366 176.355 184.73 176.355 185.187C176.355 185.644 176.498 186.019 176.783 186.312C177.068 186.597 177.431 186.739 177.874 186.739ZM188.241 184.962C188.241 184.985 188.229 185.142 188.207 185.434H183.63C183.712 185.809 183.907 186.106 184.215 186.323C184.522 186.54 184.904 186.649 185.362 186.649C185.677 186.649 185.954 186.604 186.194 186.514C186.441 186.417 186.67 186.267 186.88 186.064L187.813 187.076C187.244 187.729 186.411 188.055 185.317 188.055C184.634 188.055 184.031 187.924 183.506 187.661C182.981 187.391 182.576 187.02 182.292 186.548C182.007 186.076 181.864 185.539 181.864 184.94C181.864 184.347 182.003 183.815 182.28 183.343C182.565 182.863 182.951 182.492 183.439 182.229C183.933 181.959 184.485 181.825 185.092 181.825C185.684 181.825 186.22 181.952 186.7 182.207C187.18 182.462 187.555 182.829 187.825 183.309C188.102 183.781 188.241 184.332 188.241 184.962ZM185.103 183.152C184.706 183.152 184.372 183.264 184.102 183.489C183.832 183.714 183.667 184.021 183.607 184.411H186.588C186.528 184.029 186.363 183.725 186.093 183.5C185.823 183.268 185.493 183.152 185.103 183.152Z" fill="#D0D6E5"/>
<rect x="146.367" y="454.741" width="195.681" height="5.623" rx="2.2492" fill="#D0D6E5"/>
<rect x="146.367" y="465.987" width="195.681" height="5.623" rx="2.2492" fill="#D0D6E5"/>
<rect x="146.367" y="477.233" width="195.681" height="5.623" rx="2.2492" fill="#D0D6E5"/>
<rect x="146.367" y="488.479" width="195.681" height="5.623" rx="2.2492" fill="#D0D6E5"/>
<rect x="146.367" y="499.725" width="148.447" height="5.623" rx="2.2492" fill="#D0D6E5"/>
<path d="M151.102 445.633C150.285 445.633 149.546 445.457 148.887 445.105C148.234 444.752 147.721 444.269 147.346 443.654C146.978 443.032 146.795 442.335 146.795 441.562C146.795 440.79 146.978 440.097 147.346 439.482C147.721 438.86 148.234 438.372 148.887 438.02C149.546 437.667 150.285 437.491 151.102 437.491C151.919 437.491 152.654 437.667 153.306 438.02C153.958 438.372 154.472 438.86 154.847 439.482C155.222 440.097 155.409 440.79 155.409 441.562C155.409 442.335 155.222 443.032 154.847 443.654C154.472 444.269 153.958 444.752 153.306 445.105C152.654 445.457 151.919 445.633 151.102 445.633ZM151.102 444.081C151.567 444.081 151.987 443.976 152.362 443.767C152.736 443.549 153.029 443.249 153.239 442.867C153.456 442.484 153.565 442.05 153.565 441.562C153.565 441.075 153.456 440.64 153.239 440.258C153.029 439.875 152.736 439.579 152.362 439.369C151.987 439.152 151.567 439.043 151.102 439.043C150.637 439.043 150.217 439.152 149.842 439.369C149.468 439.579 149.171 439.875 148.954 440.258C148.744 440.64 148.639 441.075 148.639 441.562C148.639 442.05 148.744 442.484 148.954 442.867C149.171 443.249 149.468 443.549 149.842 443.767C150.217 443.976 150.637 444.081 151.102 444.081ZM162.694 439.448V445.498H160.94V440.888H158.421V445.498H156.678V439.448H162.694ZM167.559 441.382C168.346 441.39 168.942 441.566 169.347 441.911C169.752 442.256 169.954 442.751 169.954 443.395C169.954 444.07 169.726 444.591 169.268 444.959C168.811 445.326 168.163 445.51 167.323 445.51L164.376 445.498V439.448H166.12V441.382H167.559ZM170.607 439.448H172.35V445.498H170.607V439.448ZM167.165 444.261C167.503 444.269 167.761 444.198 167.941 444.048C168.121 443.898 168.211 443.673 168.211 443.373C168.211 443.081 168.121 442.867 167.941 442.732C167.769 442.597 167.51 442.526 167.165 442.518L166.12 442.507V444.261H167.165ZM179.124 440.888H177.077V445.498H175.334V440.888H173.287V439.448H179.124V440.888ZM186.809 439.358C187.371 439.358 187.881 439.489 188.339 439.752C188.803 440.007 189.167 440.37 189.43 440.843C189.692 441.307 189.823 441.851 189.823 442.473C189.823 443.096 189.692 443.643 189.43 444.115C189.167 444.58 188.803 444.944 188.339 445.206C187.881 445.461 187.371 445.588 186.809 445.588C186.037 445.588 185.43 445.345 184.987 444.857V447.68H183.233V439.448H184.909V440.145C185.343 439.621 185.977 439.358 186.809 439.358ZM186.506 444.149C186.955 444.149 187.323 443.999 187.608 443.699C187.9 443.392 188.046 442.983 188.046 442.473C188.046 441.963 187.9 441.559 187.608 441.259C187.323 440.951 186.955 440.798 186.506 440.798C186.056 440.798 185.685 440.951 185.392 441.259C185.107 441.559 184.965 441.963 184.965 442.473C184.965 442.983 185.107 443.392 185.392 443.699C185.685 443.999 186.056 444.149 186.506 444.149ZM193.304 439.358C194.241 439.358 194.961 439.583 195.464 440.033C195.966 440.475 196.217 441.146 196.217 442.046V445.498H194.575V444.745C194.245 445.307 193.63 445.588 192.731 445.588C192.266 445.588 191.861 445.51 191.516 445.352C191.179 445.195 190.92 444.977 190.74 444.7C190.56 444.423 190.47 444.108 190.47 443.755C190.47 443.193 190.68 442.751 191.1 442.428C191.527 442.106 192.183 441.945 193.068 441.945H194.463C194.463 441.562 194.346 441.27 194.114 441.067C193.882 440.858 193.533 440.753 193.068 440.753C192.746 440.753 192.427 440.805 192.112 440.91C191.805 441.008 191.542 441.142 191.325 441.315L190.695 440.089C191.025 439.857 191.419 439.677 191.876 439.549C192.341 439.422 192.817 439.358 193.304 439.358ZM193.169 444.408C193.469 444.408 193.735 444.34 193.968 444.205C194.2 444.063 194.365 443.856 194.463 443.587V442.968H193.259C192.54 442.968 192.18 443.204 192.18 443.677C192.18 443.901 192.266 444.081 192.438 444.216C192.618 444.344 192.862 444.408 193.169 444.408ZM201.239 439.864C201.816 439.864 202.322 439.984 202.757 440.224C203.192 440.456 203.525 440.786 203.758 441.214C203.998 441.641 204.117 442.136 204.117 442.698C204.117 443.275 203.975 443.789 203.69 444.239C203.413 444.681 203.023 445.026 202.521 445.273C202.018 445.513 201.448 445.633 200.811 445.633C199.754 445.633 198.922 445.296 198.315 444.621C197.715 443.939 197.415 442.942 197.415 441.63C197.415 440.415 197.677 439.448 198.202 438.728C198.734 438.001 199.548 437.525 200.642 437.3L203.521 436.727L203.758 438.233L201.216 438.74C200.526 438.875 200.013 439.099 199.675 439.414C199.345 439.729 199.151 440.175 199.091 440.753C199.353 440.468 199.668 440.25 200.035 440.1C200.403 439.943 200.804 439.864 201.239 439.864ZM200.822 444.273C201.272 444.273 201.632 444.126 201.902 443.834C202.179 443.542 202.318 443.17 202.318 442.721C202.318 442.263 202.179 441.9 201.902 441.63C201.632 441.36 201.272 441.225 200.822 441.225C200.365 441.225 199.998 441.36 199.72 441.63C199.443 441.9 199.304 442.263 199.304 442.721C199.304 443.178 199.447 443.553 199.732 443.845C200.016 444.13 200.38 444.273 200.822 444.273ZM208.142 445.588C207.505 445.588 206.931 445.457 206.421 445.195C205.919 444.925 205.525 444.554 205.24 444.081C204.956 443.609 204.813 443.073 204.813 442.473C204.813 441.873 204.956 441.337 205.24 440.865C205.525 440.393 205.919 440.025 206.421 439.763C206.931 439.493 207.505 439.358 208.142 439.358C208.779 439.358 209.349 439.493 209.851 439.763C210.354 440.025 210.747 440.393 211.032 440.865C211.317 441.337 211.459 441.873 211.459 442.473C211.459 443.073 211.317 443.609 211.032 444.081C210.747 444.554 210.354 444.925 209.851 445.195C209.349 445.457 208.779 445.588 208.142 445.588ZM208.142 444.149C208.592 444.149 208.959 443.999 209.244 443.699C209.536 443.392 209.683 442.983 209.683 442.473C209.683 441.963 209.536 441.559 209.244 441.259C208.959 440.951 208.592 440.798 208.142 440.798C207.692 440.798 207.321 440.951 207.029 441.259C206.736 441.559 206.59 441.963 206.59 442.473C206.59 442.983 206.736 443.392 207.029 443.699C207.321 443.999 207.692 444.149 208.142 444.149ZM217.53 440.888H215.483V445.498H213.74V440.888H211.693V439.448H217.53V440.888ZM221.647 441.382C222.435 441.39 223.031 441.566 223.436 441.911C223.84 442.256 224.043 442.751 224.043 443.395C224.043 444.07 223.814 444.591 223.357 444.959C222.9 445.326 222.251 445.51 221.411 445.51L218.465 445.498V439.448H220.208V441.382H221.647ZM224.695 439.448H226.438V445.498H224.695V439.448ZM221.254 444.261C221.591 444.269 221.85 444.198 222.03 444.048C222.21 443.898 222.3 443.673 222.3 443.373C222.3 443.081 222.21 442.867 222.03 442.732C221.857 442.597 221.599 442.526 221.254 442.518L220.208 442.507V444.261H221.254Z" fill="#D0D6E5"/>
<rect x="383.658" y="197.208" width="70.8498" height="3.3738" rx="1.6869" fill="#D0D6E5"/>
<rect x="383.658" y="206.204" width="70.8498" height="3.3738" rx="1.6869" fill="#D0D6E5"/>
<rect x="383.658" y="215.201" width="70.8498" height="3.3738" rx="1.6869" fill="#D0D6E5"/>
<rect x="383.658" y="224.198" width="48.4548" height="3.3738" rx="1.6869" fill="#D0D6E5"/>
<path d="M391.856 180.093V187.965H390.035V184.737H386.458V187.965H384.637V180.093H386.458V183.197H390.035V180.093H391.856ZM396.044 181.825C396.981 181.825 397.701 182.049 398.204 182.499C398.706 182.942 398.957 183.613 398.957 184.512V187.965H397.315V187.211C396.985 187.774 396.37 188.055 395.471 188.055C395.006 188.055 394.601 187.976 394.256 187.819C393.919 187.661 393.66 187.444 393.48 187.166C393.3 186.889 393.21 186.574 393.21 186.222C393.21 185.659 393.42 185.217 393.84 184.895C394.267 184.572 394.923 184.411 395.808 184.411H397.203C397.203 184.029 397.086 183.736 396.854 183.534C396.622 183.324 396.273 183.219 395.808 183.219C395.486 183.219 395.167 183.272 394.852 183.376C394.545 183.474 394.282 183.609 394.065 183.781L393.435 182.556C393.765 182.323 394.159 182.143 394.616 182.016C395.081 181.888 395.557 181.825 396.044 181.825ZM395.909 186.874C396.209 186.874 396.475 186.807 396.708 186.672C396.94 186.529 397.105 186.323 397.203 186.053V185.434H395.999C395.28 185.434 394.92 185.671 394.92 186.143C394.92 186.368 395.006 186.548 395.178 186.683C395.358 186.81 395.602 186.874 395.909 186.874ZM405.103 184.805C405.815 185.045 406.172 185.524 406.172 186.244C406.172 186.792 405.965 187.215 405.553 187.515C405.141 187.815 404.526 187.965 403.709 187.965H400.481V181.914H403.574C404.331 181.914 404.923 182.053 405.351 182.331C405.778 182.6 405.992 182.983 405.992 183.478C405.992 183.778 405.913 184.044 405.755 184.276C405.605 184.501 405.388 184.677 405.103 184.805ZM402.089 184.4H403.416C404.031 184.4 404.338 184.182 404.338 183.748C404.338 183.32 404.031 183.107 403.416 183.107H402.089V184.4ZM403.562 186.773C404.207 186.773 404.53 186.552 404.53 186.109C404.53 185.877 404.455 185.708 404.305 185.603C404.155 185.491 403.919 185.434 403.596 185.434H402.089V186.773H403.562ZM410.659 183.849C411.447 183.856 412.043 184.032 412.448 184.377C412.852 184.722 413.055 185.217 413.055 185.862C413.055 186.537 412.826 187.058 412.369 187.425C411.912 187.792 411.263 187.976 410.423 187.976L407.477 187.965V181.914H409.22V183.849H410.659ZM413.707 181.914H415.45V187.965H413.707V181.914ZM410.266 186.728C410.603 186.735 410.862 186.664 411.042 186.514C411.222 186.364 411.312 186.139 411.312 185.839C411.312 185.547 411.222 185.333 411.042 185.198C410.869 185.063 410.611 184.992 410.266 184.985L409.22 184.973V186.728H410.266ZM419.807 185.671H418.896V187.965H417.141V181.914H418.896V184.265H419.84L421.482 181.914H423.349L421.235 184.816L423.495 187.965H421.426L419.807 185.671ZM424.357 181.914H426.1V185.513L429.046 181.914H430.655V187.965H428.911V184.366L425.976 187.965H424.357V181.914Z" fill="#D0D6E5"/>
<rect x="393.78" y="270.307" width="59.6038" height="3.3738" rx="1.6869" fill="#D0D6E5"/>
<rect x="384.783" y="270.307" width="3.3738" height="3.3738" rx="1.6869" fill="#D0D6E5"/>
<rect x="393.78" y="278.179" width="59.6038" height="3.3738" rx="1.6869" fill="#D0D6E5"/>
<rect x="384.783" y="278.179" width="3.3738" height="3.3738" rx="1.6869" fill="#D0D6E5"/>
<rect x="393.78" y="286.051" width="59.6038" height="3.3738" rx="1.6869" fill="#D0D6E5"/>
<rect x="384.783" y="286.051" width="3.3738" height="3.3738" rx="1.6869" fill="#D0D6E5"/>
<rect x="393.78" y="295.048" width="59.6038" height="3.3738" rx="1.6869" fill="#D0D6E5"/>
<rect x="384.783" y="295.048" width="3.3738" height="3.3738" rx="1.6869" fill="#D0D6E5"/>
<rect x="393.78" y="302.92" width="59.6038" height="3.3738" rx="1.6869" fill="#D0D6E5"/>
<rect x="384.783" y="302.92" width="3.3738" height="3.3738" rx="1.6869" fill="#D0D6E5"/>
<rect x="393.78" y="310.792" width="59.6038" height="3.3738" rx="1.6869" fill="#D0D6E5"/>
<rect x="384.783" y="310.792" width="3.3738" height="3.3738" rx="1.6869" fill="#D0D6E5"/>
<path d="M392.756 259.579V262.695H391.069V261.064H385.514V262.695H383.827L383.838 259.579H384.153C384.625 259.564 384.959 259.22 385.154 258.545C385.349 257.87 385.469 256.907 385.514 255.655L385.604 253.192H391.654V259.579H392.756ZM387.122 255.823C387.084 256.76 387.006 257.548 386.886 258.185C386.766 258.815 386.582 259.28 386.335 259.579H389.855V254.676H387.156L387.122 255.823ZM396.605 261.154C395.967 261.154 395.394 261.023 394.884 260.76C394.382 260.49 393.988 260.119 393.703 259.647C393.418 259.175 393.276 258.639 393.276 258.039C393.276 257.439 393.418 256.903 393.703 256.431C393.988 255.958 394.382 255.591 394.884 255.328C395.394 255.059 395.967 254.924 396.605 254.924C397.242 254.924 397.812 255.059 398.314 255.328C398.816 255.591 399.21 255.958 399.495 256.431C399.78 256.903 399.922 257.439 399.922 258.039C399.922 258.639 399.78 259.175 399.495 259.647C399.21 260.119 398.816 260.49 398.314 260.76C397.812 261.023 397.242 261.154 396.605 261.154ZM396.605 259.714C397.055 259.714 397.422 259.564 397.707 259.265C397.999 258.957 398.145 258.549 398.145 258.039C398.145 257.529 397.999 257.124 397.707 256.824C397.422 256.517 397.055 256.363 396.605 256.363C396.155 256.363 395.784 256.517 395.491 256.824C395.199 257.124 395.053 257.529 395.053 258.039C395.053 258.549 395.199 258.957 395.491 259.265C395.784 259.564 396.155 259.714 396.605 259.714ZM404.008 261.154C403.363 261.154 402.782 261.023 402.265 260.76C401.755 260.49 401.354 260.119 401.062 259.647C400.777 259.175 400.634 258.639 400.634 258.039C400.634 257.439 400.777 256.903 401.062 256.431C401.354 255.958 401.755 255.591 402.265 255.328C402.782 255.059 403.363 254.924 404.008 254.924C404.645 254.924 405.2 255.059 405.672 255.328C406.152 255.591 406.501 255.969 406.718 256.464L405.357 257.195C405.043 256.64 404.589 256.363 403.997 256.363C403.539 256.363 403.161 256.513 402.861 256.813C402.561 257.113 402.411 257.521 402.411 258.039C402.411 258.556 402.561 258.965 402.861 259.265C403.161 259.564 403.539 259.714 403.997 259.714C404.597 259.714 405.05 259.437 405.357 258.882L406.718 259.624C406.501 260.104 406.152 260.479 405.672 260.749C405.2 261.019 404.645 261.154 404.008 261.154ZM412.846 256.453H410.799V261.064H409.056V256.453H407.009V255.014H412.846V256.453ZM413.781 255.014H415.524V258.612L418.47 255.014H420.079V261.064H418.335V257.465L415.4 261.064H413.781V255.014ZM427.759 258.77H426.916V261.064H425.184V258.77H424.34L423.058 261.064H420.989L422.89 257.938L421.124 255.014H422.98L424.318 257.364H425.184V255.014H426.916V257.364H427.77L429.12 255.014H430.975L429.21 257.938L431.122 261.064H429.041L427.759 258.77ZM437.728 258.061C437.728 258.084 437.717 258.241 437.695 258.534H433.118C433.2 258.908 433.395 259.205 433.702 259.422C434.01 259.639 434.392 259.748 434.85 259.748C435.164 259.748 435.442 259.703 435.682 259.613C435.929 259.516 436.158 259.366 436.368 259.163L437.301 260.175C436.731 260.828 435.899 261.154 434.805 261.154C434.122 261.154 433.519 261.023 432.994 260.76C432.469 260.49 432.064 260.119 431.779 259.647C431.494 259.175 431.352 258.639 431.352 258.039C431.352 257.446 431.491 256.914 431.768 256.442C432.053 255.962 432.439 255.591 432.926 255.328C433.421 255.059 433.972 254.924 434.58 254.924C435.172 254.924 435.708 255.051 436.188 255.306C436.668 255.561 437.042 255.928 437.312 256.408C437.59 256.88 437.728 257.431 437.728 258.061ZM434.591 256.251C434.194 256.251 433.86 256.363 433.59 256.588C433.32 256.813 433.155 257.12 433.095 257.51H436.075C436.015 257.128 435.85 256.824 435.581 256.599C435.311 256.367 434.981 256.251 434.591 256.251ZM439.073 255.014H440.816V257.375H443.448V255.014H445.202V261.064H443.448V258.803H440.816V261.064H439.073V255.014ZM446.882 255.014H448.625V258.612L451.571 255.014H453.18V261.064H451.436V257.465L448.501 261.064H446.882V255.014ZM460.242 255.014V261.064H458.678V259.332H457.385L456.238 261.064H454.371L455.754 259.085C455.335 258.92 455.012 258.683 454.787 258.376C454.57 258.061 454.461 257.683 454.461 257.24C454.461 256.528 454.716 255.981 455.226 255.598C455.743 255.208 456.452 255.014 457.351 255.014H460.242ZM457.385 256.442C457.01 256.442 456.725 256.509 456.53 256.644C456.343 256.779 456.249 256.997 456.249 257.296C456.249 257.596 456.339 257.818 456.519 257.96C456.707 258.095 456.988 258.162 457.363 258.162H458.678V256.442H457.385Z" fill="#D0D6E5"/>
<circle cx="524" cy="20.0001" r="19.5" fill="#3B48D1" stroke="#3B48D1"/>
<g clip-path="url(#clip0)">
<path d="M514.122 20.2947L520.372 26.5447C520.535 26.7074 520.799 26.7074 520.961 26.5447C521.124 26.3819 521.124 26.1182 520.961 25.9555L515.422 20.4167L533.583 20.4167C533.814 20.4167 534 20.2304 534 20.0001C534 19.7697 533.814 19.5834 533.583 19.5834L515.422 19.5834L520.961 14.0447C521.124 13.8819 521.124 13.6182 520.961 13.4555C520.88 13.3741 520.773 13.3334 520.667 13.3334C520.56 13.3334 520.453 13.3741 520.372 13.4555L514.122 19.7055C513.959 19.8682 513.959 20.1319 514.122 20.2947Z" fill="white"/>
</g>
<g clip-path="url(#clip1)">
<path d="M603.878 19.7054L597.628 13.4554C597.465 13.2926 597.201 13.2926 597.039 13.4554C596.876 13.6182 596.876 13.8818 597.039 14.0446L602.578 19.5833H584.417C584.186 19.5833 584 19.7697 584 20C584 20.2303 584.186 20.4167 584.417 20.4167H602.578L597.039 25.9554C596.876 26.1182 596.876 26.3818 597.039 26.5446C597.12 26.6259 597.227 26.6666 597.333 26.6666C597.44 26.6666 597.547 26.6259 597.628 26.5446L603.878 20.2946C604.041 20.1318 604.041 19.8682 603.878 19.7054Z" fill="#3B48D1"/>
</g>
<circle cx="594" cy="20" r="19.5" transform="rotate(180 594 20)" stroke="#3B48D1"/>
<path d="M529.883 70.2609V66.3478H528.142V62.8696H526.401V59.3913H524.659V55.4783H522.483V53.7391H520.741V50.2609H524.659V52H526.401V57.2174H528.142V33.7391H531.625V50.2609H533.366V42.8696H537.284V50.2609H539.026V44.6087H542.508V52H544.25V46.3478H546.426V48.5217H548.168V61.1304H546.426V66.3478H544.25V70.2609H529.883Z" fill="white"/>
<path d="M528.142 72V66.3478H526.401V62.8696H524.659V59.3913H522.483V55.4783H520.741V53.7391H519V48.5217H524.659V50.2609H526.401V33.7391H528.142V32H531.625V33.7391H533.366V41.1304H537.284V42.8696H542.508V44.6087H546.426V46.3478H548.168V48.5217H549.909V61.1304H548.168V66.3478H546.426V72H528.142ZM544.25 70.2609V66.3478H546.426V61.1304H548.168V48.5217H546.426V46.3478H544.25V52H542.508V44.6087H539.026V50.2609H537.284V42.8696H533.366V50.2609H531.625V33.7391H528.142V57.2174H526.401V52H524.659V50.2609H520.741V53.7391H522.483V55.4783H524.659V59.3913H526.401V62.8696H528.142V66.3478H529.883V70.2609H544.25Z" fill="#2D3246"/>
<defs>
<clipPath id="clip0">
<rect width="20" height="20" fill="white" transform="translate(534 30.0001) rotate(-180)"/>
</clipPath>
<clipPath id="clip1">
<rect width="20" height="20" fill="white" transform="translate(584 10)"/>
</clipPath>
</defs>
</svg>
