<svg width="98" height="39" viewBox="0 0 98 39" fill="none" xmlns="http://www.w3.org/2000/svg">
<path d="M12.8829 18.6387H10.9641C7.94911 18.6387 5.02536 16.4462 5.02536 10.9637C5.02536 5.2537 7.76661 2.9237 10.5529 2.9237H12.8829V18.6387ZM15.8979 -4.95911e-05H10.6904C5.57286 -4.95911e-05 1.23411 3.8837 1.23411 11.4212C1.23411 15.9437 3.33536 19.2787 7.08161 20.9225L0.0916086 33.5312C-0.137141 33.9425 0.0916084 34.2625 0.456608 34.2625H3.70036C3.97411 34.2625 4.15786 34.1712 4.24911 33.9425L10.5991 21.5625H12.8829V33.9425C12.8829 34.08 13.0204 34.2625 13.2029 34.2625H16.0354C16.3091 34.2625 16.4004 34.125 16.4004 33.8975V0.456203C16.4004 0.137455 16.2179 -4.95911e-05 15.8979 -4.95911e-05Z" fill="#D0D6E5"/>
<path d="M33.0693 11.3571H30.2368C30.0081 11.3571 29.8718 11.5396 29.8718 11.6771V20.4021H24.6181V11.6771C24.6181 11.4484 24.5268 11.3571 24.2981 11.3571H21.4656C21.2381 11.3571 21.1006 11.4946 21.1006 11.6771V33.8796C21.1006 34.1071 21.1918 34.2446 21.4193 34.2446H24.2981C24.4806 34.2446 24.6181 34.1071 24.6181 33.8796V23.2809H29.8718V33.8796C29.8718 34.1071 30.0081 34.2446 30.2368 34.2446H33.0693C33.2981 34.2446 33.3893 34.0609 33.3893 33.8796V11.6771C33.3893 11.4946 33.2518 11.3571 33.0693 11.3571Z" fill="#D0D6E5"/>
<path d="M97.739 32.7825L97.374 31.23C97.3278 31.0925 97.2828 31.0462 97.1453 31.0462C96.9165 31.0462 95.684 31.5487 93.9015 31.5487C90.4303 31.5487 88.739 28.2137 88.739 22.915C88.739 18.255 90.1553 13.6412 92.5315 13.6412C93.1703 13.6412 93.9478 13.8237 95.1803 14.9662C95.3178 15.1037 95.409 15.1487 95.5465 15.1487C95.684 15.1487 95.8203 15.0575 95.9578 14.8287L97.1915 12.8187C97.2828 12.6825 97.3278 12.545 97.3278 12.4075C97.3278 12.225 97.1453 12.0887 96.8715 11.9512C94.9978 10.9912 93.719 10.8087 92.6228 10.8087C88.329 10.8087 84.994 15.925 84.994 23.92C84.994 30.8175 88.1915 34.7925 92.7603 34.7925C94.679 34.7925 96.734 33.8787 97.5565 33.285C97.739 33.1475 97.7853 32.965 97.739 32.7825Z" fill="#D0D6E5"/>
<path d="M77.8842 21.6814L83.3667 11.6764C83.458 11.5401 83.4117 11.3564 83.2292 11.3564H80.5342C79.7567 11.3564 79.483 11.6314 79.2092 12.2251L75.098 20.7676C74.8692 21.2701 74.6405 21.5901 74.4117 21.7276V11.6764C74.4117 11.4939 74.3205 11.3564 74.138 11.3564H71.168C71.0317 11.3564 70.8942 11.4939 70.8942 11.6764V33.9239C70.8942 34.0614 70.9855 34.2439 71.168 34.2439H74.138C74.3205 34.2439 74.4117 34.1064 74.4117 33.9239V22.4576C74.5492 22.5489 74.6405 22.6864 74.7317 22.8689L79.9392 33.5589C80.2142 34.1064 80.6255 34.2439 81.2192 34.2439H84.143C84.3255 34.2439 84.3717 34.0614 84.2792 33.9239L77.8842 21.6814Z" fill="#D0D6E5"/>
<path d="M46.774 31.3662H40.1502C42.4802 27.3924 43.394 22.9149 43.714 17.4324C43.8052 16.2449 43.8502 15.0124 43.8502 14.2349H46.774V31.3662ZM51.7077 31.3662H51.1602C50.474 31.3662 50.2915 31.0924 50.2915 30.5437V11.6774C50.2915 11.4487 50.2002 11.3574 50.0177 11.3574H40.8815C40.6527 11.3574 40.5152 11.4937 40.5152 11.6774V13.3212C40.5152 18.8487 40.1965 25.9762 37.2727 31.3662H36.2665C35.9927 31.3662 35.9015 31.5037 35.9015 31.7312V38.4012C35.9015 38.6299 36.084 38.7212 36.2215 38.7212H38.414C38.9165 38.7212 39.099 38.3562 39.099 38.0362V34.2437H48.8752V38.4012C48.8752 38.5837 49.0127 38.7212 49.1952 38.7212H51.5252C51.799 38.7212 52.074 38.4924 52.074 38.0362V31.7312C52.074 31.5037 51.9365 31.3662 51.7077 31.3662Z" fill="#D0D6E5"/>
<path d="M60.5245 20.722C59.4745 20.722 57.8295 20.9045 57.8295 20.9045C57.8295 20.9045 57.8295 20.2195 57.9208 19.4882C58.332 15.6057 59.2908 13.6407 60.8908 13.6407C62.352 13.6407 63.2658 15.6507 63.4945 19.1695C63.5395 19.8995 63.5395 20.722 63.5395 20.722H60.5245ZM61.027 10.8095C56.0933 10.8095 53.9008 17.022 53.9008 23.7832C53.9008 30.6807 57.007 34.792 61.5758 34.792C63.8133 34.792 65.7783 33.9245 66.7833 33.2845C66.9658 33.1932 67.012 33.057 66.9658 32.8732L66.6008 31.3207C66.5545 31.1382 66.4633 31.047 66.2345 31.047C66.052 31.047 64.727 31.5495 62.8545 31.5495C59.337 31.5495 57.692 28.4882 57.692 24.4682V23.387C57.692 23.387 59.4745 23.6007 60.5245 23.6007H67.1945V21.682C67.1945 14.6007 64.682 10.8095 61.027 10.8095Z" fill="#D0D6E5"/>
</svg>
